<svg width="200" height="200" viewBox="0 0 200 200" fill="none" xmlns="http://www.w3.org/2000/svg">
<path d="M184.5 26.2502C182.5 23.7504 84 20.0003 78.5 23.5002C73 27.0001 74.313 87.1377 76 109L72 110.5C61.6 112.9 49.5 134.334 44.75 144.75L47.5 146.25C46.8074 147.562 46.3211 148.173 45.25 149C33.9532 145.396 29.1138 144.203 23.5 143.75L21.5 139.75L21 139.5L20.25 140.25L20.75 143L19 142.75L15.75 142.25L16 143L17.25 144.25H15V145C15 145.2 15.8333 145.917 16.25 146.25H15.25V147.25L20.75 149.5L44 165.5L47.5 167L52 167.25L55.75 166.25L58.5 164L64.5 158.5L63.25 176.75L117 177.75L116.5 158.5L116.75 158.75C119.779 161.964 121.498 163.703 124.75 166.5L128.5 168.75L133 169.25L137.5 168L143.25 164.75L154 157.5L161.75 151.5L163.25 151.25L167.5 149.25V148.5L166.25 148L168 146.75L167.5 146.25H165.75L167 144.75L166.75 144.25L162 145L162.25 141.5H161.5L159.5 146C153.871 145.944 149.359 146.956 137.5 151.25L134.5 147.75L136 146.75C123.5 123.25 117.75 118.25 108.75 113.25C140.506 114.443 181.75 113 182.75 112.5C183.75 112 186.5 28.75 184.5 26.2502Z" fill="white"/>
<path fillRule="evenodd" clipRule="evenodd" d="M185.5 37.9883C185.5 37.0433 185.428 27.2603 184.879 26.1263C188.11 23.8853 81.3794 19.5383 77.9954 23.4263C75.4304 26.3513 73.4054 94.7783 75.5744 109.034C73.2777 109.728 71.0314 110.579 68.8514 111.581C59.5544 115.865 48.9524 135.404 44.7134 144.728C44.6791 144.802 44.673 144.886 44.6962 144.964C44.7194 145.042 44.7703 145.108 44.8394 145.151L47.1434 146.636C46.2434 148.058 45.4874 149.021 45.1904 148.913C40.1954 147.23 29.3414 143.342 23.7164 143.711C23.1944 143.711 22.3304 140.705 21.8264 139.823C21.3224 138.941 20.8094 139.004 20.4134 139.418C19.7474 140.111 20.2514 142.019 20.2784 142.775C19.2344 142.685 16.6154 141.875 15.7784 142.127C15.6775 142.159 15.5855 142.214 15.51 142.288C15.4346 142.362 15.3778 142.452 15.3444 142.553C15.311 142.653 15.3019 142.76 15.3179 142.864C15.3339 142.968 15.3745 143.068 15.4364 143.153C15.667 143.501 15.975 143.791 16.3364 143.999C15.9434 143.93 15.5413 143.93 15.1484 143.999C15.0357 144.014 14.9281 144.055 14.835 144.12C14.7419 144.185 14.6659 144.272 14.6137 144.373C14.5615 144.474 14.5345 144.586 14.5352 144.7C14.5358 144.813 14.564 144.925 14.6174 145.025C14.8978 145.475 15.2963 145.839 15.7694 146.078C15.6221 146.07 15.4749 146.096 15.3391 146.154C15.2033 146.211 15.0827 146.299 14.9864 146.411C13.6814 148.274 19.9454 149.471 20.6294 149.939C21.3134 150.407 39.6194 164.798 46.4774 166.805C55.0094 169.316 57.4394 165.23 63.3704 159.695L64.1174 158.93C64.0544 161.045 63.3164 168.56 63.0104 173.078C62.7764 176.552 62.7944 177.074 63.2984 177.137C64.5944 177.299 105.778 178.037 115.291 178.091C116.965 178.091 117.091 178.091 117.181 177.893C117.712 176.84 116.695 160.595 116.695 158.993L116.794 158.921C125.488 168.299 128.548 171.008 136.27 168.731C143.164 166.688 161.416 152.279 162.145 151.784C162.874 151.289 169.111 150.137 167.797 148.265C167.702 148.152 167.581 148.063 167.445 148.004C167.31 147.944 167.162 147.917 167.014 147.923C167.487 147.684 167.886 147.32 168.166 146.87C168.218 146.77 168.244 146.659 168.244 146.547C168.244 146.435 168.216 146.324 168.164 146.224C168.112 146.124 168.037 146.039 167.945 145.974C167.853 145.91 167.747 145.868 167.635 145.853C167.24 145.799 166.838 145.814 166.447 145.898C166.788 145.681 167.076 145.392 167.293 145.052C167.518 144.629 167.428 144.152 166.96 144.026C166.06 143.801 163.36 144.629 162.46 144.674C162.46 143.927 162.991 141.974 162.325 141.317C162.215 141.176 162.055 141.082 161.878 141.054C161.701 141.025 161.52 141.065 161.371 141.164C160.669 141.632 160.273 143.459 159.643 144.764C159.544 144.953 159.238 145.574 159.022 145.565C153.397 145.196 142.588 149.057 137.548 150.767C137.098 150.92 135.289 148.067 135.037 147.635C135.462 147.395 135.86 147.112 136.225 146.789C136.324 146.582 136.027 146.069 135.766 145.583C133.687 141.776 123.958 126.224 121.429 123.182C118.124 119.364 114.232 116.095 109.9 113.498C139.726 114.398 179.2 114.677 182.692 113.012C182.795 112.975 182.886 112.912 182.959 112.831C183.031 112.749 183.082 112.651 183.106 112.544C183.628 108.944 185.806 61.9643 185.392 38.0783L185.5 37.9883ZM78.6794 23.7773C84.3044 21.1313 179.38 24.3353 184.159 26.4773C184.645 28.5923 184.699 35.4773 184.717 37.6463C162.658 38.8703 97.8764 38.3843 76.9244 36.6923C77.4464 29.1143 78.0494 24.0653 78.6794 23.7773ZM80.8934 108.287C81.2428 109.171 81.7732 109.972 82.4505 110.638C83.1279 111.305 83.9372 111.822 84.8264 112.157C86.9066 112.818 89.0788 113.143 91.2614 113.12C94.4834 113.021 95.7614 112.103 97.5614 108.89C101.006 109.761 104.331 111.052 107.461 112.733C105.967 118.43 102.673 126.35 97.7324 129.518C93.4664 132.218 87.1664 132.353 83.1614 129.104C77.7614 124.802 74.1614 117.404 72.2624 110.726C75.0536 109.636 77.9441 108.819 80.8934 108.287ZM85.1774 108.233C83.8945 106.548 82.199 105.221 80.2544 104.381C79.9092 102.667 79.7046 100.927 79.6424 99.1793C79.5884 97.9463 79.6964 98.1983 79.1474 97.7933C74.5844 94.4273 77.7434 91.6463 78.9944 92.0963C79.4469 92.3268 79.843 92.6545 80.1541 93.0559C80.4653 93.4573 80.6839 93.9225 80.7944 94.4183C80.8076 94.494 80.8497 94.5616 80.9118 94.6069C80.9739 94.6523 81.0512 94.6717 81.1274 94.6613C82.0274 94.5443 85.5464 89.7113 85.9964 88.8833C88.7954 92.4203 97.9214 93.2033 100.747 91.3853C101.188 92.2853 101.305 95.7413 101.314 97.2893C100.472 100.571 99.3213 103.765 97.8764 106.829C96.4724 106.937 94.0964 108.26 92.8994 108.98C88.2284 106.604 85.2854 108.359 85.1774 108.233ZM63.1004 159.398C57.1694 164.798 54.8294 168.731 46.6304 166.229C40.0874 164.267 21.7004 149.768 20.9804 149.291C20.6717 149.127 20.3457 148.997 20.0084 148.904C19.5764 148.76 15.0224 147.428 15.5084 146.726C15.7694 146.339 18.8474 147.446 19.1534 147.554C19.2352 147.581 19.3241 147.576 19.4023 147.54C19.4805 147.504 19.5423 147.439 19.5752 147.36C19.6082 147.28 19.6099 147.191 19.5801 147.111C19.5503 147.03 19.4911 146.963 19.4144 146.924C19.3154 146.924 15.6254 145.529 15.2024 144.674C15.2024 144.611 15.2024 144.602 15.2564 144.584C16.0754 144.413 18.8024 145.331 19.5764 145.628C19.6558 145.65 19.7404 145.643 19.8147 145.607C19.8889 145.572 19.9479 145.51 19.9807 145.435C20.0136 145.359 20.0181 145.275 19.9934 145.196C19.9687 145.117 19.9165 145.05 19.8464 145.007C19.4954 144.863 16.7324 143.756 16.0934 142.892C15.5714 142.181 20.0444 143.684 20.6924 143.342C20.7804 143.278 20.85 143.192 20.8943 143.092C20.9385 142.993 20.9558 142.884 20.9444 142.775C20.9444 142.19 20.4944 140.237 20.8814 139.832C20.8814 139.832 20.9444 139.76 20.9804 139.76H21.0254C21.8534 140.417 22.3574 144.377 23.7254 144.26C29.1254 143.873 39.9254 147.59 45.0104 149.255C45.5684 149.444 46.4414 148.355 47.4674 146.78C52.1294 149.795 61.4894 155.942 64.0454 158.417C63.6224 158.93 63.2714 159.29 63.1004 159.398ZM137.701 151.298C139.501 150.713 145.018 148.769 150.355 147.482C158.347 145.547 158.77 146.69 159.526 146.132C160.426 145.466 160.912 142.865 161.587 141.929C161.767 141.677 161.785 141.74 161.866 141.821C162.003 142.055 162.057 142.327 162.019 142.595C162.019 144.341 161.218 145.556 162.694 145.376C163.837 145.232 167.041 144.359 166.645 144.881C166.096 145.637 163.801 146.681 162.928 146.987C162.858 147.028 162.805 147.093 162.778 147.169C162.751 147.246 162.752 147.33 162.782 147.406C162.811 147.482 162.866 147.544 162.938 147.583C163.009 147.622 163.092 147.634 163.171 147.617C162.811 147.752 166.771 146.267 167.554 146.6C167.824 147.185 163.441 148.877 163.351 148.913C163.275 148.95 163.215 149.014 163.184 149.093C163.152 149.171 163.151 149.259 163.18 149.338C163.209 149.418 163.266 149.484 163.341 149.523C163.416 149.563 163.503 149.573 163.585 149.552C163.81 149.372 167.014 148.4 167.185 148.724C167.356 149.048 166.555 149.462 166.222 149.624C164.692 150.362 162.226 150.929 161.722 151.28C161.047 151.73 142.597 166.256 136.054 168.236C128.557 170.531 125.569 167.876 117.01 158.777C119.485 157.022 130.51 150.551 134.659 147.977C136 149.993 137.044 151.478 137.701 151.298ZM121.231 123.398C123.985 126.737 135.181 144.998 135.793 146.654C134.29 147.761 119.359 156.41 116.605 158.354C116.902 152.117 116.713 141.929 116.866 140.192C116.866 140.156 116.852 140.122 116.827 140.097C116.802 140.071 116.767 140.057 116.731 140.057C116.696 140.057 116.661 140.071 116.636 140.097C116.611 140.122 116.596 140.156 116.596 140.192C115.417 149.273 116.92 175.211 116.65 177.452C113.257 177.542 68.1224 176.669 63.5504 176.471C63.5254 176.031 63.5254 175.589 63.5504 175.148C64.0634 162.107 65.0624 168.848 64.3694 147.779C64.1534 141.092 63.9914 140.939 63.9464 138.518C63.9464 138.482 63.9321 138.448 63.9068 138.423C63.8815 138.397 63.8472 138.383 63.8114 138.383C63.7756 138.383 63.7412 138.397 63.7159 138.423C63.6906 138.448 63.6764 138.482 63.6764 138.518C63.5594 144.611 63.8564 153.962 64.2164 157.688C60.6164 154.403 48.9164 146.888 45.4064 144.71C49.5734 135.71 59.9594 116.306 69.0674 112.085C70.0484 111.626 71.0204 111.185 71.9744 110.834C73.7744 117.647 77.3744 125.108 82.7744 129.572C86.9774 133.028 93.5744 133.001 98.0744 130.094C103.186 126.818 106.534 118.844 108.082 112.913C113.044 115.613 117.495 119.162 121.231 123.398ZM182.431 112.346C178.831 113.948 138.331 113.561 108.496 112.67C105.212 110.661 101.631 109.182 97.8854 108.287C99.5316 104.989 100.843 101.533 101.8 97.9733C102.151 97.6673 104.707 91.0883 104.716 88.9013C104.716 80.6303 97.8854 75.2033 88.9484 76.5713C86.2295 76.971 83.6782 78.1281 81.5864 79.9103C80.1598 80.9469 78.9791 82.2852 78.1283 83.8298C77.2774 85.3744 76.7772 87.0875 76.6634 88.8473C76.5644 89.8103 76.4924 92.1143 76.8524 92.7173C75.4574 94.6793 76.8524 96.7223 79.0934 98.3783C79.1924 101.42 79.3634 104.741 80.6414 107.792C79.2104 108.044 77.7614 108.368 76.2854 108.782C74.7014 98.6213 75.3854 58.3823 76.8614 37.0883C99.3614 39.0683 161.758 39.6983 185.014 38.3843C185.347 62.1263 182.989 108.332 182.449 112.382L182.431 112.346Z" fill="#2A344A"/>
<path fillRule="evenodd" clipRule="evenodd" d="M86.7185 27.9353C85.4675 26.3963 82.1645 26.9813 82.2185 29.6813C82.2815 31.5533 83.2535 32.3813 84.9185 32.3363C85.2482 32.3515 85.5774 32.2949 85.8831 32.1703C86.1888 32.0457 86.4638 31.8561 86.689 31.6147C86.9141 31.3733 87.0841 31.0858 87.1871 30.7721C87.2901 30.4585 87.3237 30.1262 87.2855 29.7983C87.3297 29.1289 87.128 28.4665 86.7185 27.9353ZM84.9185 31.6253C83.7035 31.6253 83.0645 31.0853 83.0285 29.6543C83.0193 29.4085 83.0592 29.1634 83.1457 28.9331C83.2322 28.7029 83.3637 28.4922 83.5325 28.3133C83.9231 27.981 84.4192 27.7986 84.932 27.7986C85.4448 27.7986 85.9409 27.981 86.3315 28.3133C86.7098 28.7204 86.9383 29.2441 86.9795 29.7983C86.9824 30.0592 86.9286 30.3176 86.8218 30.5557C86.7149 30.7937 86.5576 31.0057 86.3607 31.1769C86.1638 31.3482 85.932 31.4745 85.6814 31.5473C85.4308 31.62 85.1674 31.6374 84.9095 31.5983L84.9185 31.6253ZM95.3675 27.9983C95.0286 27.5833 94.5671 27.2861 94.0491 27.1495C93.531 27.0128 92.983 27.0435 92.4835 27.2373C91.984 27.4311 91.5586 27.778 91.2684 28.2284C90.9781 28.6787 90.8377 29.2093 90.8675 29.7443C90.9215 31.5443 91.8305 32.4443 93.5675 32.3993C93.9033 32.416 94.2386 32.3582 94.5494 32.23C94.8602 32.1018 95.1388 31.9063 95.3651 31.6577C95.5914 31.409 95.7598 31.1133 95.8583 30.7918C95.9567 30.4703 95.9827 30.131 95.9345 29.7983C95.9634 29.1502 95.7626 28.5128 95.3675 27.9983ZM93.5675 31.6883C92.3525 31.6883 91.7135 31.1573 91.6775 29.7173C91.6683 29.4715 91.7082 29.2264 91.7947 28.9961C91.8812 28.7659 92.0127 28.5552 92.1815 28.3763C92.5714 28.0464 93.0657 27.8654 93.5765 27.8654C94.0872 27.8654 94.5815 28.0464 94.9715 28.3763C95.3434 28.7624 95.5721 29.2642 95.6195 29.7983C95.6358 30.0657 95.5921 30.3335 95.4918 30.5819C95.3914 30.8304 95.2369 31.0533 95.0394 31.2344C94.8419 31.4155 94.6064 31.5503 94.3502 31.6288C94.094 31.7073 93.8235 31.7276 93.5585 31.6883H93.5675ZM104.151 27.8453C103.67 27.3416 103.013 27.0435 102.317 27.0133C101.62 26.9831 100.94 27.2231 100.416 27.6833C99.9264 28.1964 99.6581 28.8818 99.6695 29.5913C99.7235 31.3913 100.632 32.2913 102.369 32.2463C102.702 32.2651 103.034 32.2103 103.343 32.0858C103.652 31.9612 103.929 31.77 104.155 31.5258C104.381 31.2816 104.551 30.9904 104.651 30.6731C104.752 30.3558 104.781 30.0202 104.736 29.6903C104.77 29.0249 104.563 28.3696 104.151 27.8453ZM102.351 31.5353C101.127 31.5353 100.497 30.9953 100.461 29.5733C100.453 29.3262 100.493 29.0797 100.579 28.8481C100.666 28.6164 100.797 28.4041 100.965 28.2233C101.357 27.8967 101.851 27.7179 102.36 27.7179C102.87 27.7179 103.364 27.8967 103.755 28.2233C104.141 28.623 104.373 29.1454 104.412 29.6993C104.421 29.9632 104.371 30.2257 104.266 30.4682C104.162 30.7107 104.005 30.9272 103.808 31.1024C103.61 31.2776 103.377 31.4072 103.123 31.482C102.87 31.5568 102.604 31.575 102.342 31.5353H102.351ZM86.7455 156.698C86.1515 156.608 83.0555 156.788 83.0825 157.238C82.9403 158.41 82.9403 159.595 83.0825 160.766C83.1078 160.832 83.149 160.89 83.2025 160.935C83.2559 160.981 83.3198 161.013 83.3885 161.027C84.6502 161.137 85.9208 161.083 87.1685 160.865C87.2467 160.841 87.3137 160.79 87.3575 160.721C87.6635 160.253 87.3575 157.499 87.0785 156.968C87.052 156.898 87.0073 156.835 86.9487 156.788C86.8902 156.74 86.82 156.71 86.7455 156.698ZM81.4355 151.514C80.8415 151.424 77.7365 151.604 77.7635 152.054C77.6112 153.225 77.5961 154.409 77.7185 155.582C77.7438 155.648 77.785 155.706 77.8385 155.751C77.8919 155.797 77.9558 155.829 78.0245 155.843C79.2862 155.954 80.5568 155.899 81.8045 155.681C81.844 155.671 81.8811 155.653 81.9135 155.628C81.946 155.604 81.9732 155.573 81.9935 155.537C82.2995 155.069 81.9935 152.315 81.7235 151.784C81.6986 151.721 81.6598 151.663 81.61 151.617C81.5601 151.57 81.5005 151.535 81.4355 151.514ZM86.7005 150.443C86.7773 150.417 86.8436 150.366 86.8895 150.299C87.1955 149.831 86.8895 147.077 86.6105 146.546C86.588 146.481 86.5501 146.423 86.4999 146.376C86.4497 146.329 86.3888 146.294 86.3225 146.276C85.7285 146.186 82.6325 146.366 82.6595 146.816C82.5172 147.991 82.5172 149.179 82.6595 150.353C82.6853 150.418 82.7269 150.474 82.7803 150.518C82.8338 150.562 82.8975 150.592 82.9655 150.605C84.2123 150.711 85.4675 150.657 86.7005 150.443ZM91.9835 151.001C91.3805 150.902 88.2845 151.1 88.3115 151.541C88.1592 152.712 88.1441 153.896 88.2665 155.069C88.2918 155.135 88.333 155.193 88.3865 155.238C88.4399 155.284 88.5038 155.316 88.5725 155.33C89.8343 155.436 91.1044 155.382 92.3525 155.168C92.4307 155.144 92.4977 155.093 92.5415 155.024C92.8475 154.547 92.5415 151.802 92.2715 151.262C92.2455 151.2 92.2062 151.145 92.1565 151.1C92.1067 151.055 92.0476 151.021 91.9835 151.001ZM98.7695 156.149C98.1845 156.05 95.0795 156.23 95.1065 156.68C94.9638 157.855 94.9638 159.043 95.1065 160.217C95.1323 160.282 95.1739 160.338 95.2273 160.382C95.2808 160.426 95.3445 160.456 95.4125 160.469C96.674 160.584 97.9453 160.53 99.1925 160.307C99.2706 160.283 99.3377 160.232 99.3815 160.163C99.6875 159.695 99.3815 156.941 99.1025 156.41C99.0783 156.339 99.0339 156.277 98.9748 156.23C98.9157 156.184 98.8443 156.156 98.7695 156.149ZM98.2565 149.813C98.3317 149.784 98.3972 149.734 98.4455 149.669C98.7425 149.192 98.4455 146.438 98.1665 145.907C98.1416 145.845 98.1027 145.789 98.0528 145.743C98.0028 145.698 97.9432 145.665 97.8785 145.646C97.2845 145.556 94.1795 145.727 94.2065 146.186C94.0657 147.358 94.0657 148.543 94.2065 149.714C94.2295 149.781 94.2701 149.841 94.3239 149.887C94.3777 149.932 94.4428 149.963 94.5125 149.975C95.7623 150.082 97.0205 150.027 98.2565 149.813ZM103.719 150.398C103.125 150.299 100.029 150.479 100.056 150.938C99.9137 152.11 99.9137 153.295 100.056 154.466C100.083 154.531 100.125 154.588 100.178 154.634C100.231 154.679 100.294 154.711 100.362 154.727C101.624 154.837 102.895 154.783 104.142 154.565C104.222 154.539 104.289 154.485 104.331 154.412C104.637 153.944 104.331 151.199 104.061 150.659C104.032 150.59 103.985 150.529 103.925 150.483C103.865 150.437 103.794 150.408 103.719 150.398ZM90.5525 95.1383C90.5883 95.1383 90.6226 95.124 90.6479 95.0987C90.6732 95.0734 90.6875 95.0391 90.6875 95.0033C90.6875 94.9675 90.6732 94.9331 90.6479 94.9078C90.6226 94.8825 90.5883 94.8683 90.5525 94.8683C89.7428 94.5297 88.865 94.3858 87.9896 94.4484C87.1142 94.5109 86.2658 94.778 85.5125 95.2283C85.4791 95.2426 85.4527 95.2696 85.4392 95.3034C85.4257 95.3371 85.4261 95.3749 85.4405 95.4083C85.4548 95.4417 85.4818 95.468 85.5156 95.4816C85.5493 95.4951 85.587 95.4946 85.6205 95.4803C87.2435 95.1593 88.9006 95.0443 90.5525 95.1383ZM95.2505 96.0293C96.6475 96.359 97.9944 96.8735 99.2555 97.5593C99.2691 97.5711 99.2848 97.5801 99.3019 97.5858C99.319 97.5915 99.337 97.5938 99.355 97.5926C99.373 97.5913 99.3905 97.5866 99.4066 97.5785C99.4228 97.5705 99.4372 97.5594 99.449 97.5458C99.4608 97.5322 99.4698 97.5164 99.4755 97.4993C99.4812 97.4822 99.4835 97.4642 99.4823 97.4462C99.481 97.4283 99.4763 97.4107 99.4682 97.3946C99.4602 97.3785 99.4491 97.3641 99.4355 97.3523C98.9693 96.7143 98.3144 96.239 97.5635 95.9933C96.8354 95.7157 96.0476 95.632 95.2775 95.7503C95.2453 95.7546 95.2156 95.7697 95.1931 95.7931C95.1706 95.8165 95.1567 95.8468 95.1535 95.8791C95.1504 95.9114 95.1583 95.9438 95.1759 95.971C95.1935 95.9983 95.2198 96.0188 95.2505 96.0293ZM88.8785 98.3333V97.3703C88.8652 97.288 88.823 97.2131 88.7595 97.159C88.696 97.105 88.6153 97.0753 88.532 97.0753C88.4486 97.0753 88.3679 97.105 88.3044 97.159C88.2409 97.2131 88.1988 97.288 88.1855 97.3703V98.2703C88.1771 98.3622 88.2056 98.4536 88.2647 98.5245C88.3238 98.5954 88.4086 98.6399 88.5005 98.6483C88.5924 98.6566 88.6838 98.6281 88.7547 98.5691C88.8256 98.51 88.8701 98.4252 88.8785 98.3333ZM95.9525 98.6303C95.9525 98.9183 95.8805 99.1253 95.8355 99.4133C95.8223 99.504 95.8458 99.5962 95.9006 99.6696C95.9555 99.743 96.0373 99.7916 96.128 99.8048C96.2187 99.8179 96.3109 99.7945 96.3843 99.7396C96.4577 99.6848 96.5063 99.603 96.5195 99.5123C96.5195 99.2243 96.5915 99.0173 96.6275 98.7293C96.6376 98.6834 96.6382 98.6359 96.6292 98.5898C96.6202 98.5437 96.6018 98.4999 96.5751 98.4612C96.5484 98.4226 96.514 98.3898 96.4741 98.365C96.4342 98.3401 96.3897 98.3238 96.3432 98.317C96.2967 98.3102 96.2493 98.313 96.2039 98.3253C96.1586 98.3376 96.1163 98.3592 96.0796 98.3886C96.0429 98.418 96.0127 98.4546 95.9909 98.4962C95.969 98.5378 95.9559 98.5834 95.9525 98.6303ZM90.1025 103.337C90.6065 103.823 92.4155 104.129 92.9195 103.562C93.7115 102.662 92.9195 98.1623 92.6405 98.0363C92.6167 98.0172 92.5872 98.0068 92.5568 98.0066C92.5264 98.0064 92.4968 98.0165 92.4728 98.0353C92.4488 98.054 92.4319 98.0803 92.4247 98.1099C92.4176 98.1395 92.4207 98.1706 92.4335 98.1983C92.2985 97.9373 92.8025 102.626 92.4335 103.112C91.736 103.349 90.9799 103.349 90.2825 103.112C90.2526 103.088 90.2145 103.077 90.1766 103.082C90.1386 103.086 90.1038 103.105 90.08 103.135C90.0561 103.165 90.0451 103.203 90.0493 103.241C90.0535 103.279 90.0726 103.313 90.1025 103.337ZM88.3025 105.191C88.2667 105.191 88.2323 105.205 88.207 105.231C88.1817 105.256 88.1675 105.29 88.1675 105.326C88.1675 105.362 88.1817 105.396 88.207 105.422C88.2323 105.447 88.2667 105.461 88.3025 105.461C88.9314 105.507 89.5442 105.681 90.1025 105.974C90.6479 106.302 91.1371 106.715 91.5515 107.198C91.5586 107.215 91.5688 107.23 91.5817 107.242C91.5946 107.255 91.6098 107.265 91.6265 107.272C91.6433 107.278 91.6611 107.282 91.6791 107.281C91.6971 107.281 91.7149 107.277 91.7315 107.27C91.748 107.263 91.763 107.253 91.7756 107.24C91.7881 107.227 91.7981 107.212 91.8047 107.195C91.8114 107.178 91.8148 107.161 91.8145 107.143C91.8143 107.125 91.8106 107.107 91.8035 107.09C91.7128 106.727 91.5476 106.386 91.3182 106.09C91.0888 105.794 90.8003 105.549 90.471 105.37C90.1417 105.191 89.7789 105.083 89.4055 105.053C89.0322 105.022 88.6566 105.069 88.3025 105.191Z" fill="#2A344A"/>
<path fillRule="evenodd" clipRule="evenodd" d="M129.518 47.1674C128.118 47.0997 126.721 47.3413 125.425 47.8748C124.129 48.4084 122.967 49.2208 122.021 50.2544C118.997 53.5304 118.268 58.7054 118.322 61.4324C118.538 69.8834 121.193 76.3814 129.608 76.2014C130.971 76.1844 132.316 75.8826 133.556 75.3153C134.796 74.7481 135.904 73.9279 136.808 72.9074C142.226 66.5894 141.173 47.5094 129.518 47.1674ZM129.581 74.0684C128.44 74.1537 127.295 73.9804 126.23 73.5611C125.166 73.1419 124.21 72.4877 123.434 71.6474C121.805 69.7574 120.734 66.5804 120.635 61.3784C120.562 58.4881 121.268 55.6314 122.678 53.1074C123.359 51.9142 124.35 50.9277 125.546 50.2526C126.743 49.5775 128.1 49.2391 129.473 49.2734C141.317 49.0394 142.532 74.3114 129.581 74.0684ZM123.335 81.2414C123.059 81.211 122.779 81.241 122.515 81.3294C122.252 81.4179 122.011 81.5626 121.809 81.7535C121.607 81.9444 121.448 82.177 121.345 82.4352C121.242 82.6933 121.196 82.9708 121.211 83.2484C121.192 83.6465 121.301 84.0402 121.52 84.3727C121.74 84.7052 122.06 84.9594 122.433 85.0985C122.806 85.2377 123.214 85.2547 123.598 85.147C123.982 85.0393 124.321 84.8125 124.568 84.4994C125.234 83.0144 124.892 81.6464 123.335 81.2414ZM135.404 81.0974C135.128 81.0655 134.849 81.0943 134.585 81.1816C134.321 81.269 134.08 81.4128 133.878 81.603C133.676 81.7933 133.517 82.0254 133.414 82.2832C133.311 82.5409 133.265 82.8181 133.28 83.0954C133.271 83.6509 133.481 84.1875 133.865 84.5894C134.765 85.4354 136.331 85.0664 136.637 84.3464C137.285 82.8974 136.934 81.5114 135.404 81.0974ZM97.7569 64.0604C97.8289 62.3144 99.6829 49.1744 99.7819 48.7604C99.8033 48.7013 99.8129 48.6385 99.81 48.5758C99.8071 48.513 99.7919 48.4514 99.7651 48.3945C99.7384 48.3376 99.7006 48.2866 99.6541 48.2444C99.6075 48.2021 99.5531 48.1695 99.4939 48.1484C99.3756 48.1102 99.2472 48.1187 99.135 48.1723C99.0229 48.2259 98.9355 48.3204 98.8909 48.4364C97.7749 50.9384 95.1739 61.3874 95.5339 64.4834C95.553 64.9131 95.7255 65.3218 96.0199 65.6354C97.1449 66.7694 98.8729 66.9314 100.466 66.9224C102.806 66.8684 105.641 66.6344 108.035 66.3914C108.066 69.4301 108.367 72.46 108.935 75.4454C108.936 75.5068 108.949 75.5675 108.974 75.6238C108.999 75.6801 109.034 75.7311 109.078 75.7737C109.123 75.8163 109.175 75.8498 109.232 75.8722C109.289 75.8946 109.35 75.9056 109.412 75.9044C109.535 75.8997 109.652 75.8474 109.738 75.7585C109.823 75.6695 109.871 75.5508 109.871 75.4274C110.326 72.3507 110.489 69.2378 110.357 66.1304C111.264 66.0451 112.165 65.9099 113.057 65.7254C113.119 65.6906 113.173 65.6428 113.215 65.5854C113.257 65.5279 113.286 65.4621 113.3 65.3924C113.317 65.3184 113.315 65.2411 113.292 65.1685C113.27 65.0958 113.229 65.0302 113.174 64.9784C113.117 64.9293 113.052 64.892 112.981 64.8688C112.909 64.8456 112.834 64.837 112.76 64.8434C112.76 64.6184 112.706 64.6724 112.661 64.8434L112.634 64.8974L110.303 64.8164C110.271 61.6346 109.97 58.4613 109.403 55.3304C109.398 55.2054 109.345 55.0873 109.254 55.0015C109.163 54.9156 109.042 54.8689 108.917 54.8714C108.791 54.876 108.672 54.9293 108.585 55.0199C108.498 55.1106 108.449 55.2315 108.449 55.3574C108.022 58.4579 107.865 61.5897 107.981 64.7174C101.465 64.4384 98.7739 64.9424 97.7569 64.0604ZM160.577 65.0234C160.415 64.8704 160.352 64.8974 157.733 64.8074C157.704 61.6285 157.403 58.4579 156.833 55.3304C156.833 55.2039 156.783 55.0825 156.693 54.9931C156.604 54.9036 156.482 54.8534 156.356 54.8534C156.229 54.8534 156.108 54.9036 156.019 54.9931C155.929 55.0825 155.879 55.2039 155.879 55.3304C155.45 58.4338 155.294 61.5687 155.411 64.6994C154.133 64.6994 152.927 64.5914 152.306 64.6184C146.375 64.8164 145.106 64.0064 145.187 64.0874C145.259 62.3414 147.113 49.2104 147.212 48.7874C147.235 48.7277 147.246 48.6641 147.244 48.6003C147.242 48.5364 147.227 48.4736 147.2 48.4156C147.173 48.3576 147.135 48.3056 147.087 48.2626C147.04 48.2197 146.985 48.1867 146.924 48.1656C146.864 48.1445 146.8 48.1357 146.736 48.1398C146.673 48.1438 146.61 48.1607 146.553 48.1893C146.496 48.2179 146.445 48.2577 146.404 48.3063C146.362 48.355 146.331 48.4114 146.312 48.4724C145.196 50.9294 142.595 61.3784 142.946 64.4744C142.971 64.9055 143.142 65.3153 143.432 65.6354C144.557 66.7694 146.285 66.9224 147.878 66.9134C150.209 66.8594 153.044 66.6344 155.447 66.3824C155.48 69.4209 155.782 72.4507 156.347 75.4364C156.348 75.4978 156.361 75.5585 156.386 75.6148C156.411 75.6711 156.446 75.7221 156.49 75.7647C156.535 75.8073 156.587 75.8408 156.644 75.8632C156.701 75.8856 156.762 75.8966 156.824 75.8954C156.886 75.8954 156.947 75.883 157.004 75.8588C157.061 75.8346 157.112 75.7992 157.155 75.7546C157.198 75.7101 157.231 75.6573 157.253 75.5996C157.275 75.5418 157.285 75.4801 157.283 75.4184C157.746 72.3425 157.912 69.2291 157.778 66.1214C158.685 66.0414 159.587 65.9061 160.478 65.7164C160.533 65.6799 160.58 65.6321 160.615 65.5762C160.651 65.5204 160.674 65.4576 160.683 65.3921C160.693 65.3266 160.688 65.2599 160.67 65.1964C160.651 65.1328 160.62 65.0738 160.577 65.0234ZM129.455 85.5974C126.035 85.6784 122.894 86.8844 121.049 89.7734C121.008 89.8198 120.976 89.874 120.956 89.9328C120.936 89.9916 120.928 90.0538 120.932 90.1158C120.936 90.1778 120.952 90.2383 120.98 90.2939C121.008 90.3494 121.047 90.3989 121.094 90.4394C121.141 90.4809 121.196 90.5127 121.256 90.5329C121.315 90.5531 121.378 90.5614 121.441 90.5572C121.503 90.553 121.565 90.5365 121.621 90.5086C121.677 90.4806 121.728 90.4418 121.769 90.3944C123.623 88.7834 127.016 87.9914 129.5 87.9464C131.714 87.9464 135.692 88.5224 137.402 89.9084C137.44 89.9618 137.489 90.0065 137.546 90.0396C137.603 90.0728 137.666 90.0936 137.731 90.1007C137.797 90.1079 137.863 90.1012 137.925 90.081C137.988 90.0609 138.045 90.0279 138.094 89.984C138.143 89.9402 138.183 89.8865 138.209 89.8265C138.236 89.7665 138.25 89.7015 138.25 89.6358C138.25 89.5701 138.236 89.5051 138.21 89.4451C138.183 89.385 138.144 89.3313 138.095 89.2874C136.664 87.1544 133.658 85.5344 129.455 85.5974Z" fill="#4E6AF3"/>
<path fillRule="evenodd" clipRule="evenodd" d="M131.724 61.163C132.916 59.8663 133.952 58.4346 134.811 56.897C134.856 56.8537 134.892 56.8018 134.917 56.7443C134.942 56.6868 134.956 56.6248 134.956 56.5621C134.957 56.4994 134.945 56.4372 134.921 56.3793C134.897 56.3213 134.861 56.2687 134.817 56.2247C134.772 56.1806 134.719 56.146 134.661 56.1229C134.603 56.0997 134.54 56.0885 134.477 56.09C134.415 56.0914 134.353 56.1054 134.296 56.1312C134.239 56.1569 134.187 56.1939 134.145 56.24C132.604 57.1596 131.201 58.2929 129.978 59.606C128.633 58.4371 127.16 57.4255 125.586 56.591C125.491 56.5204 125.373 56.4877 125.255 56.4991C125.137 56.5105 125.028 56.5653 124.948 56.6528C124.869 56.7403 124.825 56.8542 124.824 56.9725C124.824 57.0908 124.868 57.205 124.947 57.293C125.927 58.764 127.085 60.1091 128.394 61.298C127.197 62.616 126.158 64.0688 125.298 65.627C125.212 65.7177 125.165 65.8388 125.169 65.9637C125.172 66.0886 125.225 66.207 125.316 66.293C125.406 66.3789 125.527 66.4253 125.652 66.4219C125.777 66.4185 125.896 66.3657 125.982 66.275C127.502 65.3165 128.893 64.1672 130.122 62.855C131.462 64.0458 132.94 65.073 134.523 65.915C134.566 65.9591 134.618 65.9941 134.675 66.0179C134.732 66.0418 134.794 66.0541 134.856 66.0541C134.918 66.0541 134.979 66.0418 135.036 66.0179C135.093 65.9941 135.145 65.9591 135.189 65.915C135.276 65.8259 135.324 65.7064 135.324 65.582C135.324 65.4575 135.276 65.3381 135.189 65.249C134.226 63.7347 133.06 62.3599 131.724 61.163Z" fill="#4E6AF3"/>
<path fillRule="evenodd" clipRule="evenodd" d="M36.4208 100.643C36.4432 100.708 36.4782 100.768 36.5239 100.819C36.5695 100.871 36.6248 100.913 36.6867 100.943C36.7485 100.973 36.8157 100.99 36.8843 100.994C36.953 100.999 37.0217 100.989 37.0868 100.967C37.1518 100.944 37.2117 100.909 37.2632 100.864C37.3146 100.818 37.3566 100.763 37.3867 100.701C37.4168 100.639 37.4344 100.572 37.4385 100.503C37.4426 100.435 37.4332 100.366 37.4108 100.301C33.8108 89.1407 33.1268 86.7377 31.1108 80.5637C31.0599 80.3892 30.9738 80.2269 30.8578 80.0868C30.7418 79.9468 30.5983 79.832 30.4363 79.7495C30.2743 79.667 30.0971 79.6186 29.9156 79.6072C29.7341 79.5958 29.5522 79.6216 29.3811 79.6832C29.21 79.7447 29.0534 79.8407 28.9207 79.965C28.7881 80.0894 28.6824 80.2397 28.61 80.4065C28.5377 80.5733 28.5002 80.7531 28.5 80.935C28.4998 81.1168 28.5368 81.2967 28.6088 81.4637C34.7288 97.8167 34.1258 94.6217 36.4208 100.643ZM39.0218 113.117C44.6288 115.034 46.2218 107.609 42.4958 106.124C37.3298 104.054 34.8548 111.569 39.0218 113.117ZM42.3698 107.915C43.4498 109.391 42.3698 112.469 39.5528 111.515C35.9888 110.435 39.6068 104.126 42.3698 107.915ZM51.0278 88.7987C51.0288 88.874 51.0458 88.9482 51.0776 89.0163C51.1095 89.0845 51.1554 89.1452 51.2125 89.1942C51.2696 89.2433 51.3364 89.2797 51.4086 89.301C51.4808 89.3222 51.5567 89.3279 51.6313 89.3176C51.7058 89.3074 51.7773 89.2813 51.8411 89.2413C51.9048 89.2013 51.9593 89.1482 52.001 89.0855C52.0426 89.0228 52.0705 88.952 52.0827 88.8777C52.0949 88.8034 52.0912 88.7274 52.0718 88.6547C51.3158 80.7527 51.2438 79.4387 49.7948 70.0697C49.7259 69.7267 49.5248 69.4246 49.2349 69.2286C48.9451 69.0326 48.5898 68.9585 48.2458 69.0224C47.9018 69.0862 47.5967 69.2828 47.3965 69.5697C47.1963 69.8566 47.117 70.2108 47.1758 70.5557C47.7068 73.2107 50.6498 87.0527 51.0278 88.7987ZM50.1908 97.4837C51.1628 98.2757 52.6118 98.5907 54.3488 97.3937C58.2458 95.7377 56.5358 91.0937 53.3858 90.6707C48.5978 90.1397 47.8598 95.5847 50.1908 97.4837ZM53.1698 92.3897C53.6513 92.4632 54.0983 92.6841 54.4493 93.022C54.8003 93.3599 55.0379 93.7982 55.1297 94.2766C55.2214 94.7551 55.1627 95.2502 54.9616 95.694C54.7606 96.1377 54.427 96.5083 54.0068 96.7547C52.1168 97.5737 50.8478 96.7007 50.6498 94.9547C50.5813 94.6072 50.5986 94.2482 50.7003 93.9088C50.8019 93.5695 50.9848 93.2601 51.233 93.0074C51.4813 92.7547 51.7874 92.5664 52.1249 92.4587C52.4624 92.3511 52.821 92.3274 53.1698 92.3897Z" fill="#4E6AF3"/>
</svg>
