<svg width="14" height="14" viewBox="0 0 14 14" fill="none" xmlns="http://www.w3.org/2000/svg">
<path fillRule="evenodd" clipRule="evenodd" d="M7 0.25C7.41421 0.25 7.75 0.585786 7.75 1V6.25014H13C13.4142 6.25014 13.75 6.58593 13.75 7.00014C13.75 7.41436 13.4142 7.75014 13 7.75014H7.75V13C7.75 13.4142 7.41421 13.75 7 13.75C6.58578 13.75 6.25 13.4142 6.25 13V7.75014H1C0.585786 7.75014 0.25 7.41436 0.25 7.00014C0.25 6.58593 0.585786 6.25014 1 6.25014H6.25V1C6.25 0.585786 6.58578 0.25 7 0.25Z" fill="white"/>
</svg>
