<svg width="18" height="14" viewBox="0 0 18 14" fill="none" xmlns="http://www.w3.org/2000/svg">
<path fill-rule="evenodd" clip-rule="evenodd" d="M0.75 4.75C0.75 2.26472 2.76472 0.25 5.25 0.25H12.75C15.2353 0.25 17.25 2.26472 17.25 4.75V5.125V9.25C17.25 11.7353 15.2353 13.75 12.75 13.75H5.25C2.76472 13.75 0.75 11.7353 0.75 9.25V5.125V4.75ZM2.25 5.875V9.25C2.25 10.9069 3.59315 12.25 5.25 12.25H12.75C14.4069 12.25 15.75 10.9069 15.75 9.25V5.875H2.25ZM15.7268 4.375H2.27321C2.45775 2.89513 3.72014 1.75 5.25 1.75H12.75C14.2799 1.75 15.5423 2.89513 15.7268 4.375ZM3.75 9.625C3.75 9.21079 4.08579 8.875 4.5 8.875H8.25C8.66421 8.875 9 9.21079 9 9.625C9 10.0392 8.66421 10.375 8.25 10.375H4.5C4.08579 10.375 3.75 10.0392 3.75 9.625Z" fill="white"/>
</svg>
