<svg width="15" height="16" viewBox="0 0 15 16" fill="none" xmlns="http://www.w3.org/2000/svg">
<path fillRule="evenodd" clipRule="evenodd" d="M9.93098 0.3125L9.93137 0.3125C11.1438 0.3125 12.1954 0.713513 12.9431 1.48524C13.688 2.25405 14.0616 3.31858 14.0616 4.51775V11.4148C14.0616 12.6084 13.6907 13.6681 12.952 14.4356C12.2105 15.2061 11.1672 15.6103 9.96374 15.6177L9.95912 15.6178L9.95478 15.6178L9.94201 15.6178L9.89304 15.6178L9.70882 15.6178L9.05424 15.6181L7.07238 15.6189L5.09235 15.6196L4.44005 15.6199L4.25732 15.62L4.20918 15.62L4.19684 15.62L4.19371 15.62H4.19293H4.19273L4.19237 14.87L4.19266 15.62H4.19237C2.97993 15.62 1.92845 15.219 1.1809 14.4472C0.436191 13.6783 0.06287 12.6138 0.06287 11.4148V4.51775C0.06287 3.32425 0.433513 2.26467 1.17212 1.49726C1.91351 0.726946 2.95668 0.322926 4.16 0.315514L4.16462 0.315486V0.3155L4.16884 0.315498L4.18157 0.315492L4.23048 0.315467L4.41461 0.315371L5.06908 0.315031L7.05098 0.314L9.03119 0.312969L9.68356 0.312629L9.86631 0.312534L9.91446 0.312509L9.92681 0.312502L9.92993 0.312501L9.93072 0.3125L9.93091 0.3125L9.93137 1.0625L9.93098 0.3125ZM9.93169 1.8125C9.93166 1.8125 9.93162 1.8125 9.93159 1.8125L9.9315 1.8125L9.93137 1.8125L9.93071 1.8125L9.92759 1.8125L9.91524 1.81251L9.8671 1.81253L9.68434 1.81263L9.03197 1.81297L7.05176 1.814L4.16723 1.8155C3.30158 1.82126 2.66954 2.10451 2.25287 2.53743C1.8331 2.97358 1.56287 3.63375 1.56287 4.51775V11.4148C1.56287 12.3037 1.8353 12.9668 2.25834 13.4036C2.67854 13.8374 3.31681 14.12 4.19237 14.12H4.19313L4.19625 14.12L4.20859 14.12L4.25673 14.12L4.43947 14.1199L5.09176 14.1196L7.0718 14.1189L9.9545 14.1178C9.95519 14.1178 9.95588 14.1178 9.95657 14.1178C10.8221 14.112 11.4543 13.8286 11.8712 13.3954C12.2913 12.959 12.5616 12.2986 12.5616 11.4148V4.51775C12.5616 3.62893 12.2891 2.96582 11.8659 2.52901C11.4455 2.09517 10.8071 1.81257 9.93169 1.8125ZM3.62218 4.89478C3.62218 4.48056 3.95796 4.14478 4.37218 4.14478H6.43843C6.85264 4.14478 7.18843 4.48056 7.18843 4.89478C7.18843 5.30899 6.85264 5.64478 6.43843 5.64478H4.37218C3.95796 5.64478 3.62218 5.30899 3.62218 4.89478ZM3.62209 8.02763C3.62209 7.61341 3.95788 7.27763 4.37209 7.27763H9.78709C10.2013 7.27763 10.5371 7.61341 10.5371 8.02763C10.5371 8.44184 10.2013 8.77763 9.78709 8.77763H4.37209C3.95788 8.77763 3.62209 8.44184 3.62209 8.02763ZM3.62209 11.1674C3.62209 10.7532 3.95788 10.4174 4.37209 10.4174H9.78709C10.2013 10.4174 10.5371 10.7532 10.5371 11.1674C10.5371 11.5816 10.2013 11.9174 9.78709 11.9174H4.37209C3.95788 11.9174 3.62209 11.5816 3.62209 11.1674Z" fill="white"/>
</svg>
