<svg width="40" height="40" viewBox="0 0 40 40" fill="none" xmlns="http://www.w3.org/2000/svg">
<rect width="40" height="40" rx="10" fill="#2A344A"/>
<path fill-rule="evenodd" clip-rule="evenodd" d="M11 17.333C11 16.7807 11.4477 16.333 12 16.333H20C20.5523 16.333 21 16.7807 21 17.333C21 17.8853 20.5523 18.333 20 18.333H12C11.4477 18.333 11 17.8853 11 17.333ZM11 24.333C11 23.7807 11.4477 23.333 12 23.333H20H28C28.5523 23.333 29 23.7807 29 24.333C29 24.8853 28.5523 25.333 28 25.333H20H12C11.4477 25.333 11 24.8853 11 24.333Z" fill="#D5DAF1"/>
</svg>
