<svg width="20" height="20" viewBox="0 0 20 20" fill="none" xmlns="http://www.w3.org/2000/svg">
<path fillRule="evenodd" clipRule="evenodd" d="M4.91797 5.41633L4.91797 5.41634V5.41658C4.91799 5.41728 4.91815 5.41952 4.91949 5.42422C4.92124 5.43039 4.92579 5.44337 4.93723 5.46335C4.9612 5.50518 5.01179 5.5711 5.11025 5.65423C5.31176 5.82439 5.64784 6.01141 6.12876 6.18317C7.08409 6.52436 8.45317 6.74967 10.0013 6.74967C11.5494 6.74967 12.9185 6.52436 13.8738 6.18317C14.3548 6.01141 14.6908 5.82439 14.8924 5.65423C14.9908 5.5711 15.0414 5.50518 15.0654 5.46335C15.0768 5.44337 15.0814 5.43039 15.0831 5.42422C15.0845 5.41952 15.0846 5.41727 15.0846 5.41658C15.0846 5.41646 15.0846 5.41638 15.0846 5.41635V5.41634V5.41633C15.0846 5.41614 15.0847 5.41402 15.0831 5.40847C15.0814 5.4023 15.0768 5.38931 15.0654 5.36933C15.0414 5.3275 14.9908 5.26159 14.8924 5.17845C14.6908 5.0083 14.3548 4.82127 13.8738 4.64951C12.9185 4.30832 11.5494 4.08301 10.0013 4.08301C8.45317 4.08301 7.08409 4.30832 6.12876 4.64951C5.64784 4.82127 5.31176 5.0083 5.11025 5.17845C5.01179 5.26159 4.9612 5.3275 4.93723 5.36933C4.92579 5.38931 4.92124 5.4023 4.91949 5.40847C4.91791 5.41402 4.91796 5.41614 4.91797 5.41633ZM15.0846 7.29779C14.8636 7.40818 14.6262 7.50725 14.3783 7.59579C13.2224 8.00862 11.6748 8.24967 10.0013 8.24967C8.32778 8.24967 6.78019 8.00862 5.62426 7.59579C5.37637 7.50725 5.13899 7.40818 4.91797 7.29779V8.74967V8.74992C4.91799 8.75061 4.91815 8.75285 4.91949 8.75755C4.92124 8.76372 4.92579 8.7767 4.93723 8.79668C4.9612 8.83851 5.01179 8.90443 5.11025 8.98756C5.31176 9.15772 5.64784 9.34475 6.12876 9.51651C7.08409 9.85769 8.45317 10.083 10.0013 10.083C11.5494 10.083 12.9185 9.85769 13.8738 9.51651C14.3548 9.34475 14.6908 9.15772 14.8924 8.98756C14.9908 8.90443 15.0414 8.83851 15.0654 8.79668C15.0768 8.7767 15.0814 8.76372 15.0831 8.75755C15.0845 8.75285 15.0846 8.75061 15.0846 8.74992C15.0846 8.74976 15.0846 8.74969 15.0846 8.74967V7.29779ZM16.5846 8.74967V5.41634C16.5846 4.82231 16.2455 4.35777 15.8601 4.03237C15.4712 3.70404 14.953 3.44215 14.3783 3.2369C13.2224 2.82406 11.6748 2.58301 10.0013 2.58301C8.32778 2.58301 6.78019 2.82406 5.62426 3.2369C5.04956 3.44215 4.53136 3.70404 4.14252 4.03237C3.75715 4.35777 3.41797 4.82231 3.41797 5.41634V8.74967V12.083V15.4163C3.41797 16.0104 3.75715 16.4749 4.14252 16.8003C4.53136 17.1286 5.04956 17.3905 5.62426 17.5958C6.78019 18.0086 8.32778 18.2497 10.0013 18.2497C11.6748 18.2497 13.2224 18.0086 14.3783 17.5958C14.953 17.3905 15.4712 17.1286 15.8601 16.8003C16.2455 16.4749 16.5846 16.0104 16.5846 15.4163V12.083V8.74967ZM15.0846 10.6311C14.8636 10.7415 14.6262 10.8406 14.3783 10.9291C13.2224 11.342 11.6748 11.583 10.0013 11.583C8.32778 11.583 6.78019 11.342 5.62426 10.9291C5.37637 10.8406 5.13899 10.7415 4.91797 10.6311V12.083V12.0832C4.91799 12.0839 4.91815 12.0862 4.91949 12.0909C4.92124 12.0971 4.92579 12.11 4.93723 12.13C4.9612 12.1718 5.01179 12.2378 5.11025 12.3209C5.31176 12.4911 5.64784 12.6781 6.12876 12.8498C7.08409 13.191 8.45317 13.4163 10.0013 13.4163C11.5494 13.4163 12.9185 13.191 13.8738 12.8498C14.3548 12.6781 14.6908 12.4911 14.8924 12.3209C14.9908 12.2378 15.0414 12.1718 15.0654 12.13C15.0768 12.11 15.0814 12.0971 15.0831 12.0909C15.0845 12.0862 15.0846 12.0839 15.0846 12.0832C15.0846 12.0831 15.0846 12.083 15.0846 12.083V12.083V10.6311ZM15.0846 13.9645C14.8636 14.0748 14.6262 14.1739 14.3783 14.2625C13.2224 14.6753 11.6748 14.9163 10.0013 14.9163C8.32778 14.9163 6.78019 14.6753 5.62426 14.2625C5.37637 14.1739 5.13899 14.0748 4.91797 13.9645V15.4163L4.91797 15.4164C4.91796 15.4165 4.91791 15.4187 4.91949 15.4242C4.92124 15.4304 4.92579 15.4434 4.93723 15.4633C4.9612 15.5052 5.01179 15.5711 5.11025 15.6542C5.31176 15.8244 5.64784 16.0114 6.12876 16.1832C7.08409 16.5244 8.45317 16.7497 10.0013 16.7497C11.5494 16.7497 12.9185 16.5244 13.8738 16.1832C14.3548 16.0114 14.6908 15.8244 14.8924 15.6542C14.9908 15.5711 15.0414 15.5052 15.0654 15.4633C15.0768 15.4434 15.0814 15.4304 15.0831 15.4242C15.0837 15.4223 15.084 15.4208 15.0842 15.4196C15.0847 15.4173 15.0846 15.4164 15.0846 15.4163V13.9645Z" fill="#2A344A"/>
</svg>
