<svg width="14" height="17" viewBox="0 0 14 17" fill="none" xmlns="http://www.w3.org/2000/svg">
<path fill-rule="evenodd" clip-rule="evenodd" d="M1.91797 3.41535L1.91797 3.41536V3.41561C1.91799 3.4163 1.91815 3.41854 1.91949 3.42324C1.92124 3.42941 1.92579 3.44239 1.93723 3.46237C1.9612 3.5042 2.01179 3.57012 2.11025 3.65325C2.31176 3.82341 2.64784 4.01044 3.12876 4.1822C4.08409 4.52338 5.45317 4.7487 7.0013 4.7487C8.54944 4.7487 9.91852 4.52338 10.8738 4.1822C11.3548 4.01044 11.6908 3.82341 11.8924 3.65325C11.9908 3.57012 12.0414 3.5042 12.0654 3.46237C12.0768 3.44239 12.0814 3.42941 12.0831 3.42324C12.0845 3.41854 12.0846 3.4163 12.0846 3.41561C12.0846 3.41548 12.0846 3.41541 12.0846 3.41538V3.41536V3.41535C12.0846 3.41516 12.0847 3.41304 12.0831 3.40749C12.0814 3.40132 12.0768 3.38834 12.0654 3.36836C12.0414 3.32653 11.9908 3.26061 11.8924 3.17748C11.6908 3.00732 11.3548 2.82029 10.8738 2.64853C9.91852 2.30735 8.54944 2.08203 7.0013 2.08203C5.45317 2.08203 4.08409 2.30735 3.12876 2.64853C2.64784 2.82029 2.31176 3.00732 2.11025 3.17748C2.01179 3.26061 1.9612 3.32653 1.93723 3.36836C1.92579 3.38834 1.92124 3.40132 1.91949 3.40749C1.91791 3.41304 1.91796 3.41516 1.91797 3.41535ZM12.0846 5.29681C11.8636 5.40721 11.6262 5.50628 11.3783 5.59481C10.2224 6.00764 8.67483 6.2487 7.0013 6.2487C5.32778 6.2487 3.78019 6.00764 2.62426 5.59481C2.37637 5.50628 2.13899 5.40721 1.91797 5.29681V6.7487V6.74894C1.91799 6.74963 1.91815 6.75187 1.91949 6.75657C1.92124 6.76274 1.92579 6.77573 1.93723 6.79571C1.9612 6.83754 2.01179 6.90345 2.11025 6.98659C2.31176 7.15674 2.64784 7.34377 3.12876 7.51553C4.08409 7.85672 5.45317 8.08203 7.0013 8.08203C8.54944 8.08203 9.91852 7.85672 10.8738 7.51553C11.3548 7.34377 11.6908 7.15674 11.8924 6.98659C11.9908 6.90345 12.0414 6.83754 12.0654 6.79571C12.0768 6.77573 12.0814 6.76274 12.0831 6.75657C12.0845 6.75187 12.0846 6.74963 12.0846 6.74894C12.0846 6.74879 12.0846 6.74871 12.0846 6.7487V5.29681ZM13.5846 6.7487V3.41536C13.5846 2.82133 13.2455 2.35679 12.8601 2.0314C12.4712 1.70306 11.953 1.44117 11.3783 1.23592C10.2224 0.823087 8.67483 0.582031 7.0013 0.582031C5.32778 0.582031 3.78019 0.823087 2.62426 1.23592C2.04956 1.44117 1.53136 1.70306 1.14252 2.0314C0.757148 2.35679 0.417969 2.82133 0.417969 3.41536V6.7487V10.082V13.4154C0.417969 14.0094 0.757148 14.4739 1.14252 14.7993C1.53136 15.1277 2.04956 15.3896 2.62426 15.5948C3.78019 16.0076 5.32778 16.2487 7.0013 16.2487C8.67483 16.2487 10.2224 16.0076 11.3783 15.5948C11.953 15.3896 12.4712 15.1277 12.8601 14.7993C13.2455 14.4739 13.5846 14.0094 13.5846 13.4154V10.082V6.7487ZM12.0846 8.63014C11.8636 8.74054 11.6262 8.83961 11.3783 8.92814C10.2224 9.34098 8.67483 9.58203 7.0013 9.58203C5.32778 9.58203 3.78019 9.34098 2.62426 8.92814C2.37637 8.83961 2.13899 8.74054 1.91797 8.63014V10.082V10.0823C1.91799 10.083 1.91815 10.0852 1.91949 10.0899C1.92124 10.0961 1.92579 10.1091 1.93723 10.129C1.9612 10.1709 2.01179 10.2368 2.11025 10.3199C2.31176 10.4901 2.64784 10.6771 3.12876 10.8489C4.08409 11.1901 5.45317 11.4154 7.0013 11.4154C8.54944 11.4154 9.91852 11.1901 10.8738 10.8489C11.3548 10.6771 11.6908 10.4901 11.8924 10.3199C11.9908 10.2368 12.0414 10.1709 12.0654 10.129C12.0768 10.1091 12.0814 10.0961 12.0831 10.0899C12.0845 10.0852 12.0846 10.083 12.0846 10.0823C12.0846 10.0821 12.0846 10.0821 12.0846 10.082V10.082V8.63014ZM12.0846 11.9635C11.8636 12.0739 11.6262 12.1729 11.3783 12.2615C10.2224 12.6743 8.67483 12.9154 7.0013 12.9154C5.32778 12.9154 3.78019 12.6743 2.62426 12.2615C2.37637 12.1729 2.13899 12.0739 1.91797 11.9635V13.4154L1.91797 13.4154C1.91796 13.4156 1.91791 13.4177 1.91949 13.4232C1.92124 13.4294 1.92579 13.4424 1.93723 13.4624C1.9612 13.5042 2.01179 13.5701 2.11025 13.6533C2.31176 13.8234 2.64784 14.0104 3.12876 14.1822C4.08409 14.5234 5.45317 14.7487 7.0013 14.7487C8.54944 14.7487 9.91852 14.5234 10.8738 14.1822C11.3548 14.0104 11.6908 13.8234 11.8924 13.6533C11.9908 13.5701 12.0414 13.5042 12.0654 13.4624C12.0768 13.4424 12.0814 13.4294 12.0831 13.4232C12.0837 13.4213 12.084 13.4198 12.0842 13.4187C12.0847 13.4163 12.0846 13.4154 12.0846 13.4154V11.9635Z" fill="#3B4A69"/>
</svg>
