<svg width="14" height="14" viewBox="0 0 14 14" fill="none" xmlns="http://www.w3.org/2000/svg">
<path fill-rule="evenodd" clip-rule="evenodd" d="M13.3647 0.635667C13.7552 1.02619 13.7552 1.65936 13.3647 2.04988L8.41482 6.99976L13.3646 11.9495C13.7551 12.34 13.7551 12.9732 13.3646 13.3637C12.974 13.7543 12.3409 13.7543 11.9504 13.3637L7.0006 8.41398L2.05099 13.3636C1.66047 13.7541 1.0273 13.7541 0.636776 13.3636C0.246252 12.9731 0.246252 12.3399 0.636776 11.9494L5.58639 6.99976L0.636643 2.05002C0.246119 1.6595 0.246119 1.02633 0.636643 0.635807C1.02717 0.245283 1.66033 0.245283 2.05086 0.635807L7.0006 5.58555L11.9505 0.635667C12.341 0.245142 12.9742 0.245142 13.3647 0.635667Z" fill="#2A344A"/>
</svg>
