<svg width="16" height="16" viewBox="0 0 16 16" fill="none" xmlns="http://www.w3.org/2000/svg">
<path fill-rule="evenodd" clip-rule="evenodd" d="M12.3014 3.69819C12.5943 3.99108 12.5943 4.46595 12.3014 4.75885L9.06041 7.99984L12.3013 11.2408C12.5942 11.5336 12.5942 12.0085 12.3013 12.3014C12.0084 12.5943 11.5336 12.5943 11.2407 12.3014L7.99975 9.0605L4.75893 12.3013C4.46604 12.5942 3.99117 12.5942 3.69827 12.3013C3.40538 12.0084 3.40538 11.5336 3.69827 11.2407L6.93909 7.99984L3.69819 4.75894C3.40529 4.46605 3.40529 3.99117 3.69819 3.69828C3.99108 3.40539 4.46595 3.40539 4.75885 3.69828L7.99975 6.93918L11.2407 3.69819C11.5336 3.40529 12.0085 3.40529 12.3014 3.69819Z" fill="#7786A5"/>
</svg>
