<svg width="14" height="16" viewBox="0 0 14 16" fill="none" xmlns="http://www.w3.org/2000/svg">
<path fill-rule="evenodd" clip-rule="evenodd" d="M3.97816 0.745914C3.66734 0.599183 3.29601 0.719796 3.13075 1.02117L0.612049 5.61408C0.218227 6.33223 0.680365 7.1998 1.45928 7.30618V9.77815V14.667C1.45928 15.026 1.75029 15.317 2.10928 15.317C2.46826 15.317 2.75928 15.026 2.75928 14.667V13.5393H5.45928V14.667C5.45928 15.026 5.75029 15.317 6.10928 15.317C6.46826 15.317 6.75928 15.026 6.75928 14.667V12.8893V9.77815V7.31704H6.99817H10.7926V8.66704V10.667C10.7926 11.026 11.0836 11.317 11.4426 11.317C11.8016 11.317 12.0926 11.026 12.0926 10.667V8.66704V7.31704H12.7678C13.9954 7.31704 14.3689 5.65118 13.2587 5.1271L3.97816 0.745914ZM11.4426 6.01704H12.0987L5.40747 2.85824L7.36049 6.01704H11.4426ZM5.45928 7.31704H2.75928V9.12815H5.45928V7.31704ZM2.10928 6.01704H5.83208L3.73433 2.62416L1.87372 6.01704H2.10928ZM5.45928 12.2393H2.75928V10.4282H5.45928V12.2393Z" fill="#7786A5"/>
</svg>
