<svg width="20" height="20" viewBox="0 0 20 20" fill="none" xmlns="http://www.w3.org/2000/svg">
<path fill-rule="evenodd" clip-rule="evenodd" d="M5.99699 4.25043C6.34081 2.66238 7.75391 1.47266 9.44488 1.47266H10.0004C11.799 1.47266 13.326 2.63552 13.8706 4.25043H17.0537C17.1393 3.93048 17.4312 3.69488 17.7782 3.69488C18.1924 3.69488 18.5282 4.03067 18.5282 4.44488V5.00043V5.55599C18.5282 5.9702 18.1924 6.30599 17.7782 6.30599C17.4312 6.30599 17.1393 6.07038 17.0537 5.75043H14.0838V7.77821C14.0838 8.80608 13.2505 9.63932 12.2227 9.63932C12.0232 9.63932 11.8615 9.801 11.8615 10.0004C11.8615 10.7615 11.4048 11.4158 10.7504 11.7042V17.7782C10.7504 18.1924 10.4146 18.5282 10.0004 18.5282C9.58622 18.5282 9.25043 18.1924 9.25043 17.7782V11.7042C8.59609 11.4158 8.13932 10.7615 8.13932 10.0004C8.13932 9.801 7.97765 9.63932 7.77821 9.63932C6.75035 9.63932 5.9171 8.80608 5.9171 7.77821V5.75043H2.9472C2.86156 6.07038 2.56962 6.30599 2.22266 6.30599C1.80844 6.30599 1.47266 5.9702 1.47266 5.55599V5.00043V4.44488C1.47266 4.03067 1.80844 3.69488 2.22266 3.69488C2.56962 3.69488 2.86156 3.93048 2.9472 4.25043H5.99699ZM9.44488 2.97266C8.32497 2.97266 7.4171 3.88052 7.4171 5.00043V7.77821C7.4171 7.97765 7.57878 8.13932 7.77821 8.13932C8.80608 8.13932 9.63932 8.97257 9.63932 10.0004C9.63932 10.1999 9.801 10.3615 10.0004 10.3615C10.1999 10.3615 10.3615 10.1999 10.3615 10.0004C10.3615 8.97257 11.1948 8.13932 12.2227 8.13932C12.4221 8.13932 12.5838 7.97765 12.5838 7.77821V5.55599C12.5838 4.12925 11.4272 2.97266 10.0004 2.97266H9.44488ZM10.0004 4.80599C10.4146 4.80599 10.7504 5.14178 10.7504 5.55599V6.6671C10.7504 7.08131 10.4146 7.4171 10.0004 7.4171C9.58622 7.4171 9.25043 7.08131 9.25043 6.6671V5.55599C9.25043 5.14178 9.58622 4.80599 10.0004 4.80599ZM3.91455 12.8034C4.20744 12.5105 4.68232 12.5105 4.97521 12.8034L7.19743 15.0257C7.49032 15.3186 7.49032 15.7934 7.19743 16.0863C6.90454 16.3792 6.42966 16.3792 6.13677 16.0863L3.91455 13.8641C3.62166 13.5712 3.62166 13.0963 3.91455 12.8034ZM16.0863 12.8034C16.3792 13.0963 16.3792 13.5712 16.0863 13.8641L13.8641 16.0863C13.5712 16.3792 13.0963 16.3792 12.8034 16.0863C12.5105 15.7934 12.5105 15.3186 12.8034 15.0257L15.0257 12.8034C15.3186 12.5105 15.7934 12.5105 16.0863 12.8034ZM3.91455 15.0257C4.20744 14.7328 4.68232 14.7328 4.97521 15.0257L7.19743 17.2479C7.49032 17.5408 7.49032 18.0156 7.19743 18.3085C6.90454 18.6014 6.42966 18.6014 6.13677 18.3085L3.91455 16.0863C3.62166 15.7934 3.62166 15.3186 3.91455 15.0257ZM16.0863 15.0257C16.3792 15.3186 16.3792 15.7934 16.0863 16.0863L13.8641 18.3085C13.5712 18.6014 13.0963 18.6014 12.8034 18.3085C12.5105 18.0156 12.5105 17.5408 12.8034 17.2479L15.0257 15.0257C15.3186 14.7328 15.7934 14.7328 16.0863 15.0257Z" fill="#2A344A"/>
</svg>
