<svg width="220" height="220" viewBox="0 0 220 220" fill="none" xmlns="http://www.w3.org/2000/svg">
<path d="M75 199.5V214.5H143.5L143 195L147 193L151 190L154 184L157.5 173L162 172L165 170L167 166.5L166.5 161.5L164 159L166.5 148.5H148L144.5 145L141.5 140.5L135.5 136L129 132.5L120.5 130H118L113.5 127V124.5L115 123L118 121L121 117.5L121.5 114V109L121 100.5L120 94L111.5 87.5L109.5 81L111 80.5L106.5 76L95.5 79.5L86.5 89L94 96.5L94.5 112L95 126.5L93.5 128L91 131L86 132.5L77.5 138.5L70.5 146L65.5 155.5L62 168.5L61 179.5L61.5 186L65 193L69.5 198L75 199.5Z" fill="url(#paint0_linear_486_16529)"/>
<circle cx="177.5" cy="55.5" r="30.5" fill="white"/>
<circle cx="145.5" cy="93.5" r="10.5" fill="white"/>
<path d="M75 108.5C74.5 114 70 118 64.5 118.5C58.701 118.5 54 114.299 54 108.5C54 102.701 58.701 97.5 64.5 97.5C70.299 97.5 75 102.701 75 108.5Z" fill="white"/>
<path d="M75.5 16.5C75 22 71.0751 27 65 27C58.9249 27 54.5 22 54 16.5C54 10.701 58.9249 6 65 6C71.0751 6 75.5 10.701 75.5 16.5Z" fill="white"/>
<circle cx="40.5" cy="59.5" r="30.5" fill="white"/>
<path d="M106.062 12.7792C108.144 11.9233 110.376 11.4886 112.627 11.5002C114.878 11.4886 117.109 11.9233 119.191 12.7794C121.273 13.6354 123.164 14.8957 124.756 16.4874C126.348 18.0791 127.608 19.9706 128.464 22.0524C129.32 24.1343 129.755 26.3653 129.743 28.6162C129.303 51.2872 95.9512 51.2762 95.5002 28.6162C95.49 26.3647 95.9261 24.1336 96.7833 22.0516C97.6406 19.9697 98.9019 18.0783 100.494 16.4867C102.087 14.8952 103.979 13.6351 106.062 12.7792Z" fill="#4E6AF3"/>
<path d="M181.076 54.309C181.524 54.2141 181.934 53.9882 182.253 53.66C182.216 53.8422 182.168 54.0222 182.11 54.199C182.022 54.496 182.352 54.584 182.462 54.397C182.851 53.8195 183.005 53.115 182.891 52.428C182.885 52.3631 182.861 52.3012 182.821 52.2496C182.782 52.198 182.728 52.1589 182.667 52.1369C182.605 52.1149 182.539 52.111 182.475 52.1255C182.412 52.1401 182.354 52.1725 182.308 52.219C181.846 52.78 181.758 53.572 180.977 53.814C180.915 53.8309 180.862 53.8706 180.829 53.9251C180.795 53.9796 180.783 54.0449 180.796 54.1077C180.808 54.1706 180.844 54.2263 180.896 54.2637C180.948 54.301 181.013 54.3172 181.076 54.309ZM178.909 50.602C178.971 50.6415 179.041 50.6637 179.114 50.6663C179.187 50.669 179.26 50.652 179.324 50.6171C179.388 50.5823 179.441 50.5308 179.479 50.4682C179.516 50.4055 179.536 50.334 179.536 50.261C179.536 50.173 179.536 50.074 179.008 49.282C178.898 49.117 178.766 48.809 178.48 48.963C178.194 49.117 178.392 49.403 178.546 49.788C178.854 50.602 178.854 50.602 178.909 50.602ZM178.733 48.589C179.272 48.589 179.646 48.589 179.712 49.04C179.721 49.1071 179.756 49.168 179.81 49.2093C179.863 49.2505 179.931 49.2688 179.998 49.26C180.065 49.2513 180.126 49.2162 180.167 49.1626C180.209 49.1089 180.227 49.0411 180.218 48.974C180.131 48.6176 179.921 48.3033 179.626 48.086C179.33 47.8688 178.967 47.7626 178.601 47.786C178.514 47.8222 178.442 47.8867 178.396 47.9691C178.35 48.0514 178.334 48.1468 178.349 48.2398C178.364 48.3328 178.411 48.4178 178.48 48.4812C178.55 48.5446 178.639 48.5826 178.733 48.589ZM44.1922 82.117C41.1067 83.6095 37.7112 84.3488 34.2846 84.2742C30.8579 84.1997 27.4978 83.3133 24.4802 81.688C24.4247 81.6545 24.3583 81.6443 24.2953 81.6598C24.2324 81.6753 24.1782 81.7151 24.1447 81.7705C24.1111 81.8259 24.101 81.8924 24.1164 81.9554C24.1319 82.0183 24.1717 82.0725 24.2272 82.106C30.2552 86.033 39.1102 86.253 44.3572 82.403C44.3951 82.3811 44.4228 82.3451 44.4341 82.3028C44.4455 82.2605 44.4396 82.2154 44.4177 82.1775C44.3958 82.1396 44.3597 82.1119 44.3175 82.1006C44.2752 82.0892 44.2301 82.0951 44.1922 82.117ZM43.3782 49.502C44.0052 49.755 45.0392 49.502 44.7642 48.919C44.5806 48.4742 44.4513 48.0088 44.3792 47.533C44.3792 47.4659 44.3525 47.4016 44.3051 47.3541C44.2576 47.3067 44.1933 47.28 44.1262 47.28C44.0591 47.28 43.9947 47.3067 43.9473 47.3541C43.8998 47.4016 43.8732 47.4659 43.8732 47.533C43.8666 47.9984 43.9108 48.4632 44.0052 48.919C43.8551 49.0044 43.6815 49.0391 43.5102 49.018C43.4784 49.0094 43.4452 49.007 43.4125 49.0112C43.3799 49.0153 43.3483 49.0259 43.3197 49.0422C43.2911 49.0586 43.266 49.0804 43.2459 49.1064C43.2257 49.1325 43.2108 49.1622 43.2022 49.194C43.1935 49.2258 43.1912 49.259 43.1953 49.2917C43.1995 49.3243 43.21 49.3559 43.2264 49.3845C43.2427 49.4131 43.2645 49.4382 43.2906 49.4583C43.3166 49.4785 43.3464 49.4934 43.3782 49.502ZM42.1132 47.093C42.2835 46.6973 42.4233 46.2891 42.5312 45.872C42.541 45.8337 42.5431 45.7939 42.5373 45.7547C42.5315 45.7156 42.518 45.6781 42.4975 45.6443C42.477 45.6105 42.45 45.5811 42.418 45.5579C42.386 45.5346 42.3497 45.518 42.3112 45.509C41.9812 45.41 41.9262 45.762 41.7612 46.191C41.6664 46.4044 41.5892 46.6251 41.5302 46.851C41.5298 46.9187 41.5496 46.985 41.5871 47.0414C41.6245 47.0978 41.6779 47.1418 41.7404 47.1677C41.803 47.1937 41.8718 47.2004 41.9382 47.1871C42.0046 47.1738 42.0655 47.1411 42.1132 47.093ZM45.7762 48.127C45.8388 48.1545 45.9084 48.1619 45.9754 48.1481C46.0424 48.1343 46.1035 48.1 46.1502 48.05C46.3189 47.6537 46.4586 47.2456 46.5682 46.829C46.5798 46.7915 46.5835 46.7519 46.5791 46.7129C46.5747 46.6738 46.5624 46.6361 46.5427 46.602C46.5231 46.5679 46.4967 46.5383 46.4651 46.5149C46.4335 46.4915 46.3975 46.4749 46.3592 46.466C46.0182 46.367 45.9522 46.763 45.8092 47.137C45.6662 47.511 45.3912 47.973 45.7762 48.127ZM40.4962 50.382C40.891 50.5797 41.3434 50.6304 41.7722 50.525C42.0472 50.404 41.8602 49.986 41.5962 50.074C41.3056 50.0541 41.0268 49.951 40.7932 49.777C40.6443 49.6794 40.5162 49.5533 40.4162 49.4061C40.3161 49.2589 40.2461 49.0934 40.2102 48.919C40.1332 48.457 39.4072 48.633 39.5172 49.095C39.5706 49.3703 39.6867 49.6296 39.8564 49.8528C40.0262 50.076 40.2451 50.2571 40.4962 50.382ZM118.695 170.799C118.695 170.507 118.579 170.227 118.373 170.021C118.167 169.815 117.887 169.699 117.595 169.699C117.303 169.699 117.024 169.815 116.817 170.021C116.611 170.227 116.495 170.507 116.495 170.799C116.495 171.091 116.611 171.371 116.817 171.577C117.024 171.783 117.303 171.899 117.595 171.899C117.887 171.899 118.167 171.783 118.373 171.577C118.579 171.371 118.695 171.091 118.695 170.799ZM118.673 181.634C118.847 181.65 119.022 181.63 119.188 181.575C119.353 181.52 119.506 181.43 119.635 181.313C119.764 181.195 119.867 181.052 119.937 180.892C120.008 180.733 120.044 180.56 120.044 180.386C120.044 180.211 120.008 180.038 119.937 179.879C119.867 179.719 119.764 179.576 119.635 179.458C119.506 179.341 119.353 179.251 119.188 179.196C119.022 179.141 118.847 179.121 118.673 179.137C118.499 179.121 118.324 179.141 118.158 179.196C117.993 179.251 117.841 179.341 117.712 179.458C117.583 179.576 117.479 179.719 117.409 179.879C117.338 180.038 117.302 180.211 117.302 180.386C117.302 180.56 117.338 180.733 117.409 180.892C117.479 181.052 117.583 181.195 117.712 181.313C117.841 181.43 117.993 181.52 118.158 181.575C118.324 181.63 118.499 181.65 118.673 181.634ZM118.992 190.544C118.693 190.573 118.414 190.712 118.212 190.935C118.01 191.157 117.897 191.448 117.897 191.749C117.897 192.049 118.01 192.34 118.212 192.562C118.414 192.785 118.693 192.924 118.992 192.953C119.292 192.924 119.57 192.785 119.772 192.562C119.975 192.34 120.087 192.049 120.087 191.749C120.087 191.448 119.975 191.157 119.772 190.935C119.57 190.712 119.292 190.573 118.992 190.544ZM112.315 142.771C112.857 145.643 113.225 148.545 113.415 151.461C113.415 151.563 113.456 151.661 113.528 151.733C113.6 151.805 113.698 151.846 113.8 151.846C113.902 151.846 114 151.805 114.072 151.733C114.145 151.661 114.185 151.563 114.185 151.461C113.969 148.496 113.517 145.554 112.832 142.661C112.804 142.608 112.76 142.566 112.706 142.541C112.651 142.516 112.591 142.509 112.532 142.521C112.474 142.534 112.421 142.565 112.382 142.61C112.343 142.655 112.319 142.711 112.315 142.771ZM114.405 174.979C114.405 174.903 114.375 174.83 114.321 174.777C114.268 174.723 114.195 174.693 114.119 174.693C114.043 174.693 113.971 174.723 113.917 174.777C113.863 174.83 113.833 174.903 113.833 174.979C113.723 182.514 113.591 200.521 113.657 202.479C113.672 202.566 113.717 202.645 113.785 202.701C113.852 202.758 113.938 202.789 114.026 202.789C114.114 202.789 114.199 202.758 114.266 202.701C114.334 202.645 114.379 202.566 114.394 202.479C114.548 198.926 114.405 176.739 114.405 174.979Z" fill="#2A344A"/>
<path d="M75.132 107.661C75.0165 105.439 74.2381 103.302 72.8971 101.526C71.5561 99.7493 69.7139 98.4153 67.608 97.6955C58.115 94.4835 49.381 105.604 55.002 114.041C56.328 116.017 58.2588 117.509 60.5046 118.294C62.7504 119.079 65.1903 119.115 67.4582 118.396C69.7261 117.677 71.6999 116.243 73.0834 114.307C74.467 112.372 75.1858 110.04 75.132 107.661ZM57.532 100.621C64.275 94.4175 74.175 99.5215 74.439 107.672C74.4141 109.749 73.8152 111.778 72.7086 113.535C71.602 115.292 70.0308 116.708 68.169 117.627C62.031 120.3 54.617 115.691 54.1 109.201C53.9642 107.606 54.2005 106.001 54.7903 104.512C55.3801 103.023 56.3073 101.691 57.499 100.621H57.532ZM136.402 99.1145C137.357 100.577 138.65 101.789 140.172 102.647C141.694 103.506 143.399 103.986 145.145 104.047C146.891 104.108 148.626 103.749 150.204 103C151.783 102.251 153.157 101.133 154.213 99.741C155.269 98.3491 155.975 96.7238 156.271 95.0021C156.568 93.2804 156.446 91.5127 155.916 89.8479C155.387 88.1831 154.465 86.67 153.228 85.436C151.991 84.2021 150.476 83.2834 148.81 82.7575C138.932 79.6995 130.99 91.2055 136.402 99.1145ZM138.932 85.7055C145.807 79.3695 155.575 84.8585 155.828 92.7565C155.806 94.8279 155.213 96.8531 154.115 98.6094C153.016 100.366 151.455 101.785 149.602 102.711C143.475 105.384 136.05 100.786 135.522 94.2855C135.389 92.6861 135.631 91.0778 136.229 89.5883C136.826 88.0988 137.763 86.7693 138.965 85.7055H138.932ZM68.565 47.0405C60.436 29.8805 39.602 22.5655 22.794 34.0055C1.01397 48.8885 6.16197 80.3045 30.648 88.7525C54.562 97.2445 80.665 72.6045 68.565 47.0405ZM53.242 86.5305C51.2458 87.5079 49.1412 88.2464 46.972 88.7305C47.115 87.3665 47.291 83.8465 47.357 82.1965C48.391 83.8465 50.261 85.4965 52.582 85.1665C54.606 84.8475 56.399 82.9665 58.082 79.6665C59.7297 76.0602 60.6564 72.1664 60.81 68.2045C60.9892 67.7459 61.104 67.2646 61.151 66.7745C61.71 65.4865 62.3606 64.2403 63.098 63.0455C63.4939 62.7004 63.8384 62.3003 64.121 61.8575C64.4284 61.0048 64.4969 60.0843 64.319 59.1955C64.2845 58.3041 63.9557 57.4493 63.384 56.7645C63.835 55.8515 65.089 51.6825 65.298 50.8685C65.3159 50.7813 65.3012 50.6905 65.2566 50.6134C65.212 50.5363 65.1406 50.4783 65.056 50.4505C62.8507 50.1143 60.62 49.9744 58.39 50.0325C58.313 49.8895 54.353 61.1975 53.99 62.1325C53.9732 62.1837 53.9671 62.2379 53.9719 62.2916C53.9768 62.3453 53.9926 62.3974 54.0184 62.4448C54.0441 62.4922 54.0793 62.5338 54.1217 62.5671C54.1641 62.6004 54.2128 62.6247 54.265 62.6385C55.3582 62.8081 56.4598 62.9182 57.565 62.9685C57.565 63.4415 57.356 64.7505 57.279 65.1685C56.9653 65.5667 56.7098 66.0074 56.52 66.4775C55.1542 67.6653 54.1929 69.2496 53.77 71.0095C51.823 62.4625 50.47 58.7885 42.77 54.5095C42.385 54.3005 41.923 54.1465 41.505 53.8715C46.829 55.1475 47.423 55.7525 47.621 55.4885C53.649 46.9965 50.844 37.2835 44.662 33.3785C38.876 29.1985 33.167 33.1475 31.088 39.7585C29.548 44.9615 32.188 49.5155 33.552 51.4075C32.298 51.5285 31.869 51.6715 30.868 51.7815C22.398 52.6945 15.534 62.8475 12.388 70.7785C3.00497 49.2515 23.443 24.7435 47.203 30.4195C74.362 37.8665 79.301 73.9245 53.242 86.5305ZM19.593 81.0305C20.429 79.7325 22.519 76.1245 23.003 75.2775C29.119 79.9855 40.603 80.6015 46.631 76.5865C46.631 76.7735 46.356 87.3775 46.356 88.8845C41.5916 89.7565 36.6891 89.5003 32.0416 88.1364C27.394 86.7725 23.1306 84.3388 19.593 81.0305ZM54.1 73.4625C54.0801 73.1194 54.0397 72.7778 53.979 72.4395C54.078 72.1315 54.144 71.8565 54.243 71.4935C54.958 72.6815 57.323 74.7935 58.302 74.9145C58.3512 74.9184 58.4004 74.9055 58.4415 74.878C58.4826 74.8506 58.5132 74.81 58.5284 74.763C58.5437 74.716 58.5427 74.6652 58.5255 74.6189C58.5084 74.5725 58.4761 74.5333 58.434 74.5075C56.8054 73.4953 55.4972 72.0421 54.661 70.3165C54.9143 69.6264 55.2866 68.9861 55.761 68.4245C56.6232 69.7779 57.8358 70.8726 59.27 71.5925C59.2952 71.599 59.3216 71.6004 59.3474 71.5968C59.3732 71.5931 59.3981 71.5844 59.4206 71.5711C59.4431 71.5578 59.4627 71.5403 59.4784 71.5194C59.4941 71.4985 59.5055 71.4748 59.512 71.4495C59.5185 71.4242 59.5199 71.3979 59.5163 71.3721C59.5126 71.3462 59.5039 71.3214 59.4906 71.2989C59.4773 71.2764 59.4597 71.2568 59.4389 71.2411C59.418 71.2254 59.3942 71.214 59.369 71.2075C58.0825 70.3232 57.0233 69.1472 56.278 67.7755C56.421 67.5995 56.575 67.4235 56.729 67.2585C57.6125 68.128 58.7901 68.6344 60.029 68.6775C59.8344 71.9744 59.1562 75.2249 58.016 78.3245C57.1146 80.5037 55.7038 82.435 53.902 83.9565C55.4178 81.0139 55.7637 77.6066 54.87 74.4195C54.8479 74.3441 54.8013 74.2782 54.7375 74.2324C54.6737 74.1865 54.5965 74.1633 54.518 74.1665C53.583 74.1665 54.892 77.9945 48.303 82.2295C47.9626 81.7422 47.6575 81.2313 47.39 80.7005C47.456 76.9605 47.302 73.2315 47.148 69.6235C47.148 69.5564 47.1213 69.492 47.0739 69.4446C47.0264 69.3971 46.9621 69.3705 46.895 69.3705C46.8279 69.3705 46.7635 69.3971 46.7161 69.4446C46.6686 69.492 46.642 69.5564 46.642 69.6235C46.708 71.5375 46.642 73.4295 46.642 75.6955C42.946 78.0165 38.711 78.8195 33.299 78.2145C29.6989 78.0249 26.2303 76.7987 23.311 74.6835C23.696 73.9795 25.302 70.8995 25.753 70.0745C25.7747 70.0369 25.7859 69.9942 25.7855 69.9508C25.7851 69.9074 25.773 69.8649 25.7505 69.8278C25.728 69.7907 25.6959 69.7603 25.6577 69.7399C25.6194 69.7194 25.5763 69.7096 25.533 69.7115C25.269 69.7115 25.533 69.6455 23.333 73.4185C19.863 72.0592 17.0608 69.3991 15.523 66.0045C17.3034 62.6057 19.6381 59.5275 22.431 56.8965C23.8656 58.8883 25.6859 60.5713 27.7838 61.8457C29.8818 63.1201 32.2144 63.9597 34.6433 64.3147C37.0721 64.6698 39.5475 64.533 41.9224 63.9124C44.2973 63.2919 46.5233 62.2003 48.468 60.7025C48.5053 60.6627 48.5273 60.611 48.5301 60.5566C48.533 60.5021 48.5165 60.4484 48.4836 60.405C48.4507 60.3615 48.4034 60.3311 48.3503 60.3191C48.2971 60.3071 48.2414 60.3144 48.193 60.3395C46.5966 61.4364 44.8618 62.3168 43.034 62.9575C39.4283 64.0996 35.5545 64.0766 31.9626 62.8918C28.3708 61.707 25.2435 59.4207 23.025 56.3575C24.0785 55.5026 25.2219 54.7649 26.435 54.1575C30.604 63.5405 40.889 64.2115 45.861 57.4575C48.435 59.4595 49.227 59.7125 51.284 64.6845C46.565 68.7985 42.264 70.8445 38.15 70.8005C34.7314 70.8244 31.352 70.0714 28.267 68.5984C25.1819 67.1254 22.4717 64.9709 20.341 62.2975C20.165 62.0555 19.769 62.2975 19.945 62.5615C23.245 67.5885 29.504 70.8885 37.16 71.6145C42.341 72.1205 47.841 69.1615 51.537 65.3995C52.109 67.2915 52.802 70.0745 52.879 70.4045C52.538 71.5045 48.853 74.9255 48.27 75.0575C47.929 75.1345 48.105 75.6625 48.413 75.5305C50.1859 74.5046 51.7828 73.201 53.143 71.6695C53.264 72.2415 53.484 73.2645 53.517 73.5175C53.55 73.7705 54.122 73.8145 54.1 73.4625ZM60.7 56.8745C60.5636 56.8361 60.42 56.8317 60.2816 56.8615C60.1431 56.8913 60.0141 56.9545 59.9056 57.0456C59.7972 57.1367 59.7126 57.2529 59.6594 57.3841C59.6061 57.5153 59.5857 57.6576 59.6 57.7985C58.423 58.0515 58.5 58.8985 59.182 59.4485C59.8571 59.8746 60.5548 60.2638 61.272 60.6145C61.019 61.2195 60.821 61.7145 60.557 62.2975C59.457 62.2975 56.036 62.0885 54.848 61.9895C55.288 60.6145 57.609 54.2235 58.885 50.7695C59.985 50.8245 63.428 50.9125 64.539 51.0885C64.275 52.1885 63.153 55.3895 62.834 56.3905C62.6641 56.2784 62.4734 56.2019 62.2732 56.1656C62.073 56.1293 61.8675 56.1339 61.6691 56.1791C61.4707 56.2243 61.2836 56.3092 61.1189 56.4288C60.9542 56.5483 60.8155 56.6999 60.711 56.8745H60.7ZM61.184 62.8255C61.371 62.2315 61.602 61.6595 61.91 60.9115C61.959 60.9201 62.0094 60.9127 62.0539 60.8903C62.0983 60.8679 62.1343 60.8318 62.1566 60.7873C62.1788 60.7428 62.1861 60.6923 62.1773 60.6433C62.1686 60.5944 62.1442 60.5495 62.108 60.5155C61.833 60.2625 59.281 58.9095 59.38 58.6455C59.479 58.3815 60.117 58.5685 60.48 58.7775C61.1959 59.0723 61.9309 59.3185 62.68 59.5145C62.7281 59.5197 62.7766 59.5089 62.8179 59.4838C62.8593 59.4587 62.8912 59.4206 62.9087 59.3755C62.9263 59.3304 62.9285 59.2808 62.9149 59.2343C62.9014 59.1879 62.873 59.1471 62.834 59.1185C61.9749 58.8067 61.1372 58.4393 60.326 58.0185C60.161 57.8645 60.084 57.4465 60.326 57.4575C61.1341 57.6501 61.887 58.0265 62.526 58.5575C62.5512 58.5813 62.581 58.5999 62.6134 58.6123C62.6459 58.6246 62.6805 58.6305 62.7152 58.6294C62.75 58.6284 62.7842 58.6206 62.8159 58.6063C62.8475 58.5921 62.8761 58.5718 62.9 58.5465C62.9238 58.5212 62.9424 58.4915 62.9548 58.459C62.9671 58.4265 62.9729 58.3919 62.9719 58.3572C62.9709 58.3225 62.9631 58.2883 62.9488 58.2566C62.9346 58.2249 62.9142 58.1963 62.889 58.1725C62.4757 57.8462 62.0381 57.552 61.58 57.2925C61.03 56.9735 61.426 56.5775 61.976 56.6545C62.713 56.7645 63.659 57.7545 63.56 59.7895C63.6516 60.3361 63.5805 60.8976 63.3556 61.4041C63.1307 61.9106 62.7619 62.3399 62.295 62.6385C61.5861 63.7634 60.9857 64.953 60.502 66.1915C60.0183 66.3167 59.5089 66.3014 59.0335 66.1475C58.5582 65.9936 58.1365 65.7074 57.818 65.3225C57.895 64.9375 58.126 63.6175 58.192 63.1225C60.645 63.1995 61.074 63.1885 61.195 62.8255H61.184ZM54.441 76.1465C54.8197 78.9533 54.3565 81.8093 53.11 84.3525C52.3063 84.5828 51.4509 84.5572 50.6624 84.2793C49.8739 84.0014 49.1916 83.4849 48.71 82.8015C51.3905 81.3844 53.4372 79.0076 54.441 76.1465ZM34.201 52.3975C34.2205 52.4207 34.2461 52.438 34.2749 52.4476C34.3037 52.4571 34.3346 52.4586 34.3641 52.4518C34.3937 52.445 34.4208 52.4301 34.4424 52.4089C34.4641 52.3877 34.4795 52.3609 34.487 52.3315C36.148 45.7975 36.104 46.2045 35.95 46.1165C34.102 45.1045 34.685 43.1355 35.433 42.9045C35.807 42.7835 36.302 43.0255 36.797 43.5755C37.1202 43.8794 37.3655 44.2567 37.512 44.6755C38.612 47.7555 44.706 43.6965 47.346 41.7495C47.5291 41.5972 47.7458 41.4905 47.9782 41.4381C48.2106 41.3858 48.4521 41.3893 48.6829 41.4483C48.9137 41.5073 49.1272 41.6203 49.3059 41.7778C49.4846 41.9353 49.6234 42.1329 49.711 42.3545C49.964 42.8385 49.502 43.2455 49.227 42.7175C48.655 41.7495 47.654 42.2885 47.676 42.5525C47.896 45.2805 47.39 49.1525 45.267 51.0445C43.144 52.9365 40.68 51.9575 40.46 52.1445C40.24 52.3315 40.361 52.5075 40.361 52.7165C40.2626 52.9499 40.2189 53.2028 40.2333 53.4558C40.2477 53.7087 40.3197 53.955 40.4439 54.1758C40.5681 54.3966 40.7412 54.5861 40.9499 54.7297C41.1586 54.8733 41.3974 54.9673 41.648 55.0045C42.5469 55.3442 43.4033 55.7872 44.2 56.3245C40.284 62.3745 31.726 61.4835 28.448 53.3325C30.2805 52.7068 32.1904 52.3367 34.124 52.2325L34.201 52.3975ZM15.16 66.6975C15.8707 68.3959 16.9317 69.9253 18.2736 71.1858C19.6156 72.4463 21.2084 73.4095 22.948 74.0125C22.816 74.2215 19.747 79.2375 19.021 80.4695C16.3501 77.9035 14.1793 74.8636 12.619 71.5045C13.708 69.5465 14.302 68.3585 15.16 66.7085V66.6975ZM207.418 47.2055C201.225 27.4055 178.906 18.3085 161.57 28.8465C142.034 40.7045 140.868 67.1045 159.502 80.4365C183.988 97.9045 215.932 73.7925 207.418 47.2055ZM173.978 77.2135C177.619 82.0425 181.271 82.4165 183.713 81.8555C188.267 80.8215 192.26 75.7065 193.426 69.4035C193.442 69.3291 193.428 69.2514 193.387 69.1874C193.345 69.1235 193.28 69.0785 193.206 69.0625C193.132 69.0464 193.054 69.0606 192.99 69.1019C192.926 69.1431 192.881 69.2081 192.865 69.2825C192.347 71.9739 191.218 74.5104 189.565 76.6965C183.097 85.1225 176.365 81.0085 171.206 71.6805C169.529 69.006 168.588 65.9362 168.478 62.7815C171.096 61.5495 171.041 61.4835 171.349 61.7475C174.407 64.3765 179.962 70.6465 180.732 71.4935C180.746 71.5666 180.785 71.6326 180.842 71.68C180.899 71.7275 180.971 71.7535 181.045 71.7535C181.12 71.7535 181.192 71.7275 181.249 71.68C181.306 71.6326 181.345 71.5666 181.359 71.4935C182.591 66.5215 183.559 61.3625 187.222 57.8095C188.582 57.4964 189.959 57.265 191.347 57.1165C196.22 63.2765 195.527 71.4935 195.505 79.2925C192.238 81.787 188.485 83.57 184.488 84.5267C180.491 85.4834 176.337 85.5927 172.295 84.8475C172.533 82.2422 173.098 79.6773 173.978 77.2135ZM192.282 57.0175C192.876 57.0175 192.821 56.0495 192.282 56.1265C189.986 56.318 187.732 56.8519 185.594 57.7105C185.297 57.8315 184.956 57.8975 185.066 58.1945C185.176 58.4915 185.418 58.2715 186.243 58.0625C183.009 61.4835 181.788 66.3015 180.941 70.6355C180.336 69.8985 178.84 68.1935 178.455 67.7535C181.843 60.2845 181.656 60.0535 183.647 58.5465C184.417 57.9305 187.552 55.6645 190.148 54.0365C191.534 53.1565 192.524 52.5405 194.834 55.7415C196.979 58.7225 197.034 58.7665 195.659 65.3115C195.246 62.2976 194.055 59.4431 192.205 57.0285L192.282 57.0175ZM168.082 50.5385C168.28 50.5385 168.379 50.6925 168.533 50.9235C172.163 56.4235 171.888 55.7965 171.888 55.9065C171.888 56.4345 172.603 57.2265 173.318 57.8975C172.735 58.1175 171.646 58.5575 170.997 58.8215C170.997 56.7975 169.567 56.7975 169.182 57.6445C168.5 56.6435 166.982 54.6635 166.674 54.2785C166.59 54.16 166.478 54.0653 166.347 54.0036C166.215 53.9418 166.07 53.9153 165.926 53.9265C165.409 53.2665 164.243 51.7265 163.792 51.0555C163.902 51.0335 167.73 50.6045 168.071 50.5385H168.082ZM175.562 60.9665C175.397 62.3085 173.296 60.8125 174.11 60.0645C174.26 60.3192 174.47 60.5341 174.721 60.691C174.971 60.848 175.256 60.9425 175.551 60.9665H175.562ZM175.441 60.2735C174.99 60.1965 174.077 59.1735 174.341 58.9425C174.605 58.7115 175.738 60.0975 175.716 60.2625C175.624 60.2936 175.524 60.2974 175.43 60.2735H175.441ZM177.96 67.2585C177.003 66.2465 172.658 61.7585 172.548 61.6705C172.388 61.4323 172.182 61.2286 171.942 61.0718C171.702 60.9149 171.433 60.808 171.151 60.7575C171.006 60.383 170.95 59.9803 170.986 59.5805L173.824 58.3705C174.088 58.6015 173.824 58.3705 173.692 58.8765C173.629 59.1125 173.656 59.3637 173.769 59.5805C172.669 60.3945 173.769 62.2865 175.221 62.1435C175.652 62.4391 176.025 62.812 176.321 63.2435C176.646 64.3663 177.108 65.445 177.696 66.4555C178.059 67.1045 178.037 67.0275 177.949 67.2585H177.96ZM177.025 63.3315C177.025 62.9795 178.29 61.6595 178.488 61.4945C179.077 61.6659 179.652 61.8867 180.204 62.1545C179.885 62.8805 178.862 65.2015 178.356 66.3785C177.804 65.4122 177.354 64.391 177.014 63.3315H177.025ZM176.574 62.6275C176.361 62.3472 176.109 62.099 175.826 61.8905C175.962 61.744 176.063 61.5696 176.124 61.3796C176.185 61.1895 176.203 60.9884 176.178 60.7905C176.241 60.7484 176.294 60.6932 176.334 60.6287C176.374 60.5641 176.4 60.4918 176.409 60.4165C176.497 59.8995 175.914 59.4705 175.529 59.1075C174.39 58.2134 173.376 57.1701 172.515 56.0055C173.389 56.4434 174.225 56.9549 175.012 57.5345C176.332 58.5135 178.026 59.4375 177.894 61.0655C177.408 61.5489 176.963 62.0713 176.563 62.6275H176.574ZM166.102 54.5865C167.22 55.8494 168.246 57.1912 169.171 58.6015C169.203 58.6506 169.249 58.6891 169.303 58.7122C169.356 58.7353 169.416 58.742 169.473 58.7314C169.531 58.7208 169.584 58.6934 169.626 58.6527C169.668 58.612 169.698 58.5597 169.71 58.5025C169.71 58.1945 169.853 57.6445 170.139 57.7655C170.744 58.5905 170.139 59.8775 170.546 60.9005C167.598 62.1985 170.007 61.8685 168.192 59.8005C166.509 58.0295 165.849 55.1475 166.102 54.5865ZM177.443 53.4865C177.845 52.0473 177.845 50.5257 177.443 49.0865C177.28 48.4452 177.18 47.7893 177.146 47.1285C177.807 47.199 178.474 47.1693 179.126 47.0405C181.051 46.7215 182.041 45.6875 182.514 46.0065C182.822 46.2155 182.877 46.8645 182.679 47.8985C182.675 47.932 182.681 47.9661 182.696 47.9961C182.712 48.0261 182.736 48.0505 182.766 48.0661C182.796 48.0817 182.831 48.0878 182.864 48.0833C182.898 48.0789 182.929 48.0643 182.954 48.0415C183.373 47.6985 183.898 47.5118 184.439 47.5135C185.902 47.6345 185.847 49.7135 184.439 50.6045C184.409 50.6286 184.388 50.6625 184.38 50.7005C184.372 50.7384 184.378 50.7778 184.396 50.8119C184.415 50.846 184.444 50.8725 184.48 50.8869C184.516 50.9013 184.556 50.9025 184.593 50.8905C185.121 50.7091 185.688 50.6695 186.236 50.7757C186.784 50.8818 187.295 51.13 187.717 51.4955C187.947 52.4164 188.26 53.3147 188.652 54.1795C187.123 55.2245 185.077 56.6545 183.614 57.7875C182.294 55.0155 180.655 56.9845 179.522 54.7625C178.378 52.8595 177.652 53.5195 177.388 53.4535L177.443 53.4865ZM195.879 66.6865C196.672 64.271 197.127 61.7576 197.232 59.2175C197.076 57.9948 196.581 56.8401 195.802 55.8845C192.678 51.3745 191.402 52.1225 188.993 53.7505C188.773 53.0795 188.289 51.6825 188.201 51.3085C188.344 51.1655 188.718 50.8025 188.828 50.7255C189.235 50.1545 189.55 49.5236 189.763 48.8555C190.044 47.9222 190.16 46.9467 190.104 45.9735C190.159 45.051 190.013 44.1276 189.675 43.2675C188.975 42.0444 187.869 41.1051 186.549 40.6128C185.229 40.1205 183.778 40.1062 182.448 40.5725C180.391 39.8905 177.74 39.1865 176.739 39.6155C175.943 39.8074 175.23 40.2495 174.703 40.8768C174.177 41.5042 173.866 42.2837 173.816 43.1009C173.765 43.9181 173.978 44.73 174.423 45.4173C174.868 46.1046 175.522 46.6311 176.288 46.9195C176.255 47.7688 176.351 48.6182 176.574 49.4385C176.947 50.5931 176.977 51.8309 176.662 53.0025C176.464 53.8825 176.75 54.2785 177.762 54.1025C178.95 54.1905 178.301 56.3025 180.996 56.6985C181.645 56.8085 182.162 56.9075 182.833 58.1505C181.711 59.0474 180.868 60.2455 180.402 61.6045C179.804 61.2517 179.169 60.9641 178.51 60.7465C178.437 60.198 178.246 59.672 177.95 59.2047C177.653 58.7375 177.259 58.3402 176.794 58.0405C175.769 57.1845 174.664 56.4294 173.494 55.7855C173.263 55.6645 172.779 55.2905 172.394 55.3675C168.566 49.5375 168.962 49.7905 167.763 49.7905C166.214 49.8499 164.675 50.0562 163.165 50.4065C163.111 50.4268 163.062 50.4592 163.022 50.5011C162.982 50.543 162.952 50.5934 162.934 50.6485C162.868 50.9125 162.934 50.7585 164.474 52.9585C165.904 54.9605 165.387 53.9815 165.475 55.0595C165.67 57.1379 166.517 59.1014 167.895 60.6695C168.157 61.0726 168.263 61.5578 168.192 62.0335L168.049 62.0995C167.675 62.2865 168.148 66.0375 168.412 66.9175C169.62 70.3747 171.361 73.6221 173.571 76.5425C172.488 79.1422 171.824 81.897 171.602 84.7045C161.779 82.5045 153.386 75.8275 149.602 67.1595C145.818 58.4915 146.786 48.3275 152.528 38.8345C168.423 15.5035 203.282 24.8755 207.418 52.1335C208.936 62.4845 204.404 72.3075 196.264 78.7535C196.375 74.7327 196.221 70.709 195.802 66.7085L195.879 66.6865ZM191.545 89.0165C191.641 90.781 191.947 92.5278 192.458 94.2195C192.493 94.3244 192.568 94.4111 192.667 94.4606C192.766 94.5101 192.881 94.5183 192.986 94.4835C193.822 94.2415 192.59 93.0865 192.227 88.9835C192.194 88.5545 191.512 88.5765 191.545 89.0165ZM194.911 102.161C194.889 102.07 194.832 101.99 194.751 101.941C194.671 101.891 194.574 101.876 194.482 101.897C194.39 101.919 194.311 101.977 194.261 102.057C194.212 102.138 194.196 102.235 194.218 102.326C195.626 109.476 195.439 110.169 196.154 110.026C196.869 109.883 196.363 109.201 194.911 102.161ZM197.496 119.167C196.891 119.332 197.694 119.42 198.233 126.097C198.233 126.702 199.223 126.669 199.157 126.097C198.88 123.84 198.442 121.605 197.848 119.409C197.845 119.369 197.832 119.329 197.812 119.294C197.791 119.258 197.763 119.228 197.73 119.205C197.696 119.181 197.657 119.166 197.617 119.16C197.577 119.153 197.535 119.156 197.496 119.167ZM169.578 100.973C170.753 97.4885 171.733 93.941 172.515 90.3475C172.532 90.2648 172.516 90.1788 172.471 90.1074C172.426 90.0359 172.356 89.9843 172.274 89.9632C172.192 89.942 172.106 89.953 172.032 89.9938C171.958 90.0346 171.903 90.1021 171.877 90.1825C170.997 93.7135 169.831 97.1345 168.742 100.72C168.724 100.826 168.745 100.935 168.801 101.027C168.857 101.118 168.945 101.186 169.048 101.217C169.151 101.248 169.261 101.24 169.359 101.196C169.457 101.151 169.535 101.072 169.578 100.973ZM165.112 115.504C165.728 115.504 165.618 114.756 167.367 108.211C167.39 108.133 167.381 108.048 167.342 107.976C167.303 107.904 167.237 107.85 167.158 107.826C167.079 107.803 166.994 107.812 166.922 107.851C166.85 107.89 166.796 107.957 166.773 108.035C166.432 109.135 164.936 113.766 164.661 114.932C164.644 115.001 164.643 115.072 164.658 115.14C164.673 115.209 164.703 115.273 164.747 115.329C164.79 115.384 164.846 115.428 164.909 115.459C164.972 115.489 165.042 115.505 165.112 115.504ZM160.118 129.804C160.503 129.804 160.481 129.518 160.8 128.242C161.229 126.504 161.9 123.842 162.164 123.094C162.329 122.654 161.658 122.456 161.493 122.874C160.751 125.029 160.167 127.235 159.744 129.474C159.752 129.567 159.796 129.653 159.865 129.714C159.935 129.775 160.025 129.808 160.118 129.804ZM156.488 139.165C155.474 141.129 154.692 143.204 154.156 145.347C154.127 145.458 154.143 145.576 154.201 145.675C154.258 145.774 154.353 145.846 154.464 145.875C154.575 145.905 154.693 145.889 154.792 145.831C154.891 145.773 154.963 145.678 154.992 145.567C156.829 139.33 157.423 139.275 156.884 138.967C156.845 138.952 156.803 138.945 156.762 138.947C156.72 138.949 156.679 138.959 156.642 138.978C156.604 138.997 156.571 139.023 156.545 139.055C156.518 139.088 156.499 139.125 156.488 139.165ZM144.993 107.188C145.103 108.046 145.499 111.588 145.631 112.567C145.639 112.628 145.659 112.687 145.689 112.74C145.72 112.793 145.761 112.839 145.809 112.876C145.858 112.914 145.913 112.941 145.972 112.957C146.031 112.973 146.093 112.977 146.153 112.969C146.214 112.961 146.273 112.941 146.326 112.911C146.379 112.88 146.425 112.839 146.462 112.791C146.5 112.742 146.527 112.687 146.543 112.628C146.559 112.569 146.563 112.507 146.555 112.446C146.412 111.5 145.796 107.947 145.664 107.1C145.598 106.704 144.938 106.781 144.993 107.188ZM146.72 122.929C146.841 123.622 147.292 126.614 147.435 127.406C147.545 128 148.425 127.78 148.315 127.197C148.051 125.734 147.699 124.26 147.424 122.797C147.336 122.302 146.643 122.478 146.72 122.929ZM148.502 138.23C148.551 140.077 148.75 141.916 149.096 143.73C149.228 144.335 150.13 144.093 150.02 143.499C149.644 141.752 149.358 139.986 149.162 138.208C149.063 137.801 148.425 137.79 148.502 138.23ZM119.902 46.6885C119.693 46.2925 119.11 46.6225 119.297 47.0185C122.872 54.3555 122.597 54.4215 123.114 54.4215C123.199 54.4207 123.283 54.3984 123.357 54.3566C123.432 54.3148 123.494 54.2549 123.539 54.1825C123.584 54.1101 123.61 54.0275 123.615 53.9423C123.619 53.8572 123.602 53.7723 123.565 53.6955C122.355 51.3305 121.079 49.0315 119.902 46.6885ZM126.722 61.0325C126.557 60.6585 125.996 60.9555 126.161 61.3295C127.261 63.7825 128.174 66.3015 129.296 68.7655C129.538 69.3155 130.341 68.8755 130.099 68.3365C129.01 65.8065 127.723 63.2655 126.722 61.0325ZM136.402 83.4395C136.469 83.4431 136.535 83.4303 136.596 83.4022C136.656 83.3741 136.709 83.3316 136.749 83.2784C136.789 83.2251 136.816 83.1628 136.826 83.0969C136.837 83.031 136.831 82.9636 136.809 82.9005C136.424 81.8005 134.521 77.7635 134.037 76.6745C133.839 76.2235 133.179 76.5755 133.366 77.0265C135.984 83.0325 135.94 83.4395 136.402 83.4395ZM156.444 79.4465C156.037 80.1395 154.167 82.6805 153.661 83.3295C153.623 83.3779 153.596 83.4332 153.58 83.4923C153.563 83.5514 153.559 83.6131 153.567 83.6738C153.574 83.7346 153.594 83.7933 153.624 83.8465C153.655 83.8997 153.695 83.9464 153.743 83.984C153.792 84.0215 153.847 84.0492 153.906 84.0654C153.965 84.0816 154.027 84.0859 154.088 84.0783C154.149 84.0706 154.207 84.0511 154.26 84.0207C154.314 83.9904 154.36 83.9499 154.398 83.9015C155.345 82.5804 156.205 81.1988 156.972 79.7655C157.014 79.6955 157.027 79.6115 157.007 79.5321C156.988 79.4527 156.937 79.3843 156.867 79.342C156.797 79.2997 156.714 79.2869 156.634 79.3065C156.555 79.3261 156.486 79.3765 156.444 79.4465ZM137.227 37.9545C137.678 37.9545 137.92 37.2725 137.447 37.0635C136.446 36.6125 132.233 35.2155 131.188 34.8635C130.759 34.6985 130.539 35.3585 130.968 35.5235C132.079 35.9195 136.864 37.9545 137.227 37.9545ZM141.044 39.6045C143.019 40.6788 145.093 41.5592 147.237 42.2335C147.36 42.2547 147.487 42.2296 147.592 42.1631C147.698 42.0966 147.775 41.9933 147.81 41.8731C147.844 41.753 147.832 41.6244 147.777 41.5122C147.722 41.4 147.628 41.3122 147.512 41.2655C145.407 40.694 143.359 39.928 141.396 38.9775C140.978 38.7905 140.626 39.4285 141.044 39.6045ZM88.541 38.9445C92.941 35.9855 94.261 36.6565 94.041 35.8755C94.0283 35.8305 94.0069 35.7884 93.9778 35.7518C93.9487 35.7152 93.9127 35.6848 93.8717 35.6622C93.8307 35.6397 93.7857 35.6256 93.7392 35.6206C93.6927 35.6157 93.6457 35.6201 93.601 35.6335C91.615 36.1558 89.725 36.9913 88.002 38.1085C87.496 38.5045 88.002 39.2965 88.541 38.9445ZM78.542 42.6515C78.201 42.9265 78.476 43.3775 78.861 43.3775C78.993 43.3775 79.015 43.3775 80.225 42.7725C81.435 42.1675 82.821 41.5185 83.338 41.3645C83.4248 41.3303 83.4957 41.2649 83.5368 41.1811C83.5778 41.0973 83.5861 41.0011 83.5599 40.9116C83.5337 40.822 83.475 40.7454 83.3953 40.697C83.3155 40.6485 83.2205 40.6315 83.129 40.6495C81.5371 41.1624 80.0005 41.8331 78.542 42.6515Z" fill="#2A344A"/>
<path d="M74.2952 44.7295C73.7232 45.0485 70.5662 46.7095 70.2252 46.9295C70.1551 46.9783 70.1016 47.0475 70.072 47.1277C70.0424 47.2079 70.0381 47.2953 70.0597 47.378C70.0812 47.4607 70.1276 47.5348 70.1927 47.5903C70.2577 47.6458 70.3381 47.6801 70.4232 47.6885C71.8846 46.9981 73.3026 46.2194 74.6692 45.3565C74.731 45.298 74.7711 45.2203 74.7828 45.1361C74.7945 45.0518 74.7771 44.9661 74.7335 44.8931C74.6899 44.82 74.6228 44.764 74.5431 44.7343C74.4634 44.7045 74.376 44.7028 74.2952 44.7295ZM64.9012 27.1515C66.3775 27.1614 67.8406 26.8723 69.2021 26.3015C70.5637 25.7307 71.7955 24.8901 72.8234 23.8303C73.8513 22.7706 74.6539 21.5136 75.1829 20.1353C75.7119 18.757 75.9562 17.2858 75.9012 15.8105C75.5712 5.98746 62.8442 1.30146 56.4092 9.66146C50.6012 16.9325 56.1892 27.1515 64.9012 27.1515ZM58.3012 8.80346C65.0442 2.58846 74.9442 7.70346 75.1972 15.8545C75.177 17.9232 74.5806 19.9455 73.475 21.6942C72.3694 23.4429 70.7984 24.8489 68.9382 25.7545C62.7892 28.4385 55.3862 23.8295 54.8582 17.3395C54.7314 15.7472 54.9765 14.1472 55.574 12.6658C56.1715 11.1844 57.1051 9.86218 58.3012 8.80346ZM89.3652 17.8345C91.3122 18.0435 93.2702 18.0655 95.2172 18.1535C95.3047 18.1535 95.3887 18.1187 95.4506 18.0568C95.5125 17.9949 95.5472 17.911 95.5472 17.8235C95.5472 17.7359 95.5125 17.652 95.4506 17.5901C95.3887 17.5282 95.3047 17.4935 95.2172 17.4935C93.1712 17.3065 91.9172 17.0535 89.3652 16.8885C88.7822 16.8555 88.7712 17.7685 89.3652 17.8345ZM77.8372 16.6685C78.7282 16.7675 82.3912 17.0205 83.3372 17.1415C83.8322 17.2185 84.0302 16.4705 83.5132 16.3825C81.6513 16.0902 79.7749 15.8992 77.8922 15.8105C77.8359 15.8068 77.7794 15.8144 77.726 15.8326C77.6725 15.8508 77.6232 15.8794 77.5808 15.9167C77.5384 15.9539 77.5038 15.9992 77.4789 16.0499C77.454 16.1005 77.4393 16.1556 77.4357 16.212C77.4321 16.2683 77.4396 16.3248 77.4579 16.3782C77.4761 16.4317 77.5046 16.481 77.5419 16.5234C77.5792 16.5658 77.6245 16.6004 77.6751 16.6253C77.7258 16.6502 77.7809 16.6648 77.8372 16.6685ZM34.1012 98.0575C34.4202 96.0335 34.4972 94.0205 34.7392 92.0075C34.7942 91.6335 34.1782 91.5455 34.1232 91.9305C33.8152 93.9105 33.3422 95.9015 33.1112 97.9145C33.1123 98.0353 33.1566 98.1518 33.2362 98.2429C33.3157 98.3339 33.4252 98.3935 33.5449 98.4108C33.6645 98.428 33.7864 98.4019 33.8884 98.3371C33.9905 98.2723 34.066 98.1731 34.1012 98.0575ZM32.9132 103.502C31.8132 109.541 31.5602 110.278 32.3522 110.278C32.9462 110.278 32.8362 109.882 33.5842 103.59C33.6392 103.183 33.0012 103.095 32.9132 103.502ZM53.1422 113.556C51.4702 114.436 49.3912 115.459 48.7422 115.844C48.652 115.898 48.5821 115.98 48.5434 116.077C48.5047 116.174 48.4994 116.282 48.5284 116.382C48.5573 116.483 48.6189 116.571 48.7033 116.633C48.7878 116.695 48.8905 116.727 48.9952 116.724C50.5291 115.964 52.02 115.119 53.4612 114.194C53.5285 114.143 53.5757 114.07 53.5949 113.988C53.614 113.905 53.6038 113.819 53.5659 113.743C53.5281 113.668 53.4651 113.608 53.3878 113.574C53.3104 113.539 53.2236 113.533 53.1422 113.556ZM46.7072 116.944C45.5063 117.507 44.3351 118.131 43.1982 118.814C42.8462 119.133 43.2642 119.661 43.6822 119.463C44.1002 119.265 46.4432 117.813 46.9822 117.56C47.5212 117.307 47.1142 116.768 46.7072 116.944ZM91.0042 126.107C91.4002 126.36 91.7742 125.755 91.3892 125.491C90.5532 124.941 87.3742 122.587 86.4942 122.125C86.3804 122.071 86.2503 122.059 86.1287 122.094C86.0071 122.128 85.9024 122.206 85.8342 122.312C85.3832 123.016 86.9012 123.412 91.0042 126.107ZM75.7692 115.943C76.3192 116.328 76.8692 116.691 77.4302 117.043C81.1812 119.529 81.0052 119.606 81.2362 119.606C81.3122 119.605 81.3862 119.582 81.4489 119.539C81.5115 119.496 81.56 119.435 81.5883 119.364C81.6165 119.294 81.6232 119.217 81.6075 119.142C81.5919 119.068 81.5545 119 81.5002 118.946C79.8302 117.572 78.0859 116.29 76.2752 115.107C75.7472 114.788 75.2632 115.602 75.7692 115.943ZM184.086 152.397C182.282 152.65 180.423 152.837 178.586 153.255C178.473 153.29 178.376 153.364 178.313 153.465C178.25 153.565 178.225 153.684 178.242 153.801C178.26 153.918 178.318 154.025 178.408 154.102C178.497 154.18 178.611 154.223 178.729 154.223C179.158 154.223 181.897 153.486 184.229 153.123C184.801 153.079 184.581 152.309 184.086 152.397ZM174.362 154.179C172.514 154.454 170.479 154.619 168.477 154.96C167.916 155.059 168.07 155.873 168.62 155.873C169.17 155.873 173.108 155.081 174.505 154.861C174.956 154.784 174.802 154.113 174.362 154.179ZM107.801 114.744C107.746 114.651 107.656 114.584 107.55 114.557C107.445 114.53 107.334 114.546 107.24 114.601C107.147 114.657 107.079 114.747 107.053 114.852C107.026 114.958 107.042 115.069 107.097 115.162C107.64 116.047 108.495 116.695 109.494 116.979C110.492 117.262 111.561 117.159 112.487 116.691C112.549 116.654 112.594 116.594 112.614 116.524C112.633 116.454 112.625 116.379 112.592 116.315C112.558 116.251 112.502 116.201 112.433 116.177C112.365 116.153 112.29 116.156 112.223 116.185C111.434 116.503 110.559 116.533 109.75 116.269C108.941 116.006 108.251 115.466 107.801 114.744ZM115.501 110.674C115.424 111.312 114.852 110.96 114.808 111.345C114.808 111.554 114.984 111.631 115.204 111.631C115.399 111.625 115.589 111.566 115.755 111.461C115.92 111.357 116.054 111.21 116.143 111.037C116.233 110.863 116.275 110.669 116.264 110.474C116.254 110.278 116.192 110.09 116.084 109.926C115.467 109.265 114.904 108.555 114.401 107.803C114.382 107.735 114.337 107.677 114.275 107.642C114.213 107.607 114.14 107.597 114.071 107.616C114.003 107.635 113.944 107.681 113.909 107.743C113.874 107.805 113.865 107.878 113.884 107.946C114.143 108.528 114.468 109.078 114.852 109.585C115.104 109.926 115.321 110.291 115.501 110.674ZM109.66 102.622C109.631 102.491 109.551 102.377 109.437 102.305C109.324 102.232 109.186 102.208 109.055 102.237C108.924 102.267 108.81 102.347 108.737 102.46C108.665 102.574 108.641 102.711 108.67 102.842C108.978 104.932 108.791 105.823 109.616 105.823C109.774 105.823 109.925 105.761 110.036 105.649C110.148 105.538 110.21 105.387 110.21 105.229C110.21 104.954 109.748 103.084 109.66 102.622ZM118.306 102.721C118.283 102.601 118.217 102.494 118.121 102.419C118.024 102.344 117.904 102.306 117.782 102.313C117.66 102.319 117.544 102.37 117.457 102.455C117.369 102.541 117.315 102.655 117.305 102.776C117.305 102.941 117.459 104.91 117.514 105.064C117.53 105.21 117.604 105.344 117.718 105.436C117.833 105.527 117.979 105.57 118.125 105.554C118.271 105.538 118.404 105.465 118.496 105.35C118.588 105.236 118.63 105.089 118.614 104.943C118.592 104.811 118.416 103.733 118.306 102.721ZM107.933 102.061C108.074 101.594 108.367 101.186 108.766 100.904C109.164 100.621 109.645 100.479 110.133 100.499C110.219 100.509 110.305 100.486 110.374 100.435C110.444 100.384 110.491 100.309 110.507 100.224C110.617 99.4325 107.658 99.7515 107.009 101.808C106.976 101.931 106.992 102.062 107.055 102.172C107.118 102.283 107.222 102.363 107.345 102.397C107.467 102.431 107.598 102.414 107.708 102.351C107.819 102.288 107.9 102.184 107.933 102.061ZM116.161 100.103C116.561 100.08 116.958 100.189 117.29 100.414C117.622 100.639 117.871 100.966 117.998 101.346C118.196 101.775 118.889 101.489 118.757 101.027C118.542 100.509 118.153 100.081 117.658 99.8161C117.163 99.5515 116.591 99.4664 116.04 99.5755C115.981 99.6006 115.932 99.646 115.902 99.7035C115.873 99.7611 115.865 99.8272 115.879 99.8903C115.894 99.9533 115.93 100.009 115.981 100.048C116.033 100.087 116.097 100.107 116.161 100.103ZM201.048 137.118C201.048 137.118 200.465 134.456 200.311 133.686C200.292 133.6 200.24 133.525 200.166 133.478C200.091 133.43 200.001 133.414 199.915 133.433C199.829 133.452 199.754 133.505 199.707 133.579C199.659 133.653 199.643 133.743 199.662 133.829L200.179 136.964L201.048 137.118Z" fill="#2A344A"/>
<path d="M164.76 159.503C169.259 146.435 169.039 147.205 168.962 147.095C168.885 146.985 154.662 146.721 146.764 146.875C143.614 142.153 139.497 138.153 134.687 135.14C129.876 132.127 124.48 130.169 118.857 129.396C118.001 128.458 116.822 127.88 115.557 127.779L114.182 127.306C114.127 126.233 114.127 125.157 114.182 124.083C117.268 122.908 119.79 120.598 121.233 117.626C122.85 113.996 122.047 109.354 121.101 97.5514C123.367 98.2554 123.422 95.9234 122.047 94.0974C122.109 93.7072 122.089 93.3083 121.989 92.926C121.889 92.5437 121.711 92.1863 121.466 91.8762C121.221 91.5661 120.915 91.3102 120.566 91.1245C120.217 90.9389 119.834 90.8275 119.44 90.7974C119.651 90.4729 119.773 90.0983 119.794 89.7114C119.814 89.3246 119.732 88.9392 119.555 88.5943C119.379 88.2494 119.115 87.9572 118.789 87.7472C118.464 87.5372 118.089 87.4169 117.702 87.3984C117.472 86.8949 117.091 86.4757 116.612 86.1996C116.133 85.9234 115.579 85.8041 115.029 85.8584C114.951 85.4884 114.776 85.1459 114.521 84.8663C114.266 84.5866 113.942 84.3801 113.581 84.268C113.22 84.1558 112.835 84.1421 112.467 84.2284C112.099 84.3146 111.76 84.4976 111.487 84.7584C111.256 84.4064 110.684 83.5374 110.387 83.2074C110.622 82.9759 110.783 82.6804 110.852 82.3577C110.92 82.0351 110.892 81.6994 110.772 81.3924C111.311 81.2237 111.782 80.8873 112.116 80.4322C112.45 79.9772 112.631 79.4272 112.631 78.8624C112.631 78.2976 112.45 77.7476 112.116 77.2926C111.782 76.8375 111.311 76.5011 110.772 76.3324C111.641 73.1644 108.671 71.2174 105.976 72.4824C105.83 72.119 105.58 71.8069 105.257 71.5856C104.934 71.3644 104.552 71.2439 104.161 71.2394C106.361 68.4674 103.226 66.5314 100.245 67.4774C100.049 66.9745 99.7193 66.5346 99.292 66.2048C98.8648 65.8751 98.3558 65.6679 97.8197 65.6057C97.2836 65.5435 96.7406 65.6286 96.2492 65.8518C95.7578 66.0749 95.3365 66.4278 95.0306 66.8724C94.3088 66.6829 93.5414 66.7841 92.8935 67.1544C92.2455 67.5246 91.7687 68.1343 91.5656 68.8524C91.1037 68.7436 90.6235 68.7384 90.1594 68.8373C89.6953 68.9362 89.2589 69.1367 88.8816 69.4244C88.6299 68.9892 88.2282 68.6607 87.7518 68.5001C87.2753 68.3396 86.7567 68.3582 86.293 68.5523C85.8292 68.7464 85.4521 69.1029 85.2321 69.5549C85.0121 70.007 84.9643 70.5237 85.0976 71.0084C84.7932 71.0933 84.5233 71.2718 84.3259 71.5185C84.1285 71.7653 84.0136 72.0678 83.9976 72.3834C83.8766 72.3631 83.7527 72.3686 83.634 72.3996C83.5153 72.4306 83.4045 72.4863 83.3089 72.5632C83.2133 72.6401 83.135 72.7364 83.0793 72.8457C83.0236 72.955 82.9917 73.0749 82.9856 73.1974C82.6991 73.1247 82.3977 73.1372 82.1182 73.2334C81.8388 73.3296 81.5935 73.5053 81.4124 73.7389C81.2314 73.9725 81.1225 74.2539 81.0991 74.5485C81.0756 74.8431 81.1387 75.1381 81.2806 75.3974C80.9223 75.4779 80.5956 75.6621 80.3413 75.9271C80.087 76.1921 79.9163 76.5261 79.8506 76.8874C79.7849 77.2487 79.8271 77.6214 79.9718 77.959C80.1166 78.2965 80.3575 78.5839 80.6646 78.7854C78.9266 79.2914 77.8046 80.9854 78.4646 82.5254C76.4846 83.7244 75.6706 86.1554 77.0676 87.8494C76.8162 88.5486 76.8271 89.3153 77.0982 90.0072C77.3692 90.699 77.8821 91.269 78.5416 91.6114C78.2539 91.965 78.071 92.3922 78.0135 92.8444C77.956 93.2966 78.0263 93.7559 78.2163 94.1703C78.4063 94.5846 78.7085 94.9375 79.0887 95.1891C79.4689 95.4406 79.9119 95.5806 80.3676 95.5934C80.4012 95.9919 80.5371 96.3749 80.7623 96.7054C80.9874 97.0359 81.2942 97.3025 81.6527 97.4796C82.0112 97.6567 82.4095 97.7381 82.8087 97.716C83.208 97.6939 83.5948 97.569 83.9316 97.3534C84.1108 97.6393 84.3699 97.8664 84.6767 98.0067C84.9836 98.147 85.3249 98.1944 85.6583 98.1429C85.9918 98.0914 86.3029 97.9433 86.5532 97.717C86.8034 97.4907 86.9819 97.196 87.0666 96.8694C87.605 97.0719 88.1828 97.1474 88.7552 97.0902C89.3275 97.0329 89.879 96.8445 90.3666 96.5394C89.9156 99.2784 87.8366 99.4764 88.4856 102.347C88.1023 102.852 87.8902 103.465 87.8803 104.098C87.8704 104.732 88.0632 105.351 88.4306 105.867C88.3058 106.133 88.2353 106.42 88.2232 106.713C88.2111 107.006 88.2577 107.298 88.3602 107.573C88.4626 107.848 88.619 108.099 88.82 108.312C89.021 108.526 89.2626 108.697 89.5306 108.815C89.4276 109.017 89.3789 109.243 89.3892 109.469C89.3995 109.696 89.4685 109.916 89.5893 110.108C89.7102 110.299 89.8789 110.457 90.0788 110.564C90.2786 110.671 90.5029 110.724 90.7296 110.718C90.9459 111.527 91.3611 112.269 91.9375 112.876C92.514 113.483 93.2332 113.936 94.0296 114.194C94.1396 128.021 94.6456 126.36 93.3256 127.966C92.1098 128.605 91.1136 129.594 90.4656 130.804C71.1716 137.503 63.3836 152.804 60.8316 173.341C59.3576 173.11 59.2916 173.055 59.2366 173.242C58.6428 175.554 58.4347 177.947 58.6206 180.326C58.6206 180.469 58.6206 180.458 60.3806 180.887C60.8756 189.368 65.4626 198.564 74.6806 200.181C74.5596 201.963 74.4166 212.171 74.6806 214.481C74.6923 214.535 74.7222 214.584 74.7652 214.618C74.8082 214.653 74.8618 214.672 74.9171 214.672C74.9724 214.672 75.026 214.653 75.069 214.618C75.112 214.584 75.1419 214.535 75.1536 214.481C75.1536 213.249 75.3076 202.183 75.4066 200.346C81.0056 200.896 84.2836 198.553 88.6946 193.746C95.6246 186.046 99.5516 177.741 103.644 169.029C104.362 167.623 104.941 166.149 105.371 164.629C106.016 164.89 106.728 164.94 107.403 164.773C108.079 164.605 108.684 164.227 109.133 163.694C110.708 164.203 112.382 164.331 114.017 164.068C114.293 164.017 114.556 163.909 114.789 163.752C115.022 163.594 115.22 163.391 115.371 163.153C115.521 162.916 115.622 162.65 115.665 162.372C115.708 162.094 115.694 161.81 115.623 161.538C117.031 161.472 117.911 160.196 116.503 159.129C116.054 158.785 115.58 158.476 115.084 158.205C116.25 158.128 119.33 157.787 120.331 157.105C121.332 156.423 121.299 154.718 119.913 154.531C119.33 154.454 110.761 154.806 108.814 155.081C106.887 155.286 105.063 156.05 103.567 157.281C101.367 159.096 85.8126 172.021 80.2576 176.685C77.0346 176.102 64.9566 174.034 61.7446 173.528C64.4066 151.341 73.4486 138.075 90.1686 131.827C89.1456 136.007 94.0956 140.297 95.6686 141.573C98.2536 143.696 102.478 145.973 106.097 144.983C108.396 144.367 110.112 142.596 111.212 139.703C116.096 143.938 118.395 143.465 119.165 143.069C122.124 141.518 122.003 133.972 119.539 130.342C124.818 131.16 129.872 133.058 134.384 135.918C138.896 138.778 142.77 142.538 145.763 146.963C140.714 147.073 141.022 147.073 140.978 147.205C139.785 150.423 138.626 153.654 137.502 156.896C137.062 154.157 136.402 150.428 136.116 149.35C136.091 149.292 136.046 149.244 135.989 149.215C135.932 149.187 135.867 149.18 135.805 149.196C135.744 149.212 135.69 149.25 135.654 149.303C135.618 149.355 135.602 149.419 135.61 149.482C135.929 150.824 136.589 155.917 136.952 158.491C132.486 171.416 128.988 183.065 129.076 183.186C129.164 183.307 140.076 183.307 141.484 183.285C142.584 192.481 143.42 211.654 143.387 213.931C143.387 213.996 143.412 214.057 143.457 214.103C143.503 214.148 143.564 214.173 143.629 214.173C143.693 214.173 143.754 214.148 143.8 214.103C143.845 214.057 143.871 213.996 143.871 213.931C144.069 209.883 143.871 197.717 143.684 195.088C146.285 194.657 148.669 193.372 150.46 191.436C151.802 190.061 153.76 185.991 155.113 182.713C157.247 182.57 157.313 182.603 157.313 182.46C158.567 179.545 159.81 176.113 160.855 172.769C166.047 171.988 168.676 164.706 166.575 161.406C166.103 160.657 165.486 160.01 164.76 159.503ZM75.0766 182.889C75.7806 182.768 74.9996 181.789 101.554 159.965C105.954 156.368 106.295 156.027 111.63 155.664C113.61 155.532 118.747 155.345 119.33 155.334C119.781 155.334 120.177 155.334 120.144 155.741C120.144 156.445 119.044 156.654 118.285 156.841C116.008 157.392 113.675 157.68 111.333 157.699C111.263 157.699 111.195 157.727 111.146 157.777C111.096 157.826 111.069 157.893 111.069 157.963C111.069 158.033 111.096 158.101 111.146 158.15C111.195 158.2 111.263 158.227 111.333 158.227H113.621C114.322 158.567 114.992 158.968 115.623 159.426C115.887 159.613 116.36 159.789 116.393 160.042C116.569 161.505 112.873 160.152 111.575 159.525C111.529 159.502 111.477 159.498 111.428 159.513C111.38 159.529 111.339 159.563 111.316 159.608C111.293 159.653 111.288 159.706 111.304 159.754C111.319 159.803 111.353 159.843 111.399 159.866C112.334 160.449 115.568 161.582 114.82 162.682C113.863 164.068 111.355 163.474 109.694 163.144C110.041 162.864 110.458 162.684 110.9 162.624C111.342 162.563 111.792 162.626 112.202 162.803C112.258 162.817 112.317 162.811 112.368 162.785C112.42 162.76 112.461 162.716 112.483 162.663C112.506 162.61 112.509 162.551 112.491 162.496C112.474 162.441 112.437 162.394 112.389 162.363C111.713 162.079 110.965 162.012 110.25 162.172C109.534 162.331 108.886 162.71 108.396 163.254C107.087 164.508 105.459 164.211 104.194 162.935C104.148 162.895 104.09 162.873 104.03 162.872C103.97 162.871 103.911 162.892 103.864 162.93C103.818 162.969 103.787 163.022 103.777 163.082C103.766 163.141 103.778 163.203 103.809 163.254C104.062 163.643 104.391 163.976 104.777 164.233C102.817 169.054 100.614 173.771 98.1766 178.368C93.7766 186.618 89.3106 192.448 84.2946 196.694C78.8606 201.369 70.8746 199.653 66.2876 194.307C63.5376 191.128 61.8106 186.673 61.1726 181.107C63.4606 181.503 72.6016 182.812 75.0766 182.889ZM94.1506 91.1274C93.2016 91.794 92.4676 92.7229 92.0386 93.8004C91.6092 93.4214 91.2772 92.9448 91.0705 92.4107C90.8637 91.8766 90.7883 91.3007 90.8506 90.7314C91.8296 86.3314 96.3506 82.4814 100.102 81.3484C102.412 80.4134 108.286 81.4584 110.178 84.2854C109.56 84.2294 108.944 84.4059 108.451 84.7804C108.155 84.3955 107.776 84.0824 107.342 83.8646C106.908 83.6467 106.43 83.5297 105.945 83.5223C105.459 83.5149 104.978 83.6173 104.538 83.8218C104.098 84.0263 103.709 84.3277 103.402 84.7034C102.8 84.8788 102.256 85.2132 101.829 85.6714C101.424 85.4547 100.964 85.361 100.507 85.4021C100.05 85.4431 99.6144 85.617 99.2546 85.9024C98.8714 86.0064 98.5347 86.2368 98.2991 86.5563C98.0634 86.8759 97.9427 87.2656 97.9566 87.6624C97.4737 87.6146 96.9862 87.6688 96.5257 87.8214C96.0651 87.9741 95.6417 88.2217 95.2829 88.5484C94.9241 88.875 94.6379 89.2734 94.4429 89.7176C94.2478 90.1619 94.1482 90.6422 94.1506 91.1274ZM114.952 136.832C109.815 142.156 94.3816 135.952 93.3806 131.002C93.3014 130.47 93.3487 129.927 93.5188 129.417C93.6889 128.907 93.977 128.444 94.3596 128.065C94.4696 127.955 94.5466 127.834 94.6566 127.724C94.6694 127.693 94.6694 127.657 94.6566 127.625L94.8656 127.361C95.1406 126.844 94.7996 115.899 94.7446 114.326C95.1586 114.332 95.5636 114.206 95.9016 113.967C96.2396 113.728 96.493 113.388 96.6256 112.995C96.8599 113.123 97.1266 113.178 97.3923 113.155C97.658 113.131 97.9108 113.029 98.1188 112.862C98.3269 112.695 98.481 112.471 98.5617 112.216C98.6424 111.962 98.6462 111.69 98.5726 111.433L101.279 108.529C101.275 108.891 101.375 109.245 101.566 109.551C101.757 109.858 102.032 110.103 102.358 110.258C102.685 110.413 103.048 110.471 103.407 110.426C103.765 110.381 104.103 110.234 104.381 110.003C104.665 109.797 104.9 109.53 105.069 109.222C105.239 108.914 105.338 108.572 105.36 108.221C105.364 108.184 105.355 108.145 105.334 108.113C105.314 108.081 105.282 108.057 105.246 108.046C105.21 108.034 105.171 108.035 105.135 108.049C105.1 108.063 105.07 108.089 105.052 108.122C104.869 108.396 104.598 108.6 104.284 108.7C103.971 108.8 103.632 108.79 103.325 108.672C103.432 108.216 103.411 107.739 103.263 107.294C103.116 106.85 102.848 106.455 102.489 106.153C100.839 100.873 100.993 98.7834 103.952 96.8034C106.152 95.1424 113.852 91.4464 119.033 96.1654C119.389 96.5789 119.813 96.9286 120.287 97.1994C121.629 115.47 122.487 115.712 117.471 121.014C115.934 122.572 113.888 123.525 111.707 123.698C111.322 123.698 111.278 124.259 111.707 124.303C112.265 124.38 112.831 124.38 113.39 124.303C113.39 128.032 113.225 127.746 114.292 128.12C117.933 129.803 117.614 134.049 114.952 136.832ZM147.303 192.734C146.147 193.375 144.912 193.86 143.629 194.175C143.464 192.327 142.793 186.475 142.353 183.175C146.357 183.087 150.383 182.922 154.222 182.68C152.616 186.684 150.185 191.326 147.303 192.734ZM154.574 156.434C152.154 156.368 152.154 153.376 154.574 153.31C156.994 153.244 156.994 156.423 154.574 156.489V156.434ZM144.773 150.769C144.259 151.076 143.843 151.522 143.574 152.056C143.244 152.683 133.795 178.39 133.344 179.853C133.32 179.932 133.267 179.998 133.194 180.038C133.122 180.077 133.037 180.086 132.959 180.062C132.88 180.039 132.814 179.985 132.774 179.913C132.735 179.841 132.726 179.756 132.75 179.677C133.311 177.598 141.462 154.256 141.55 154.113C143.497 149.251 144.256 149.328 147.974 149.207C149.679 149.152 162.087 149.097 163.88 149.394C164.276 149.46 164.188 150.021 163.88 150.054C162.901 150.175 145.543 150.439 144.773 150.824V150.769ZM161.185 171.669C161.603 170.261 161.988 168.886 162.285 167.577C162.774 167.775 163.283 167.923 163.803 168.017C163.859 168.031 163.919 168.021 163.969 167.99C164.018 167.959 164.053 167.909 164.067 167.852C164.08 167.796 164.07 167.736 164.039 167.686C164.008 167.637 163.958 167.602 163.902 167.588C162.702 167.119 161.588 166.458 160.602 165.63C159.931 164.871 159.623 164.31 160.404 163.76C161.9 164.937 163.847 165.96 164.562 166.477C164.607 166.5 164.659 166.506 164.708 166.495C164.758 166.483 164.802 166.455 164.833 166.415C164.864 166.375 164.88 166.325 164.879 166.274C164.878 166.224 164.859 166.175 164.826 166.136C164.023 165.41 161.306 163.584 159.887 162.165C159.864 161.941 159.911 161.715 160.021 161.518C160.132 161.322 160.3 161.163 160.503 161.065C161.779 162.179 163.173 163.149 164.661 163.958C164.709 163.988 164.767 163.997 164.822 163.985C164.878 163.973 164.926 163.94 164.958 163.892C165.123 163.683 164.958 163.606 163.858 162.693C163.033 162.011 161.878 161.054 161.031 160.218C159.832 159.118 162.131 159.316 164.232 160.218C164.963 160.636 165.559 161.255 165.949 162.002C166.339 162.749 166.507 163.592 166.432 164.431C166.267 167.61 164.309 170.91 161.185 171.779V171.669Z" fill="#2A344A"/>
<path d="M41.5162 118.888C36.0162 110.924 23.4982 113.74 21.9802 123.101C21.6729 124.669 21.7221 126.286 22.124 127.832C22.526 129.378 23.2704 130.815 24.3022 132.035C25.3341 133.254 26.627 134.227 28.0853 134.879C29.5436 135.532 31.13 135.849 32.7272 135.806C41.8792 135.806 46.2022 125.708 41.5162 118.888Z" fill="#4E6AF3"/>
<path fill-rule="evenodd" clip-rule="evenodd" d="M29.4143 128.982C29.1881 128.93 29.1059 128.752 28.9825 128.426C28.6397 127.515 27.447 123.453 27.5018 122.867C27.5058 122.797 27.5287 122.729 27.5676 122.673C27.6066 122.616 27.6599 122.573 27.7212 122.549C28.5369 122.156 33.9522 120.51 35.6453 120.021C35.6646 120.009 35.6863 120.001 35.7087 120C35.731 119.999 35.7533 120.004 35.7736 120.014C35.7939 120.024 35.8115 120.04 35.825 120.059C35.8385 120.078 35.8474 120.101 35.851 120.125C36.5037 122.113 37.0507 124.14 37.4893 126.195C37.5188 126.362 37.4868 126.535 37.4002 126.677C36.8998 127.277 30.2986 129.205 29.4143 128.982ZM28.4958 122.978C29.6982 123.574 30.9346 124.087 32.1974 124.513C32.8075 124.691 35.2066 120.933 35.5768 120.362C31.32 122.015 30.2232 122.356 28.4958 122.978ZM35.7207 120.666C34.9199 122.131 34.0339 123.54 33.0679 124.883C32.8349 125.172 32.7252 125.284 32.4304 125.247C30.993 124.852 29.5948 124.305 28.2559 123.616C28.6296 125.217 29.0873 126.793 29.6268 128.337C32.1233 127.905 34.5766 127.22 36.9546 126.292C36.6477 124.391 36.2357 122.513 35.7207 120.666Z" fill="white"/>
<rect y="184" width="36" height="36" rx="18" fill="#4E6AF3"/>
<path d="M22.3857 206.664V208H14.0098V206.831L18.2021 202.164C18.7178 201.59 19.1162 201.104 19.3975 200.705C19.6846 200.301 19.8838 199.94 19.9951 199.624C20.1123 199.302 20.1709 198.974 20.1709 198.64C20.1709 198.218 20.083 197.837 19.9072 197.497C19.7373 197.151 19.4854 196.876 19.1514 196.671C18.8174 196.466 18.4131 196.363 17.9385 196.363C17.3701 196.363 16.8955 196.475 16.5146 196.697C16.1396 196.914 15.8584 197.219 15.6709 197.611C15.4834 198.004 15.3896 198.455 15.3896 198.965H13.7637C13.7637 198.244 13.9219 197.585 14.2383 196.987C14.5547 196.39 15.0234 195.915 15.6445 195.563C16.2656 195.206 17.0303 195.027 17.9385 195.027C18.7471 195.027 19.4385 195.171 20.0127 195.458C20.5869 195.739 21.0264 196.138 21.3311 196.653C21.6416 197.163 21.7969 197.761 21.7969 198.446C21.7969 198.821 21.7324 199.202 21.6035 199.589C21.4805 199.97 21.3076 200.351 21.085 200.731C20.8682 201.112 20.6133 201.487 20.3203 201.856C20.0332 202.226 19.7256 202.589 19.3975 202.946L15.9697 206.664H22.3857Z" fill="white"/>
<path d="M194.989 137.343C196.673 136.827 198.448 136.674 200.195 136.895C203.006 137.444 205.703 138.297 208.217 141.331C210.029 143.548 211.008 146.33 210.986 149.193C210.656 165.44 186.863 165.77 186.203 149.193C186.208 147.432 186.587 145.692 187.315 144.088C188.043 142.484 189.104 141.053 190.427 139.891C191.75 138.728 193.305 137.859 194.989 137.343Z" fill="#4E6AF3"/>
<path d="M122.407 21.9654C122.39 21.7508 122.199 21.5875 121.981 21.6025C116.264 21.9575 110.463 22.0316 104.74 21.8234C104.654 21.8202 104.323 21.8786 104.323 22.2162C103.493 26.3393 103.496 30.367 104.333 35.2726C104.366 35.4627 104.533 35.6016 104.729 35.6016L122.155 35.3239C122.365 35.3207 122.538 35.1583 122.549 34.9516C122.795 30.6391 122.746 26.2699 122.406 21.9646L122.407 21.9654ZM104.947 23.2535C106.703 24.7791 108.495 26.3251 110.361 27.7836L104.981 34.2495C104.361 30.1864 104.349 26.7251 104.947 23.2535ZM110.993 28.2719C111.979 29.0252 112.986 29.7509 114.019 30.4341C114.178 30.5382 114.386 30.5192 114.521 30.3907L116.736 28.3106C118.473 30.296 120.117 32.3895 121.632 34.543L105.56 34.7986L110.992 28.2711L110.993 28.2719ZM117.315 27.7616C118.841 26.2999 120.303 24.8114 121.683 23.0831C121.916 26.5176 121.961 29.9868 121.82 33.4284C120.413 31.4737 118.902 29.5735 117.315 27.7616ZM121.176 22.4402C119.089 25.0835 116.797 27.166 114.201 29.6019C111.106 27.5249 108.23 25.0544 105.449 22.6366C110.673 22.8047 115.955 22.7384 121.176 22.4402Z" fill="white"/>
<path fill-rule="evenodd" clip-rule="evenodd" d="M203.32 154.976C203.637 154.907 203.752 154.67 203.925 154.235C204.404 153.02 206.074 147.604 205.997 146.823C205.992 146.729 205.96 146.639 205.905 146.563C205.851 146.488 205.776 146.43 205.69 146.398C204.548 145.874 196.967 143.68 194.597 143.028C194.57 143.011 194.539 143.002 194.508 143C194.477 142.999 194.445 143.005 194.417 143.019C194.389 143.032 194.364 143.053 194.345 143.079C194.326 143.104 194.314 143.134 194.309 143.166C193.395 145.817 192.629 148.519 192.015 151.26C191.974 151.483 192.018 151.714 192.14 151.903C192.84 152.703 202.082 155.273 203.32 154.976ZM204.606 146.971C202.922 147.766 201.192 148.449 199.424 149.017C198.57 149.254 195.211 144.244 194.692 143.483C200.652 145.686 202.188 146.141 204.606 146.971ZM194.491 143.888C195.612 145.841 196.853 147.72 198.205 149.511C198.531 149.897 198.685 150.045 199.097 149.995C201.11 149.469 203.067 148.741 204.942 147.821C204.419 149.955 203.778 152.057 203.022 154.116C199.527 153.54 196.093 152.627 192.764 151.389C193.193 148.855 193.77 146.35 194.491 143.888Z" fill="white"/>
<path d="M60.24 13.9698C59.933 13.9627 59.9046 13.215 60.2474 13.1827C63.3997 13.2567 66.596 13.1945 69.7473 13.0009C70.0685 12.9694 70.093 13.7675 69.7659 13.7872C66.7223 13.9753 63.5182 14.0461 60.24 13.9698Z" fill="#2A344A"/>
<path d="M141.24 90.9698C140.933 90.9627 140.905 90.215 141.247 90.1827C144.4 90.2567 147.596 90.1945 150.747 90.0009C151.069 89.9694 151.093 90.7675 150.766 90.7872C147.722 90.9753 144.518 91.0461 141.24 90.9698Z" fill="#2A344A"/>
<path d="M59.2258 17C59.1028 17.0006 59.0014 16.8707 59 16.709C58.9987 16.5468 59.0983 16.4139 59.2222 16.4122C63.0525 16.3593 66.9361 16.2211 70.7659 16.0001C70.8862 15.9954 70.9944 16.1183 70.9998 16.2811C71.0052 16.4433 70.9091 16.5803 70.7852 16.5874C66.9505 16.8084 63.061 16.9735 59.2258 17Z" fill="#2A344A"/>
<path d="M140.226 94C140.103 94.0006 140.001 93.8707 140 93.709C139.999 93.5468 140.098 93.4139 140.222 93.4122C144.052 93.3593 147.936 93.2211 151.766 93.0001C151.886 92.9954 151.994 93.1183 152 93.2811C152.005 93.4433 151.909 93.5803 151.785 93.5874C147.95 93.8084 144.061 93.9735 140.226 94Z" fill="#2A344A"/>
<path d="M60.2153 20C59.9323 20 59.9262 19.3895 60.2096 19.3783L69.7785 19.0003C70.0659 18.9847 70.0776 19.6102 69.7903 19.622L60.2153 20Z" fill="#2A344A"/>
<path d="M141.215 97C140.932 97 140.926 96.3895 141.21 96.3783L150.779 96.0003C151.066 95.9847 151.078 96.6102 150.79 96.622L141.215 97Z" fill="#2A344A"/>
<path d="M58.8467 107.17C58.5549 107.266 58.2787 106.57 58.591 106.426C61.5874 105.444 64.5799 104.319 67.4861 103.085C67.7784 102.948 68.0677 103.692 67.766 103.82C64.9595 105.013 61.9625 106.148 58.8467 107.17Z" fill="#2A344A"/>
<path d="M58.9058 110.367C58.7901 110.409 58.6511 110.32 58.5959 110.168C58.5405 110.016 58.5901 109.857 58.7063 109.814C62.2995 108.487 65.9146 107.061 69.4513 105.575C69.5632 105.53 69.7061 105.61 69.7655 105.762C69.8247 105.913 69.7799 106.074 69.6654 106.122C66.1241 107.61 62.5125 109.063 58.9058 110.367Z" fill="#2A344A"/>
<path d="M60.8334 112.863C60.5666 112.958 60.3572 112.384 60.6207 112.279L69.5153 108.73C69.781 108.62 70.0007 109.206 69.7338 109.312L60.8334 112.863Z" fill="#2A344A"/>
<defs>
<linearGradient id="paint0_linear_486_16529" x1="114" y1="186.5" x2="114" y2="213.5" gradientUnits="userSpaceOnUse">
<stop stop-color="white"/>
<stop offset="1" stop-color="white" stop-opacity="0"/>
</linearGradient>
</defs>
</svg>
