<svg width="16" height="15" viewBox="0 0 16 15" fill="none" xmlns="http://www.w3.org/2000/svg">
<path fill-rule="evenodd" clip-rule="evenodd" d="M0.582031 3.66623C0.582031 1.55937 2.51455 0.0273438 4.66536 0.0273438H11.332C13.4828 0.0273438 15.4154 1.55937 15.4154 3.66623V5.66623V9.44401C15.4154 11.5509 13.4828 13.0829 11.332 13.0829C10.9178 13.0829 10.582 12.7471 10.582 12.3329C10.582 11.9187 10.9178 11.5829 11.332 11.5829C12.8631 11.5829 13.9154 10.5281 13.9154 9.44401V6.41623H12.2209C11.8067 6.41623 11.4709 6.08045 11.4709 5.66623C11.4709 5.25202 11.8067 4.91623 12.2209 4.91623H13.9154V3.66623C13.9154 2.58212 12.8631 1.52734 11.332 1.52734H4.66536C3.13428 1.52734 2.08203 2.58212 2.08203 3.66623V4.91623H4.66536H5.33203H8.88759C9.3018 4.91623 9.63759 5.25202 9.63759 5.66623C9.63759 6.08045 9.3018 6.41623 8.88759 6.41623H6.08203V7.66623C6.08203 8.08045 5.74624 8.41623 5.33203 8.41623C4.91782 8.41623 4.58203 8.08045 4.58203 7.66623V6.41623H2.08203V9.44401C2.08203 10.5083 3.09623 11.5444 4.58203 11.5819V10.1107C4.58203 9.69646 4.91782 9.36068 5.33203 9.36068C5.74624 9.36068 6.08203 9.69646 6.08203 10.1107V11.5829H7.10981C7.25788 11.5829 7.40263 11.6267 7.52583 11.7089L10.1925 13.4866C10.5371 13.7164 10.6303 14.1821 10.4005 14.5267C10.1707 14.8713 9.7051 14.9645 9.36045 14.7347L6.88273 13.0829H5.33203H4.66536C2.51455 13.0829 0.582031 11.5509 0.582031 9.44401V5.66623V3.66623Z" fill="#7786A5"/>
</svg>
