<svg width="14" height="16" viewBox="0 0 14 16" fill="none" xmlns="http://www.w3.org/2000/svg">
<path fill-rule="evenodd" clip-rule="evenodd" d="M4 0.582031C4.41421 0.582031 4.75 0.917818 4.75 1.33203V1.58205H9.25V1.33203C9.25 0.917818 9.58579 0.582031 10 0.582031C10.4142 0.582031 10.75 0.917818 10.75 1.33203V1.72731C12.4794 2.20197 13.75 3.78529 13.75 5.66538V10.9987C13.75 13.2539 11.9218 15.082 9.66667 15.082H4.33333C2.07817 15.082 0.25 13.2539 0.25 10.9987V5.66538C0.25 3.78529 1.52063 2.20197 3.25 1.72731V1.33203C3.25 0.917818 3.58579 0.582031 4 0.582031ZM3.25 3.31949C2.58654 3.62639 2.07529 4.20645 1.86055 4.91538H12.1394C11.9247 4.20645 11.4135 3.62639 10.75 3.31949V3.33203C10.75 3.74624 10.4142 4.08203 10 4.08203C9.58579 4.08203 9.25 3.74624 9.25 3.33203V3.08205H4.75V3.33203C4.75 3.74624 4.41421 4.08203 4 4.08203C3.58579 4.08203 3.25 3.74624 3.25 3.33203V3.31949ZM12.25 6.41538H1.75V10.9987C1.75 12.4255 2.9066 13.582 4.33333 13.582H9.66667C11.0934 13.582 12.25 12.4255 12.25 10.9987V6.41538ZM2.58333 8.33205C2.58333 7.91784 2.91912 7.58205 3.33333 7.58205H4C4.41421 7.58205 4.75 7.91784 4.75 8.33205C4.75 8.74626 4.41421 9.08205 4 9.08205H3.33333C2.91912 9.08205 2.58333 8.74626 2.58333 8.33205ZM5.91667 8.33205C5.91667 7.91784 6.25245 7.58205 6.66667 7.58205H7.33333C7.74755 7.58205 8.08333 7.91784 8.08333 8.33205C8.08333 8.74626 7.74755 9.08205 7.33333 9.08205H6.66667C6.25245 9.08205 5.91667 8.74626 5.91667 8.33205ZM9.25 8.33205C9.25 7.91784 9.58579 7.58205 10 7.58205H10.6667C11.0809 7.58205 11.4167 7.91784 11.4167 8.33205C11.4167 8.74626 11.0809 9.08205 10.6667 9.08205H10C9.58579 9.08205 9.25 8.74626 9.25 8.33205ZM2.58333 10.9987C2.58333 10.5845 2.91912 10.2487 3.33333 10.2487H4C4.41421 10.2487 4.75 10.5845 4.75 10.9987C4.75 11.4129 4.41421 11.7487 4 11.7487H3.33333C2.91912 11.7487 2.58333 11.4129 2.58333 10.9987ZM5.91667 10.9987C5.91667 10.5845 6.25245 10.2487 6.66667 10.2487H7.33333C7.74755 10.2487 8.08333 10.5845 8.08333 10.9987C8.08333 11.4129 7.74755 11.7487 7.33333 11.7487H6.66667C6.25245 11.7487 5.91667 11.4129 5.91667 10.9987ZM9.25 10.9987C9.25 10.5845 9.58579 10.2487 10 10.2487H10.6667C11.0809 10.2487 11.4167 10.5845 11.4167 10.9987C11.4167 11.4129 11.0809 11.7487 10.6667 11.7487H10C9.58579 11.7487 9.25 11.4129 9.25 10.9987Z" fill="#7786A5"/>
</svg>
