<svg width="10" height="10" viewBox="0 0 10 10" fill="none" xmlns="http://www.w3.org/2000/svg">
<path fill-rule="evenodd" clip-rule="evenodd" d="M9.77352 0.227482C10.0664 0.520376 10.0664 0.995249 9.77352 1.28814L6.06111 5.00056L9.77342 8.71287C10.0663 9.00576 10.0663 9.48064 9.77342 9.77353C9.48053 10.0664 9.00566 10.0664 8.71276 9.77353L5.00045 6.06122L1.28824 9.77342C0.995349 10.0663 0.520476 10.0663 0.227582 9.77342C-0.0653107 9.48053 -0.0653114 9.00566 0.227582 8.71276L3.93979 5.00056L0.227482 1.28825C-0.0654108 0.995354 -0.0654108 0.520481 0.227482 0.227588C0.520375 -0.0653054 0.995249 -0.0653057 1.28814 0.227588L5.00045 3.9399L8.71286 0.227482C9.00576 -0.0654109 9.48063 -0.0654106 9.77352 0.227482Z" fill="#7786A5"/>
</svg>
