<svg width="14" height="15" viewBox="0 0 14 15" fill="none" xmlns="http://www.w3.org/2000/svg">
<path fillRule="evenodd" clipRule="evenodd" d="M11.2833 6.22265L7.09462 2.03396L8.07148 1.07349C8.84917 0.308838 10.1101 0.308838 10.8878 1.07349L12.2959 2.45801C13.0736 3.22266 13.0736 4.4624 12.2959 5.22705L11.2833 6.22265ZM0.00597398 12.4151L0.351748 9.27535C0.400632 8.83146 0.602346 8.41733 0.923446 8.10161L6.02499 3.08565L10.2137 7.27434L5.06573 12.3359C4.79543 12.6017 4.45306 12.7854 4.07949 12.865L1.20685 13.4773C0.542815 13.6188 -0.0671696 13.0793 0.00597398 12.4151ZM8.77558 12.6199C8.36136 12.6199 8.02558 12.9557 8.02558 13.3699C8.02558 13.7841 8.36136 14.1199 8.77558 14.1199H13C13.4142 14.1199 13.75 13.7841 13.75 13.3699C13.75 12.9557 13.4142 12.6199 13 12.6199H8.77558Z" fill="#3A465D"/>
</svg>
