<svg width="16" height="12" viewBox="0 0 16 12" fill="none" xmlns="http://www.w3.org/2000/svg">
<path fillRule="evenodd" clipRule="evenodd" d="M7.99998 2.25C5.43706 2.25 3.20653 3.67218 2.05846 5.77145C1.98051 5.91397 1.98051 6.08593 2.05846 6.22846C3.20651 8.32778 5.43707 9.75 8.00002 9.75C10.5629 9.75 12.7935 8.32782 13.9415 6.22855C14.0195 6.08603 14.0195 5.91407 13.9415 5.77154C12.7935 3.67223 10.5629 2.25 7.99998 2.25ZM0.742412 5.05171C2.14347 2.48986 4.86798 0.75 7.99998 0.75C11.132 0.75 13.8566 2.48991 15.2576 5.05183C15.5808 5.64283 15.5808 6.3573 15.2576 6.94829C13.8565 9.51014 11.132 11.25 8.00002 11.25C4.86798 11.25 2.14344 9.51009 0.742397 6.94817C0.419196 6.35717 0.419201 5.64271 0.742412 5.05171ZM8 4.5C7.17157 4.5 6.5 5.17157 6.5 6C6.5 6.82843 7.17157 7.5 8 7.5C8.82843 7.5 9.5 6.82843 9.5 6C9.5 5.17157 8.82843 4.5 8 4.5ZM5 6C5 4.34315 6.34315 3 8 3C9.65685 3 11 4.34315 11 6C11 7.65685 9.65685 9 8 9C6.34315 9 5 7.65685 5 6Z" fill="#7786A5"/>
</svg>
