<svg width="16" height="12" viewBox="0 0 16 12" fill="none" xmlns="http://www.w3.org/2000/svg">
<path d="M1.40043 6.58832C1.19985 6.22155 1.19986 5.77834 1.40044 5.41158C2.675 3.08102 5.15252 1.5 7.99998 1.5C10.8475 1.5 13.325 3.08107 14.5996 5.41169C14.8001 5.77845 14.8001 6.22166 14.5996 6.58842C13.325 8.91898 10.8475 10.5 8.00003 10.5C5.15252 10.5 2.67498 8.91893 1.40043 6.58832Z" stroke="#7786A5" stroke-width="1.5"/>
<path d="M10.25 6C10.25 7.24264 9.24264 8.25 8 8.25C6.75736 8.25 5.75 7.24264 5.75 6C5.75 4.75736 6.75736 3.75 8 3.75C9.24264 3.75 10.25 4.75736 10.25 6Z" stroke="#7786A5" stroke-width="1.5"/>
</svg>
