<svg width="14" height="18" viewBox="0 0 14 18" fill="none" xmlns="http://www.w3.org/2000/svg">
<path fill-rule="evenodd" clip-rule="evenodd" d="M4 2.25C2.75736 2.25 1.75 3.25736 1.75 4.5V13.5C1.75 14.7426 2.75736 15.75 4 15.75H10C11.2426 15.75 12.25 14.7426 12.25 13.5V6.75H10.75C9.50736 6.75 8.5 5.74264 8.5 4.5V2.25H4ZM10 3.57154V4.5C10 4.91421 10.3358 5.25 10.75 5.25H11.3987L10 3.57154ZM0.25 4.5C0.25 2.42893 1.92893 0.75 4 0.75H8.54744C9.21519 0.75 9.84845 1.0466 10.2759 1.55959L13.2285 5.10266C13.5655 5.50702 13.75 6.01672 13.75 6.54308V13.5C13.75 15.5711 12.0711 17.25 10 17.25H4C1.92893 17.25 0.25 15.5711 0.25 13.5V4.5ZM3.25 9C3.25 8.58579 3.58579 8.25 4 8.25H10C10.4142 8.25 10.75 8.58579 10.75 9C10.75 9.41421 10.4142 9.75 10 9.75H4C3.58579 9.75 3.25 9.41421 3.25 9ZM3.25 12.75C3.25 12.3358 3.58579 12 4 12H7C7.41421 12 7.75 12.3358 7.75 12.75C7.75 13.1642 7.41421 13.5 7 13.5H4C3.58579 13.5 3.25 13.1642 3.25 12.75Z" fill="white"/>
</svg>
