<svg width="14" height="14" viewBox="0 0 14 14" fill="none" xmlns="http://www.w3.org/2000/svg">
<path fill-rule="evenodd" clip-rule="evenodd" d="M13.3637 0.636643C13.7542 1.02717 13.7542 1.66033 13.3637 2.05086L8.41384 7.00074L13.3636 11.9505C13.7541 12.341 13.7541 12.9742 13.3636 13.3647C12.9731 13.7552 12.3399 13.7552 11.9494 13.3647L6.99962 8.41496L2.05001 13.3646C1.65949 13.7551 1.02632 13.7551 0.6358 13.3646C0.245275 12.974 0.245276 12.3409 0.6358 11.9504L5.58541 7.00074L0.635667 2.051C0.245142 1.66047 0.245143 1.02731 0.635667 0.636784C1.02619 0.246259 1.65936 0.246259 2.04988 0.636783L6.99962 5.58653L11.9495 0.636643C12.34 0.246119 12.9732 0.246119 13.3637 0.636643Z" fill="#7786A5"/>
</svg>
