<svg width="20" height="20" viewBox="0 0 20 20" fill="none" xmlns="http://www.w3.org/2000/svg">
<path fill-rule="evenodd" clip-rule="evenodd" d="M1.47266 4.44434C1.47266 4.03012 1.80844 3.69434 2.22266 3.69434C3.15968 3.69434 3.99543 4.12794 4.5402 4.80545H11.6671H15.4607C16.0054 4.12794 16.8412 3.69434 17.7782 3.69434C18.1924 3.69434 18.5282 4.03012 18.5282 4.44434C18.5282 4.85855 18.1924 5.19434 17.7782 5.19434C16.9651 5.19434 16.306 5.85347 16.306 6.66656V11.111C16.306 11.9241 16.9651 12.5832 17.7782 12.5832C18.1924 12.5832 18.5282 12.919 18.5282 13.3332C18.5282 13.7474 18.1924 14.0832 17.7782 14.0832C16.6023 14.0832 15.5859 13.4003 15.1039 12.4095C15.0701 12.4141 15.0355 12.4166 15.0004 12.4166H14.725C14.6172 12.4166 14.5099 12.4112 14.4035 12.4007L13.9994 13.4109C12.9938 15.9248 9.86455 16.7818 7.71844 15.1309L4.67546 12.7902C4.13987 13.571 3.24108 14.0832 2.22266 14.0832C1.80844 14.0832 1.47266 13.7474 1.47266 13.3332C1.47266 12.919 1.80844 12.5832 2.22266 12.5832C3.03574 12.5832 3.69488 11.9241 3.69488 11.111V6.66656C3.69488 5.85347 3.03574 5.19434 2.22266 5.19434C1.80844 5.19434 1.47266 4.85855 1.47266 4.44434ZM5.1894 11.293L8.63301 13.942C9.99075 14.9864 11.9705 14.4442 12.6067 12.8538L12.9834 11.9118C12.9109 11.8659 12.8399 11.817 12.7708 11.7652L12.4375 11.5152L12.8875 10.9152L12.4375 11.5152C11.9927 11.1816 11.3785 11.1912 10.9444 11.5386L10.5363 11.865C9.56088 12.6453 8.13331 12.4641 7.38383 11.4648C6.72313 10.5839 6.81073 9.35116 7.58938 8.57251L9.85644 6.30545H5.17316C5.1875 6.42381 5.19488 6.54432 5.19488 6.66656V11.111C5.19488 11.1721 5.19303 11.2328 5.1894 11.293ZM11.9778 6.30545L8.65004 9.63317C8.39923 9.88398 8.37101 10.281 8.58383 10.5648C8.82524 10.8867 9.28507 10.945 9.59926 10.6937L10.0073 10.3672C10.9757 9.59257 12.3455 9.57117 13.3375 10.3152L13.6708 10.5652C13.9749 10.7933 14.3448 10.9166 14.725 10.9166H14.806V6.66656C14.806 6.54432 14.8134 6.42381 14.8277 6.30545H11.9778Z" fill="#2A344A"/>
</svg>
