<svg width="20" height="20" viewBox="0 0 20 20" fill="none" xmlns="http://www.w3.org/2000/svg">
<path fill-rule="evenodd" clip-rule="evenodd" d="M0.917969 10.0003C0.917969 4.98374 4.98472 0.916992 10.0013 0.916992C15.0179 0.916992 19.0846 4.98374 19.0846 10.0003C19.0846 15.0169 15.0179 19.0837 10.0013 19.0837C4.98472 19.0837 0.917969 15.0169 0.917969 10.0003ZM10.0013 2.41699C5.81314 2.41699 2.41797 5.81217 2.41797 10.0003C2.41797 14.1885 5.81314 17.5837 10.0013 17.5837C14.1895 17.5837 17.5846 14.1885 17.5846 10.0003C17.5846 5.81217 14.1895 2.41699 10.0013 2.41699ZM13.5872 7.52555C13.8801 7.81844 13.8801 8.29332 13.5872 8.58621L9.97607 12.1973C9.68318 12.4902 9.20831 12.4902 8.91541 12.1973L7.10986 10.3918C6.81697 10.0989 6.81697 9.624 7.10986 9.33111C7.40275 9.03821 7.87763 9.03821 8.17052 9.33111L9.44574 10.6063L12.5265 7.52555C12.8194 7.23266 13.2943 7.23266 13.5872 7.52555Z" fill="#2A344A"/>
</svg>
