<svg width="14" height="14" viewBox="0 0 14 14" fill="none" xmlns="http://www.w3.org/2000/svg">
<path fill-rule="evenodd" clip-rule="evenodd" d="M11.2229 0.28891C11.4915 0.378941 11.6864 0.612606 11.7269 0.89297L11.8985 2.08321L13.1051 2.25396C13.3872 2.29388 13.6223 2.49017 13.7119 2.7606C13.8015 3.03102 13.7302 3.32888 13.5278 3.52938L11.2605 5.77548C11.0601 5.97398 10.7653 6.04327 10.4975 5.95484L9.42139 5.59951L7.22836 7.77197C6.93409 8.06348 6.45922 8.06124 6.16771 7.76697C5.8762 7.4727 5.87844 6.99783 6.17271 6.70632L8.36082 4.53874L8.00635 3.48531C7.9151 3.21413 7.98609 2.91466 8.18936 2.7133L10.4567 0.467196C10.658 0.267845 10.9544 0.198879 11.2229 0.28891ZM9.81229 4.14893L10.5313 4.38636L11.3985 3.52738L11.1314 3.48959C10.8014 3.44288 10.5417 3.18396 10.4942 2.85404L10.4547 2.58057L9.5771 3.44997L9.81229 4.14893ZM6.70054 2.4559C3.95975 2.4559 1.75 4.65504 1.75 7.35296C1.75 10.0509 3.95975 12.25 6.70054 12.25C9.44132 12.25 11.6511 10.0509 11.6511 7.35296C11.6511 6.93875 11.9869 6.60296 12.4011 6.60296C12.8153 6.60296 13.1511 6.93875 13.1511 7.35296C13.1511 10.8926 10.2564 13.75 6.70054 13.75C3.14468 13.75 0.25 10.8926 0.25 7.35296C0.25 3.81331 3.14468 0.955902 6.70054 0.955902C7.11475 0.955902 7.45054 1.29169 7.45054 1.7059C7.45054 2.12012 7.11475 2.4559 6.70054 2.4559ZM6.70054 5.27943C5.53391 5.27943 4.60027 6.21443 4.60027 7.35296C4.60027 8.49149 5.53391 9.42649 6.70054 9.42649C7.86716 9.42649 8.8008 8.49149 8.8008 7.35296C8.8008 6.93875 9.13659 6.60296 9.5508 6.60296C9.96502 6.60296 10.3008 6.93875 10.3008 7.35296C10.3008 9.33322 8.68223 10.9265 6.70054 10.9265C4.71884 10.9265 3.10027 9.33322 3.10027 7.35296C3.10027 5.37271 4.71884 3.77943 6.70054 3.77943C7.11475 3.77943 7.45054 4.11522 7.45054 4.52943C7.45054 4.94365 7.11475 5.27943 6.70054 5.27943Z" fill="#7786A5"/>
</svg>
