<svg width="14" height="14" viewBox="0 0 14 14" fill="none" xmlns="http://www.w3.org/2000/svg">
<path fillRule="evenodd" clipRule="evenodd" d="M7.43765 1.73019L8.8604 4.59669C8.93099 4.74135 9.06807 4.84169 9.22732 4.8656L12.4112 5.32702C12.5401 5.34394 12.6567 5.41219 12.7355 5.51602C12.8837 5.7091 12.8615 5.98444 12.6836 6.15127L10.3771 8.39127C10.2604 8.50035 10.2079 8.66252 10.2382 8.81885L10.7942 11.9764C10.8327 12.2389 10.6547 12.4828 10.394 12.5259C10.2855 12.5429 10.1747 12.5254 10.0772 12.4764L7.23757 10.9883C7.09524 10.9107 6.92374 10.9107 6.78199 10.9883L3.92365 12.4869C3.68507 12.607 3.39574 12.5166 3.26624 12.2844C3.21665 12.1905 3.19857 12.082 3.21607 11.9764L3.77199 8.81885C3.79882 8.66252 3.7469 8.5021 3.63315 8.39127L1.30857 6.15069C1.11899 5.96169 1.1184 5.65485 1.3074 5.46469L1.30857 5.46352C1.38615 5.39294 1.4824 5.3451 1.58624 5.32702L4.77007 4.8656C4.92815 4.83994 5.06524 4.7396 5.13699 4.59669L6.55973 1.73019C6.61632 1.61352 6.71782 1.52427 6.8409 1.48344C6.96399 1.44202 7.09874 1.45135 7.2154 1.51027C7.31107 1.5581 7.38865 1.6351 7.43765 1.73019Z" fill="#7786A5"/>
</svg>
