<svg width="16" height="16" viewBox="0 0 16 16" fill="none" xmlns="http://www.w3.org/2000/svg">
<path fill-rule="evenodd" clip-rule="evenodd" d="M9.18895 2.89278C8.49261 2.34303 7.50999 2.34303 6.81365 2.89278L3.14698 5.78751C2.68658 6.15099 2.41797 6.70528 2.41797 7.29187V11.6663C2.41797 12.7248 3.27609 13.5829 4.33464 13.5829H5.2513V11.6663C5.2513 10.5157 6.18404 9.58293 7.33464 9.58293H8.66797C9.81856 9.58293 10.7513 10.5157 10.7513 11.6663V13.5829H11.668C12.7265 13.5829 13.5846 12.7248 13.5846 11.6663V7.29187C13.5846 6.70528 13.316 6.15099 12.8556 5.78752L9.18895 2.89278ZM5.88419 1.71545C7.12549 0.735473 8.87711 0.735475 10.1184 1.71545L13.7851 4.61019C14.6058 5.25813 15.0846 6.24621 15.0846 7.29187V11.6663C15.0846 13.5532 13.5549 15.0829 11.668 15.0829H10.668C9.88556 15.0829 9.2513 14.4487 9.2513 13.6663V11.6663C9.2513 11.3441 8.99013 11.0829 8.66797 11.0829H7.33464C7.01247 11.0829 6.7513 11.3441 6.7513 11.6663V13.6663C6.7513 14.4487 6.11704 15.0829 5.33464 15.0829H4.33464C2.44766 15.0829 0.917969 13.5532 0.917969 11.6663V7.29187C0.917969 6.24621 1.3968 5.25813 2.21752 4.61019L5.88418 1.71545L6.34892 2.30411L5.88419 1.71545Z" fill="#7786A5"/>
</svg>
