<svg width="15" height="16" viewBox="0 0 15 16" fill="none" xmlns="http://www.w3.org/2000/svg">
<path fill-rule="evenodd" clip-rule="evenodd" d="M9.93061 0.3125L9.931 0.3125C11.1434 0.3125 12.195 0.713513 12.9428 1.48524C13.6877 2.25405 14.0613 3.31858 14.0613 4.51775V11.4148C14.0613 12.6084 13.6904 13.6681 12.9516 14.4356C12.2101 15.2061 11.1668 15.6103 9.96337 15.6177L9.95875 15.6178L9.95441 15.6178L9.94164 15.6178L9.89267 15.6178L9.70845 15.6178L9.05387 15.6181L7.07201 15.6189L5.09198 15.6196L4.43968 15.6199L4.25695 15.62L4.20881 15.62L4.19647 15.62L4.19334 15.62H4.19256H4.19236L4.192 14.87L4.19229 15.62H4.192C2.97956 15.62 1.92808 15.219 1.18053 14.4472C0.435821 13.6783 0.0625 12.6138 0.0625 11.4148V4.51775C0.0625 3.32425 0.433143 2.26467 1.17175 1.49726C1.91314 0.726946 2.95631 0.322926 4.15963 0.315514L4.16425 0.315486V0.3155L4.16847 0.315498L4.1812 0.315492L4.23011 0.315467L4.41424 0.315371L5.06871 0.315031L7.05061 0.314L9.03082 0.312969L9.68319 0.312629L9.86594 0.312534L9.91409 0.312509L9.92644 0.312502L9.92956 0.312501L9.93035 0.3125L9.93054 0.3125L9.931 1.0625L9.93061 0.3125ZM9.93132 1.8125C9.93129 1.8125 9.93125 1.8125 9.93122 1.8125L9.93113 1.8125L9.931 1.8125L9.93034 1.8125L9.92722 1.8125L9.91487 1.81251L9.86673 1.81253L9.68397 1.81263L9.0316 1.81297L7.05139 1.814L4.16686 1.8155C3.30121 1.82126 2.66917 2.10451 2.2525 2.53743C1.83273 2.97358 1.5625 3.63375 1.5625 4.51775V11.4148C1.5625 12.3037 1.83493 12.9668 2.25797 13.4036C2.67817 13.8374 3.31644 14.12 4.192 14.12H4.19276L4.19588 14.12L4.20822 14.12L4.25636 14.12L4.4391 14.1199L5.09139 14.1196L7.07143 14.1189L9.95413 14.1178C9.95482 14.1178 9.95551 14.1178 9.9562 14.1178C10.8217 14.112 11.454 13.8286 11.8709 13.3954C12.2909 12.959 12.5613 12.2986 12.5613 11.4148V4.51775C12.5613 3.62893 12.2887 2.96582 11.8655 2.52901C11.4451 2.09517 10.8067 1.81257 9.93132 1.8125ZM3.62181 4.89478C3.62181 4.48056 3.95759 4.14478 4.37181 4.14478H6.43806C6.85227 4.14478 7.18806 4.48056 7.18806 4.89478C7.18806 5.30899 6.85227 5.64478 6.43806 5.64478H4.37181C3.95759 5.64478 3.62181 5.30899 3.62181 4.89478ZM3.62172 8.02763C3.62172 7.61341 3.95751 7.27763 4.37172 7.27763H9.78672C10.2009 7.27763 10.5367 7.61341 10.5367 8.02763C10.5367 8.44184 10.2009 8.77763 9.78672 8.77763H4.37172C3.95751 8.77763 3.62172 8.44184 3.62172 8.02763ZM3.62172 11.1674C3.62172 10.7532 3.95751 10.4174 4.37172 10.4174H9.78672C10.2009 10.4174 10.5367 10.7532 10.5367 11.1674C10.5367 11.5816 10.2009 11.9174 9.78672 11.9174H4.37172C3.95751 11.9174 3.62172 11.5816 3.62172 11.1674Z" fill="#D5DAF1"/>
</svg>
