<svg width="14" height="14" viewBox="0 0 14 14" fill="none" xmlns="http://www.w3.org/2000/svg">
<path fill-rule="evenodd" clip-rule="evenodd" d="M8.80039 0.699219C10.0004 0.699219 11.1254 1.22422 11.9504 2.04922C12.7754 2.87422 13.3004 3.99922 13.3004 5.27422C13.3004 6.47422 12.7754 7.59922 11.9504 8.42422C10.8254 9.54922 9.17539 9.99922 7.60039 9.54922L4.00039 13.1492C3.92539 13.2992 3.70039 13.3742 3.55039 13.3742L1.22539 13.5992H1.15039C0.92539 13.5992 0.775391 13.5242 0.625391 13.3742C0.475391 13.2242 0.400391 12.9992 0.400391 12.7742L0.625391 10.4492C0.625391 10.2992 0.700391 10.1492 0.850391 9.99922L4.45039 6.39922C4.00039 4.82422 4.45039 3.17422 5.65039 2.04922C6.47539 1.14922 7.60039 0.699219 8.80039 0.699219ZM7.97539 8.12422C9.02539 8.42422 10.1504 8.12422 10.9004 7.37422C11.4254 6.77422 11.8004 6.02422 11.8004 5.12422C11.8004 4.37422 11.5004 3.62422 10.9004 3.02422C9.70039 1.89922 7.75039 1.89922 6.62539 3.02422C5.87539 3.77422 5.57539 4.89922 5.87539 5.94922V6.02422C5.87539 6.06172 5.89414 6.09922 5.91289 6.13672C5.93164 6.17422 5.95039 6.21172 5.95039 6.24922C6.10039 6.47422 6.02539 6.84922 5.80039 7.07422L2.05039 10.8242L1.97539 12.0242L3.17539 11.9492L6.92539 8.19922C7.15039 7.97422 7.45039 7.89922 7.75039 8.04922C7.78789 8.04922 7.82539 8.06797 7.86289 8.08672C7.90039 8.10547 7.93789 8.12422 7.97539 8.12422ZM10.3754 4.37422C10.3754 4.78843 10.0396 5.12422 9.62539 5.12422C9.21118 5.12422 8.87539 4.78843 8.87539 4.37422C8.87539 3.96001 9.21118 3.62422 9.62539 3.62422C10.0396 3.62422 10.3754 3.96001 10.3754 4.37422Z" fill="white"/>
</svg>
