<svg width="16" height="12" viewBox="0 0 16 12" fill="none" xmlns="http://www.w3.org/2000/svg">
<path fillRule="evenodd" clipRule="evenodd" d="M1.5875 0.599609C1.09044 0.599609 0.6875 1.00255 0.6875 1.49961C0.6875 1.99667 1.09044 2.39961 1.5875 2.39961H1.6625C2.15956 2.39961 2.5625 1.99667 2.5625 1.49961C2.5625 1.00255 2.15956 0.599609 1.6625 0.599609H1.5875ZM1.5875 5.09961C1.09044 5.09961 0.6875 5.50255 0.6875 5.99961C0.6875 6.49667 1.09044 6.89961 1.5875 6.89961H1.6625C2.15956 6.89961 2.5625 6.49667 2.5625 5.99961C2.5625 5.50255 2.15956 5.09961 1.6625 5.09961H1.5875ZM0.6875 10.4996C0.6875 10.0026 1.09044 9.59961 1.5875 9.59961H1.6625C2.15956 9.59961 2.5625 10.0026 2.5625 10.4996C2.5625 10.9967 2.15956 11.3996 1.6625 11.3996H1.5875C1.09044 11.3996 0.6875 10.9967 0.6875 10.4996ZM5.75 0.749609C5.33579 0.749609 5 1.0854 5 1.49961C5 1.91382 5.33579 2.24961 5.75 2.24961H14.75C15.1642 2.24961 15.5 1.91382 15.5 1.49961C15.5 1.0854 15.1642 0.749609 14.75 0.749609H5.75ZM5.75 5.24961C5.33579 5.24961 5 5.5854 5 5.99961C5 6.41382 5.33579 6.74961 5.75 6.74961H14.75C15.1642 6.74961 15.5 6.41382 15.5 5.99961C15.5 5.5854 15.1642 5.24961 14.75 5.24961H5.75ZM5.75 9.74961C5.33579 9.74961 5 10.0854 5 10.4996C5 10.9138 5.33579 11.2496 5.75 11.2496H14.75C15.1642 11.2496 15.5 10.9138 15.5 10.4996C15.5 10.0854 15.1642 9.74961 14.75 9.74961H5.75Z" fill="white"/>
</svg>
