<svg width="14" height="4" viewBox="0 0 14 4" fill="none" xmlns="http://www.w3.org/2000/svg">
<path d="M3.00065 1.9987C3.00065 2.73508 2.4037 3.33203 1.66732 3.33203C0.930938 3.33203 0.333984 2.73508 0.333984 1.9987C0.333984 1.26232 0.930938 0.665365 1.66732 0.665365C2.4037 0.665365 3.00065 1.26232 3.00065 1.9987Z" fill="#2A344A"/>
<path d="M8.33398 1.9987C8.33398 2.73508 7.73703 3.33203 7.00065 3.33203C6.26427 3.33203 5.66732 2.73508 5.66732 1.9987C5.66732 1.26232 6.26427 0.665365 7.00065 0.665365C7.73703 0.665365 8.33398 1.26232 8.33398 1.9987Z" fill="#2A344A"/>
<path d="M13.6673 1.9987C13.6673 2.73508 13.0704 3.33203 12.334 3.33203C11.5976 3.33203 11.0007 2.73508 11.0007 1.9987C11.0007 1.26232 11.5976 0.665365 12.334 0.665365C13.0704 0.665365 13.6673 1.26232 13.6673 1.9987Z" fill="#2A344A"/>
</svg>
