<svg width="16" height="16" viewBox="0 0 16 16" fill="none" xmlns="http://www.w3.org/2000/svg">
<path fillRule="evenodd" clipRule="evenodd" d="M9.3942 2.18128C8.57675 1.53593 7.42325 1.53593 6.6058 2.18128L2.4808 5.43786C1.94033 5.86455 1.625 6.51524 1.625 7.20384V12.125C1.625 13.3677 2.63236 14.375 3.875 14.375H5V12.125C5 10.8824 6.00736 9.87504 7.25 9.87504H8.75C9.99264 9.87504 11 10.8824 11 12.125V14.375H12.125C13.3676 14.375 14.375 13.3677 14.375 12.125V7.20384C14.375 6.51524 14.0597 5.86455 13.5192 5.43786L9.3942 2.18128ZM5.67634 1.00395C7.03874 -0.0716319 8.96126 -0.0716299 10.3237 1.00396L14.4487 4.26054C15.3495 4.97169 15.875 6.05617 15.875 7.20384V12.125C15.875 14.1961 14.1961 15.875 12.125 15.875H11C10.1716 15.875 9.5 15.2035 9.5 14.375V12.125C9.5 11.7108 9.16421 11.375 8.75 11.375H7.25C6.83579 11.375 6.5 11.7108 6.5 12.125V14.375C6.5 15.2035 5.82843 15.875 5 15.875H3.875C1.80393 15.875 0.125 14.1961 0.125 12.125V7.20384C0.125 6.05617 0.650543 4.97169 1.55133 4.26053L5.67634 1.00395Z" fill="white"/>
</svg>
