<svg width="14" height="4" viewBox="0 0 14 4" fill="none" xmlns="http://www.w3.org/2000/svg">
<path d="M3.00065 1.99967C3.00065 2.73605 2.4037 3.33301 1.66732 3.33301C0.930938 3.33301 0.333984 2.73605 0.333984 1.99967C0.333984 1.26329 0.930938 0.666341 1.66732 0.666341C2.4037 0.666341 3.00065 1.26329 3.00065 1.99967Z" fill="#2A344A"/>
<path d="M8.33398 1.99967C8.33398 2.73605 7.73703 3.33301 7.00065 3.33301C6.26427 3.33301 5.66732 2.73605 5.66732 1.99967C5.66732 1.26329 6.26427 0.666341 7.00065 0.666341C7.73703 0.666341 8.33398 1.26329 8.33398 1.99967Z" fill="#2A344A"/>
<path d="M13.6673 1.99967C13.6673 2.73605 13.0704 3.33301 12.334 3.33301C11.5976 3.33301 11.0007 2.73605 11.0007 1.99967C11.0007 1.26329 11.5976 0.666341 12.334 0.666341C13.0704 0.666341 13.6673 1.26329 13.6673 1.99967Z" fill="#2A344A"/>
</svg>
