<svg width="14" height="14" viewBox="0 0 14 14" fill="none" xmlns="http://www.w3.org/2000/svg">
<path fill-rule="evenodd" clip-rule="evenodd" d="M13.3647 0.636643C13.7552 1.02717 13.7552 1.66033 13.3647 2.05086L8.41481 7.00074L13.3646 11.9505C13.7551 12.341 13.7551 12.9742 13.3646 13.3647C12.974 13.7552 12.3409 13.7552 11.9504 13.3647L7.0006 8.41496L2.05099 13.3646C1.66047 13.7551 1.0273 13.7551 0.636776 13.3646C0.246252 12.974 0.246252 12.3409 0.636776 11.9504L5.58639 7.00074L0.636643 2.051C0.246119 1.66047 0.246119 1.02731 0.636643 0.636784C1.02717 0.246259 1.66033 0.246259 2.05086 0.636783L7.0006 5.58653L11.9505 0.636643C12.341 0.246119 12.9742 0.246119 13.3647 0.636643Z" fill="#7786A5"/>
</svg>
