<svg width="4" height="14" viewBox="0 0 4 14" fill="none" xmlns="http://www.w3.org/2000/svg">
<path d="M1.99935 2.99967C1.26297 2.99967 0.666016 2.40272 0.666016 1.66634C0.666016 0.929961 1.26297 0.333008 1.99935 0.333008C2.73573 0.333008 3.33268 0.929961 3.33268 1.66634C3.33268 2.40272 2.73573 2.99967 1.99935 2.99967Z" fill="#2A344A"/>
<path d="M1.99935 8.33301C1.26297 8.33301 0.666016 7.73605 0.666016 6.99967C0.666016 6.26329 1.26297 5.66634 1.99935 5.66634C2.73573 5.66634 3.33268 6.26329 3.33268 6.99967C3.33268 7.73605 2.73573 8.33301 1.99935 8.33301Z" fill="#2A344A"/>
<path d="M1.99935 13.6663C1.26297 13.6663 0.666016 13.0694 0.666016 12.333C0.666016 11.5966 1.26297 10.9997 1.99935 10.9997C2.73573 10.9997 3.33268 11.5966 3.33268 12.333C3.33268 13.0694 2.73573 13.6663 1.99935 13.6663Z" fill="#2A344A"/>
</svg>
