<svg width="22" height="22" viewBox="0 0 22 22" fill="none" xmlns="http://www.w3.org/2000/svg">
<path fill-rule="evenodd" clip-rule="evenodd" d="M9.19622 0.840503C8.38492 0.495115 7.58109 0.152906 6.84931 0.440844C6.7215 0.491135 6.59482 0.54368 6.46932 0.59843C5.74889 0.912727 5.42245 1.72275 5.09301 2.54023C4.84673 3.15133 4.59878 3.76661 4.18331 4.18208C3.76782 4.59757 3.15251 4.84552 2.54138 5.09179C1.72388 5.42122 0.913844 5.74764 0.599525 6.46807C0.54473 6.59366 0.492144 6.72043 0.441815 6.84834C0.153877 7.58012 0.496087 8.38395 0.841475 9.19525C1.09959 9.80153 1.35947 10.412 1.35947 10.9997C1.35947 11.5873 1.09959 12.1978 0.841474 12.8041C0.496085 13.6154 0.153875 14.4192 0.441812 15.151C0.492098 15.2788 0.544638 15.4055 0.599382 15.5309C0.913688 16.2514 1.72377 16.5778 2.54132 16.9073C3.15247 17.1536 3.7678 17.4015 4.1833 17.817C4.5988 18.2325 4.84675 18.8478 5.09302 19.459C5.42245 20.2765 5.74888 21.0866 6.46934 21.4009C6.59484 21.4557 6.72153 21.5082 6.84934 21.5585C7.58113 21.8464 8.38495 21.5042 9.19624 21.1588C9.80253 20.9007 10.413 20.6408 11.0007 20.6408C11.5883 20.6408 12.1988 20.9007 12.8051 21.1588C13.6164 21.5042 14.4202 21.8464 15.152 21.5585C15.2798 21.5082 15.4064 21.4557 15.5319 21.401C16.2524 21.0866 16.5788 20.2764 16.9082 19.4587C17.1545 18.8474 17.4024 18.2319 17.818 17.8164C18.2335 17.4008 18.8489 17.1529 19.4601 16.9066C20.2778 16.5772 21.088 16.2507 21.4023 15.5302C21.4569 15.4049 21.5093 15.2785 21.5595 15.151C21.8474 14.4192 21.5052 13.6154 21.1598 12.8041C20.9017 12.1978 20.6418 11.5873 20.6418 10.9997C20.6418 10.412 20.9017 9.80154 21.1598 9.19525C21.5052 8.38396 21.8474 7.58013 21.5595 6.84835C21.5091 6.72033 21.4565 6.59344 21.4016 6.46774C21.0873 5.74735 20.2773 5.42094 19.4599 5.09152C18.8487 4.84525 18.2335 4.59731 17.818 4.18183C17.4025 3.76638 17.1546 3.15116 16.9083 2.54012C16.5789 1.72269 16.2524 0.912728 15.532 0.59844C15.4065 0.543684 15.2798 0.491132 15.152 0.440835C14.4202 0.152899 13.6164 0.495109 12.8051 0.840499C12.1988 1.09861 11.5883 1.3585 11.0006 1.3585C10.413 1.3585 9.8025 1.09861 9.19622 0.840503ZM15.0139 9.73295C15.4189 9.35743 15.4428 8.72471 15.0673 8.31974C14.6917 7.91477 14.059 7.89089 13.654 8.26641L10.0203 11.6359L8.34726 10.0846C7.94229 9.70907 7.30957 9.73295 6.93405 10.1379C6.55853 10.5429 6.58241 11.1756 6.98738 11.5511L9.34032 13.7329C9.72386 14.0886 10.3167 14.0886 10.7002 13.7329L15.0139 9.73295Z" fill="#0AB258"/>
</svg>
