<svg width="12" height="15" viewBox="0 0 12 15" fill="none" xmlns="http://www.w3.org/2000/svg">
<path fill-rule="evenodd" clip-rule="evenodd" d="M2.25 4.25C2.25 2.17893 3.92893 0.5 6 0.5C8.07107 0.5 9.75 2.17893 9.75 4.25C9.75 6.32107 8.07107 8 6 8C3.92893 8 2.25 6.32107 2.25 4.25ZM6 2C4.75736 2 3.75 3.00736 3.75 4.25C3.75 5.49264 4.75736 6.5 6 6.5C7.24264 6.5 8.25 5.49264 8.25 4.25C8.25 3.00736 7.24264 2 6 2ZM2.01557 10.9694C1.70639 11.0798 1.5 11.3727 1.5 11.701V12.6876C1.5 13.1218 1.88454 13.4553 2.31434 13.3939L3.03015 13.2916C5.00005 13.0102 6.99995 13.0102 8.96985 13.2916L9.68566 13.3939C10.1155 13.4553 10.5 13.1218 10.5 12.6876V11.701C10.5 11.3727 10.2936 11.0798 9.98443 10.9694C7.40784 10.0492 4.59216 10.0492 2.01557 10.9694ZM1.51107 9.55679C4.4139 8.52007 7.5861 8.52007 10.4889 9.55679C11.3951 9.88043 12 10.7388 12 11.701V12.6876C12 14.0346 10.807 15.0693 9.47353 14.8788L8.75771 14.7766C6.92852 14.5153 5.07148 14.5153 3.24228 14.7766L2.52647 14.8788C1.19302 15.0693 0 14.0346 0 12.6876V11.701C0 10.7388 0.604894 9.88043 1.51107 9.55679Z" fill="white"/>
</svg>
