<svg width="18" height="18" viewBox="0 0 18 18" fill="none" xmlns="http://www.w3.org/2000/svg">
<path fill-rule="evenodd" clip-rule="evenodd" d="M9 4.25C9.41421 4.25 9.75 4.58579 9.75 5V8.2501H13C13.4142 8.2501 13.75 8.58588 13.75 9.0001C13.75 9.41431 13.4142 9.7501 13 9.7501H9.75V13C9.75 13.4142 9.41421 13.75 9 13.75C8.58578 13.75 8.25 13.4142 8.25 13V9.7501H5C4.58579 9.7501 4.25 9.41431 4.25 9.0001C4.25 8.58588 4.58579 8.2501 5 8.2501H8.25V5C8.25 4.58579 8.58578 4.25 9 4.25Z" fill="#4E6AF3"/>
</svg>
