<svg width="14" height="8" viewBox="0 0 14 8" fill="none" xmlns="http://www.w3.org/2000/svg">
<path fillRule="evenodd" clipRule="evenodd" d="M9.53033 0.802678C9.82322 1.09557 9.82322 1.57044 9.53033 1.86334L4.19699 7.19667C4.05634 7.33732 3.86558 7.41634 3.66666 7.41634C3.46775 7.41634 3.27699 7.33732 3.13633 7.19667L0.46967 4.53001C0.176777 4.23711 0.176777 3.76224 0.46967 3.46935C0.762563 3.17645 1.23744 3.17645 1.53033 3.46935L3.66666 5.60568L8.46967 0.802678C8.76256 0.509784 9.23744 0.509785 9.53033 0.802678ZM13.5297 0.802678C13.8226 1.09557 13.8226 1.57044 13.5297 1.86334L8.19635 7.19667C7.90345 7.48957 7.42858 7.48957 7.13568 7.19667C6.84279 6.90378 6.84279 6.42891 7.13569 6.13601L12.469 0.802678C12.7619 0.509784 13.2368 0.509785 13.5297 0.802678Z" fill="#4E6AF3"/>
</svg>
