<svg width="16" height="16" viewBox="0 0 16 16" fill="none" xmlns="http://www.w3.org/2000/svg">
<path fill-rule="evenodd" clip-rule="evenodd" d="M0.582031 4.66536C0.582031 2.4102 2.4102 0.582031 4.66536 0.582031H11.332C13.5872 0.582031 15.4154 2.4102 15.4154 4.66536V11.332C15.4154 13.5872 13.5872 15.4154 11.332 15.4154H4.66536C2.4102 15.4154 0.582031 13.5872 0.582031 11.332V4.66536ZM4.66536 2.08203C3.23863 2.08203 2.08203 3.23863 2.08203 4.66536V11.332C2.08203 12.7588 3.23863 13.9154 4.66536 13.9154H11.332C12.7588 13.9154 13.9154 12.7588 13.9154 11.332V4.66536C13.9154 3.23863 12.7588 2.08203 11.332 2.08203H4.66536ZM8.67089 4.44314C8.67089 4.02893 9.00668 3.69314 9.42089 3.69314H11.092C11.7615 3.69314 12.3043 4.23585 12.3043 4.90536V6.57644C12.3043 6.99066 11.9685 7.32644 11.5543 7.32644C11.14 7.32644 10.8043 6.99066 10.8043 6.57644V6.25377L9.60549 7.4525C9.60227 7.45585 9.59901 7.45917 9.59571 7.46246L6.25386 10.8043H6.57651C6.99072 10.8043 7.32651 11.14 7.32651 11.5543C7.32651 11.9685 6.99072 12.3043 6.57651 12.3043H4.90537C4.2359 12.3043 3.69314 11.7615 3.69314 11.092V9.42095C3.69314 9.00674 4.02893 8.67095 4.44314 8.67095C4.85736 8.67095 5.19314 9.00674 5.19314 9.42095V9.74365L8.16952 6.76732C8.17279 6.76393 8.1761 6.76057 8.17944 6.75722L9.74357 5.19314H9.42089C9.00668 5.19314 8.67089 4.85736 8.67089 4.44314Z" fill="#7786A5"/>
</svg>
