<svg width="24" height="25" viewBox="0 0 24 25" fill="none" xmlns="http://www.w3.org/2000/svg">
<path fillRule="evenodd" clipRule="evenodd" d="M12.7514 3.46659L15.1904 8.38059C15.3114 8.62859 15.5464 8.80059 15.8194 8.84159L21.2774 9.63259C21.4984 9.66159 21.6984 9.77859 21.8334 9.95659C22.0874 10.2876 22.0494 10.7596 21.7444 11.0456L17.7904 14.8856C17.5904 15.0726 17.5004 15.3506 17.5524 15.6186L18.5054 21.0316C18.5714 21.4816 18.2664 21.8996 17.8194 21.9736C17.6334 22.0026 17.4434 21.9726 17.2764 21.8886L12.4084 19.3376C12.1644 19.2046 11.8704 19.2046 11.6274 19.3376L6.72738 21.9066C6.31838 22.1126 5.82238 21.9576 5.60038 21.5596C5.51538 21.3986 5.48438 21.2126 5.51438 21.0316L6.46738 15.6186C6.51338 15.3506 6.42438 15.0756 6.22938 14.8856L2.24438 11.0446C1.91938 10.7206 1.91838 10.1946 2.24238 9.86859L2.24438 9.86659C2.37738 9.74559 2.54238 9.66359 2.72038 9.63259L8.17838 8.84159C8.44938 8.79759 8.68438 8.62559 8.80738 8.38059L11.2464 3.46659C11.3434 3.26659 11.5174 3.11359 11.7284 3.04359C11.9394 2.97259 12.1704 2.98859 12.3704 3.08959C12.5344 3.17159 12.6674 3.30359 12.7514 3.46659Z" fill="#FFD64C"/>
</svg>
