<svg width="86" height="86" viewBox="0 0 86 86" fill="none" xmlns="http://www.w3.org/2000/svg">
<path d="M49.3075 20.0484L43.8403 51.1018L22.1904 33.8256M43.403 14.8L24.3773 21.3605M22.4091 18.7363L26.3455 13.4878M37.9358 8.67676L43.1843 9.98887M59.367 13.9252L65.7089 15.2373" stroke="#4E6AF3"/>
<path d="M45.3722 50.8877L42.5293 51.5438L44.2788 54.3867H44.4975L44.7162 54.6054L44.9348 54.824H45.3722L45.5909 55.2614L45.8096 55.0427L46.0283 55.4801L46.4656 56.1362L46.903 55.6988L47.1217 55.2614L48.8712 56.3548V55.9175L45.3722 50.8877Z" fill="#4E6AF3"/>
<path d="M79.1399 53.3117C78.8031 48.6209 75.7722 45.5225 73.256 43.7521C72.1963 42.9686 71.0277 42.3445 69.7872 41.8998C69.8083 41.2015 69.6079 40.5144 69.2146 39.9369C68.57 38.9747 67.4875 38.3781 66.0008 38.1808C63.4413 37.8344 63.4558 37.8007 63.4798 37.6997C63.5905 37.1079 63.8936 36.5739 64.0427 35.9485C65.1012 31.402 62.6523 29.0205 62.6523 28.9339C62.6523 28.7655 61.4784 27.2981 59.2846 27.0576L59.5059 26.6246C59.7524 26.6565 60.003 26.6272 60.2355 26.539C60.468 26.4509 60.6751 26.3068 60.8385 26.1194C61.047 25.8305 61.1895 25.4994 61.256 25.1494C61.3225 24.7995 61.3114 24.4392 61.2234 24.0939C60.9684 23.1317 59.8715 23.0788 58.943 23.1317C57.5959 23.2328 57.0185 24.9215 57.0666 26.0184C57.0426 26.2541 57.0378 26.4995 57.0041 26.6871C56.9698 26.8728 56.9521 27.0612 56.9512 27.25C55.1759 27.7744 52.5586 29.6026 52.5057 32.5422C52.5086 32.5705 52.5179 32.5978 52.533 32.622C52.548 32.6461 52.5683 32.6666 52.5923 32.6817C52.727 34.255 53.5064 38.7004 55.5608 40.9424C55.9613 41.3196 56.4834 41.5414 57.033 41.5678C56.7632 41.7607 56.5709 42.0434 56.4907 42.3652C56.4105 42.687 56.4475 43.0269 56.5951 43.3239C53.7325 44.9741 48.8974 50.0113 47.5503 53.2684C47.0137 52.3878 46.4123 51.5483 45.751 50.757C45.5104 50.5501 44.9234 50.5742 43.9516 50.8436L49.4266 20.3702C51.5891 20.8321 53.8465 20.4257 55.7122 19.2386C57.5778 18.0515 58.9023 16.1789 59.4 14.0243L65.4427 15.2223C64.7841 16.5908 64.5884 18.1363 64.8851 19.6258C65.1818 21.1152 65.9549 22.4677 67.0877 23.4793C68.2205 24.4909 69.6515 25.1067 71.1649 25.2337C72.6783 25.3607 74.1919 24.9921 75.4775 24.1835C76.763 23.3749 77.7507 22.1701 78.2916 20.751C78.8324 19.3318 78.897 17.7753 78.4757 16.3162C78.0544 14.8571 77.17 13.5745 75.9559 12.6621C74.7419 11.7497 73.264 11.2569 71.7453 11.258C70.4883 11.2611 69.2554 11.6032 68.1767 12.2485C67.0979 12.8937 66.0401 14.1163 65.4427 15.2223C65.4427 15.2223 65.4126 15.2163 59.4 14.0243C60.0236 11.9577 59.5256 9.32148 58.3558 7.47975C57.1861 5.63802 55.3457 4.32366 53.2241 3.81482C51.1024 3.30598 48.8661 3.64258 46.9882 4.75339C45.1104 5.8642 43.6222 7.58401 43.0712 10.0985L38.0195 8.89571C38.8578 3.92585 35.181 0 30.8029 0C26.7664 0 23.4756 3.40144 23.4756 7.58228C23.4714 8.6906 23.7075 9.78665 24.1677 10.7949C24.6278 11.8032 25.301 12.6998 26.1409 13.4229L22.3258 18.4746C15.417 11.5851 3.5625 16.5069 3.5625 26.2589C3.5625 36.011 15.4555 40.9135 22.345 34.0144L43.9516 50.8436C43.4416 51.0072 42.5179 51.3007 42.4072 51.3488C41.854 51.5605 43.5667 53.5426 44.1344 54.553C44.1362 54.5611 44.1397 54.5687 44.1447 54.5754C44.1496 54.582 44.156 54.5875 44.1633 54.5915C44.1633 54.6684 44.1248 54.7695 44.1104 54.8657C43.9372 54.6588 43.6293 54.3846 43.4128 54.5915C43.1963 54.7983 43.3165 55.2891 43.4416 55.4959C43.7342 55.8894 43.9736 56.3197 44.1537 56.7757C44.1603 56.7971 44.1714 56.8167 44.1864 56.8333C44.2013 56.85 44.2197 56.8631 44.2403 56.8719C44.2547 57.0073 44.2962 57.1384 44.3623 57.2574C44.4284 57.3764 44.5178 57.4809 44.6252 57.5647C44.8465 64.0404 48.7579 65.1566 50.0569 65.3442C49.927 72.0798 51.2789 83.6264 52.0487 84.9927C52.0607 85.0136 52.0767 85.0319 52.0957 85.0465C52.1148 85.0612 52.1366 85.072 52.1598 85.0782C52.183 85.0845 52.2073 85.0861 52.2311 85.083C52.255 85.0799 52.278 85.0721 52.2988 85.0601C52.3197 85.0481 52.338 85.0321 52.3526 85.013C52.3673 84.994 52.3781 84.9722 52.3843 84.9489C52.3906 84.9257 52.3922 84.9015 52.3891 84.8776C52.386 84.8538 52.3782 84.8308 52.3662 84.8099C52.1064 84.3577 51.7023 82.26 51.3318 79.4504C52.6356 80.5906 56.5855 82.3803 56.9993 82.1782C57.0429 82.1545 57.0756 82.1149 57.0907 82.0676C57.1147 81.9858 57.0907 81.139 57.0618 80.6243L62.8351 81.2305C63.1046 82.159 63.3644 82.6738 63.6049 82.7989C65.7362 83.7611 75.2477 81.0669 77.8554 79.2435C77.6485 82.1734 77.4512 84.6848 77.3406 85.8202C77.3413 85.8648 77.3583 85.9076 77.3884 85.9405C77.4185 85.9735 77.4596 85.9942 77.504 85.999C77.5483 86.0037 77.5929 85.9921 77.6292 85.9662C77.6656 85.9404 77.6913 85.9022 77.7014 85.8587C78.0622 82.2745 79.3901 62.9916 78.9715 61.6493C79.342 59.619 79.4045 56.9633 79.1399 53.3117ZM66.8909 22.8527C67.8916 21.2795 70.0133 20.0286 71.0284 19.4849C70.9947 19.7832 70.9899 20.1344 70.9899 20.1344C70.9899 20.3702 71.0621 20.5145 71.2064 20.5626C71.4374 20.6444 71.6875 20.4327 72.1013 19.966C71.9955 20.8416 71.8896 22.1406 72.1013 22.6025C72.3803 23.2664 73.0635 23.1895 73.0106 21.9963C72.9402 21.2732 72.818 20.5561 72.6449 19.8506C72.7759 20.0075 72.9174 20.1554 73.0683 20.2932C73.1549 20.3606 73.2591 20.4014 73.3684 20.4108C73.4777 20.4202 73.5874 20.3977 73.6841 20.3461C74.0354 20.1344 73.8381 19.7543 73.7178 19.3502C74.9014 19.9372 76.6045 20.7935 77.278 21.9578C76.7333 22.8045 76.0017 23.5151 75.1395 24.0349C74.2773 24.5547 73.3073 24.87 72.3042 24.9564C71.3012 25.0428 70.2916 24.8981 69.3532 24.5334C68.4147 24.1687 67.5724 23.5938 66.8909 22.8527ZM69.5418 16.8773C69.4167 16.8773 69.3109 16.7522 69.282 16.6319C69.6092 16.6319 69.792 16.3144 69.7198 16.1508C69.7817 16.1292 69.8365 16.0912 69.8784 16.0407C69.9202 15.9903 69.9476 15.9294 69.9575 15.8646C69.9674 15.7999 69.9594 15.7336 69.9345 15.673C69.9096 15.6124 69.8686 15.5597 69.816 15.5206C69.8752 15.4887 69.9247 15.4415 69.9594 15.384C69.9941 15.3264 70.0127 15.2606 70.0133 15.1934C69.9977 15.1016 69.9651 15.0135 69.9171 14.9336C69.9456 14.8964 69.9698 14.8561 69.9892 14.8133C70.0909 14.8521 70.2036 14.8503 70.3039 14.8082C70.4042 14.7661 70.4845 14.6869 70.5281 14.5872C70.5797 14.6398 70.6435 14.6787 70.7138 14.7007C70.7841 14.7226 70.8587 14.7269 70.931 14.7131C71.0034 14.6993 71.0712 14.6679 71.1285 14.6216C71.1857 14.5753 71.2307 14.5155 71.2594 14.4477C71.3219 14.4933 71.3938 14.5245 71.4698 14.539C71.5459 14.5536 71.6242 14.5511 71.6992 14.5318C71.7741 14.5125 71.8439 14.4768 71.9034 14.4273C71.963 14.3778 72.0108 14.3158 72.0436 14.2456C72.1325 14.3281 72.2494 14.374 72.3707 14.374C72.4921 14.374 72.6089 14.3281 72.6979 14.2456C72.7573 14.295 72.8291 14.3269 72.9056 14.338C72.982 14.349 73.06 14.3387 73.1309 14.3082C73.1603 14.4217 73.2336 14.5189 73.3346 14.5784C73.4356 14.638 73.5562 14.655 73.6697 14.6257C73.6845 14.7135 73.7262 14.7945 73.7892 14.8574C73.8521 14.9204 73.9331 14.9622 74.0209 14.9769C74.0053 15.0253 73.9956 15.0754 73.9921 15.1261C73.994 15.1966 74.0158 15.2652 74.0549 15.3239C74.0941 15.3826 74.149 15.4291 74.2134 15.458C74.173 15.5304 74.155 15.6132 74.1617 15.6958C74.1684 15.7784 74.1995 15.8572 74.2511 15.9221C74.3026 15.9871 74.3722 16.0352 74.4512 16.0605C74.5301 16.0858 74.6148 16.0871 74.6945 16.0642C74.7618 16.223 74.757 16.5453 74.5982 16.5453C74.5625 16.5421 74.5266 16.5501 74.4955 16.5682C74.4645 16.5863 74.4399 16.6137 74.4251 16.6464C74.223 16.8484 74.733 17.4354 73.3714 18.3303C73.0491 18.5419 73.1164 18.5852 73.1309 19.0279C72.847 19.2396 71.9522 19.1963 71.4085 19.1481C71.3749 19.013 71.3619 18.8735 71.37 18.7344C71.3758 18.7029 71.3728 18.6705 71.3614 18.6406C71.3499 18.6108 71.3303 18.5847 71.3049 18.5653C71.2795 18.5458 71.2492 18.5338 71.2174 18.5306C71.1856 18.5273 71.1535 18.5329 71.1246 18.5468C70.7929 18.4576 70.4879 18.2887 70.2364 18.0548C69.9848 17.8208 69.7943 17.5289 69.6813 17.2045C69.7226 17.1846 69.7547 17.1496 69.7708 17.1067C69.787 17.0638 69.7859 17.0163 69.768 16.9742C69.75 16.932 69.7164 16.8984 69.6743 16.8804C69.6322 16.8623 69.5847 16.8612 69.5418 16.8773ZM73.4773 20.0478C73.4424 20.0626 73.404 20.0673 73.3666 20.0614C73.3292 20.0554 73.2942 20.039 73.2656 20.0141C73.095 19.8507 72.9343 19.6772 72.7845 19.4945C72.971 19.4734 73.1521 19.4179 73.3185 19.331C73.4292 19.7784 73.5542 20.0045 73.4773 20.0478ZM72.4044 20.5674C72.491 20.9812 72.7749 22.3187 72.5295 22.6602C72.2264 22.3716 72.3611 21.0052 72.4044 20.5674ZM72.0147 19.5186C71.8231 19.7776 71.6019 20.0133 71.3556 20.221C71.3518 19.9749 71.3663 19.7289 71.3989 19.4849C71.5721 19.4994 71.7982 19.5138 72.0147 19.5186ZM71.7453 11.6044C72.9121 11.6168 74.0554 11.9344 75.0615 12.5256C76.0676 13.1167 76.9015 13.9609 77.4803 14.9741C78.0592 15.9873 78.3628 17.1344 78.3611 18.3013C78.3594 19.4682 78.0523 20.6143 77.4705 21.6259C76.6766 20.4375 74.9591 19.586 73.7948 19.0086C73.7049 18.9544 73.6098 18.9092 73.5109 18.8739V18.6718L73.612 18.6045C73.9388 18.4361 74.2171 18.1866 74.42 17.88C74.623 17.5735 74.744 17.2199 74.7715 16.8533C75.1708 16.7378 75.2237 16.1797 75.0264 15.8333C75.0514 15.7901 75.0645 15.7412 75.0645 15.6914C75.0645 15.6415 75.0514 15.5926 75.0264 15.5494C75.098 15.5253 75.1607 15.4803 75.2065 15.4204C75.2524 15.3604 75.2794 15.2881 75.284 15.2128C75.2887 15.1374 75.2708 15.0624 75.2326 14.9973C75.1945 14.9321 75.1378 14.8798 75.0697 14.847C75.1092 14.8048 75.1379 14.7537 75.1535 14.698C75.169 14.6424 75.171 14.5838 75.1592 14.5272C75.1475 14.4706 75.1222 14.4177 75.0857 14.3729C75.0492 14.3281 75.0025 14.2927 74.9495 14.2697C74.9636 14.2255 74.9688 14.1789 74.9649 14.1326C74.9609 14.0864 74.9478 14.0414 74.9263 14.0002C74.9049 13.959 74.8754 13.9226 74.8398 13.8928C74.8041 13.8631 74.7629 13.8408 74.7185 13.8271C74.765 13.7508 74.7829 13.6605 74.7687 13.5723C74.7546 13.4841 74.7095 13.4039 74.6416 13.346C74.6216 13.2376 74.5601 13.1413 74.4703 13.0776C74.3805 13.0138 74.2693 12.9875 74.1604 13.0044C74.1264 12.9435 74.0769 12.8928 74.0169 12.8573C73.9569 12.8218 73.8886 12.8028 73.8189 12.8023C73.7597 12.8105 73.7017 12.825 73.6457 12.8456C73.6185 12.7577 73.5634 12.681 73.4887 12.6272C73.4141 12.5733 73.3239 12.5453 73.2319 12.5473C73.1477 12.5666 73.0688 12.6044 73.001 12.658C72.9657 12.5929 72.9136 12.5385 72.8501 12.5004C72.7867 12.4624 72.7141 12.442 72.6401 12.4415C72.5254 12.4675 72.4213 12.5279 72.3419 12.6147C72.3045 12.5565 72.2533 12.5085 72.1929 12.4749C72.1324 12.4413 72.0646 12.4232 71.9955 12.4222C71.9137 12.4222 71.803 12.4896 71.6298 12.6484C71.5871 12.5983 71.5328 12.5594 71.4716 12.5351C71.4104 12.5108 71.3442 12.5019 71.2788 12.509C71.2133 12.5161 71.1506 12.5391 71.0961 12.576C71.0416 12.6128 70.9969 12.6624 70.9659 12.7205C70.8408 12.6291 70.759 12.5714 70.6868 12.5714C70.5923 12.5695 70.4998 12.5985 70.4233 12.6541C70.3469 12.7097 70.2907 12.7888 70.2635 12.8793C70.2099 12.8578 70.1525 12.8474 70.0948 12.8487C70.0371 12.85 69.9802 12.863 69.9276 12.8868C69.8751 12.9106 69.8278 12.9448 69.7888 12.9873C69.7498 13.0299 69.7198 13.0798 69.7006 13.1343C69.6257 13.117 69.5474 13.1206 69.4745 13.1448C69.4015 13.169 69.3366 13.2128 69.2869 13.2715C69.2372 13.3301 69.2047 13.4013 69.1928 13.4773C69.1808 13.5532 69.1901 13.6309 69.2195 13.702C69.1144 13.7164 69.0188 13.7701 68.9518 13.8522C68.8849 13.9344 68.8515 14.0389 68.8586 14.1446C68.81 14.1701 68.768 14.2067 68.736 14.2513C68.7041 14.296 68.683 14.3475 68.6746 14.4018C68.6662 14.4561 68.6706 14.5116 68.6875 14.5638C68.7045 14.6161 68.7334 14.6637 68.772 14.7027C68.7056 14.7337 68.6495 14.7829 68.6101 14.8447C68.5707 14.9065 68.5498 14.9782 68.5498 15.0515C68.5498 15.1248 68.5707 15.1965 68.6101 15.2583C68.6495 15.3201 68.7056 15.3693 68.772 15.4003C68.7162 15.4408 68.6729 15.4962 68.6468 15.56C68.6207 15.6239 68.613 15.6938 68.6245 15.7618C68.636 15.8298 68.6663 15.8932 68.7119 15.9449C68.7575 15.9967 68.8167 16.0347 68.8827 16.0546C68.8507 16.1155 68.8373 16.1844 68.8442 16.2528C68.851 16.3212 68.8778 16.3862 68.9212 16.4395C68.8953 16.593 68.9215 16.7507 68.9956 16.8876C69.0697 17.0244 69.1874 17.1326 69.3301 17.1948C69.3638 17.7385 70.249 18.7344 71.0332 18.8547V19.0664C70.2153 19.4801 67.7857 20.8176 66.6263 22.5592C63.0853 18.2196 66.1355 11.6044 71.7453 11.6044ZM43.6341 54.9042C43.7399 54.8128 43.8458 55.0004 44.1152 55.2602C44.1152 55.4238 44.1152 55.7702 44.1537 56.0396C43.764 55.4286 43.4128 55.0389 43.6245 54.8801L43.6341 54.9042ZM59.5251 31.9023C60.4536 31.9023 61.9595 30.0308 62.4599 29.2707C62.8165 29.7103 63.1127 30.1957 63.3403 30.714C63.2765 30.714 63.2153 30.7394 63.1702 30.7845C63.1251 30.8296 63.0997 30.8908 63.0997 30.9546C63.0986 31.0013 63.1117 31.0473 63.1373 31.0865C63.1629 31.1257 63.1998 31.1561 63.2431 31.1739C63.2864 31.1916 63.334 31.1958 63.3797 31.1858C63.4254 31.1759 63.4671 31.1523 63.4991 31.1181C63.6273 31.4721 63.727 31.8357 63.7974 32.2054C63.7574 32.1746 63.7083 32.1577 63.6578 32.1573C63.594 32.1573 63.5328 32.1827 63.4877 32.2278C63.4426 32.2729 63.4173 32.3341 63.4173 32.3979C63.4173 32.4617 63.4426 32.5229 63.4877 32.568C63.5328 32.6131 63.594 32.6384 63.6578 32.6384C63.6957 32.6387 63.7331 32.6296 63.7667 32.612C63.8002 32.5944 63.829 32.5688 63.8503 32.5374C63.884 32.7876 63.908 33.0426 63.9224 33.3072C63.8901 33.3045 63.8576 33.3086 63.827 33.3193C63.7964 33.33 63.7683 33.347 63.7447 33.3692C63.7211 33.3915 63.7025 33.4184 63.69 33.4484C63.6775 33.4783 63.6715 33.5105 63.6723 33.5429C63.6721 33.576 63.6789 33.6088 63.6922 33.6391C63.7055 33.6694 63.7251 33.6965 63.7496 33.7187C63.7741 33.741 63.803 33.7578 63.8344 33.7681C63.8659 33.7785 63.8991 33.782 63.9321 33.7787C63.927 34.2704 63.8836 34.7611 63.8022 35.2461C63.7384 35.2346 63.6726 35.2489 63.6194 35.2859C63.5662 35.3229 63.5298 35.3795 63.5183 35.4433C63.5068 35.5071 63.5212 35.5729 63.5581 35.6261C63.5951 35.6793 63.6518 35.7157 63.7156 35.7272C63.5664 36.42 63.3547 36.7231 63.1863 37.3677C62.9025 36.954 62.9458 36.7856 63.1863 36.2852C63.3226 36.077 63.3987 35.8352 63.4064 35.5865C63.414 35.3378 63.3529 35.0918 63.2296 34.8756C62.8063 34.1828 62.2434 34.0385 61.5554 34.5966C61.4903 34.6648 61.4337 34.7407 61.387 34.8227C61.2826 34.9931 61.1635 35.1541 61.031 35.3038C60.7856 34.8804 60.4055 33.2928 59.5251 31.9023ZM57.4371 26.1723C57.466 26.0136 57.2928 26.2734 59.0296 26.5524C59.1065 26.5524 59.1065 26.4899 58.8804 27.0335C58.3513 27.0169 57.8223 27.0702 57.3072 27.1923C57.3312 26.8501 57.3745 26.5096 57.4371 26.1723ZM56.956 41.1926C56.5239 41.1716 56.1125 41.0016 55.7917 40.7115C54.4831 39.2681 53.6844 36.8626 53.2659 34.8852C53.4872 34.9911 53.5257 34.7216 53.6796 34.4763C53.6923 34.4557 53.7007 34.4329 53.7046 34.4091C53.7084 34.3853 53.7075 34.361 53.7019 34.3375C53.6963 34.3141 53.6861 34.292 53.672 34.2724C53.6579 34.2529 53.64 34.2363 53.6195 34.2237C53.599 34.2111 53.5761 34.2026 53.5523 34.1988C53.5285 34.195 53.5042 34.1959 53.4807 34.2015C53.4573 34.207 53.4352 34.2172 53.4156 34.2313C53.3961 34.2455 53.3795 34.2633 53.3669 34.2838C53.2947 34.4041 53.2563 34.5003 53.2081 34.5917C53.0734 33.923 52.982 33.3216 52.9339 32.8453C55.2336 33.3745 56.0804 31.5271 57.49 31.2913C57.983 31.2573 58.4742 31.3785 58.8948 31.6377C60.8193 34.2117 60.3382 36.9732 61.666 35.0055L61.7575 34.866C62.2386 34.4763 62.5561 34.5003 62.8929 35.0488C63.3211 35.756 62.5513 36.1986 62.609 36.9444C62.7372 37.405 62.9903 37.8213 63.3403 38.1471C63.824 38.783 64.2752 39.443 64.6922 40.1245C64.6441 40.7836 63.73 41.5678 63.2489 42.0249C62.3538 42.7929 61.4069 43.4986 60.4152 44.1369C60.242 44.0359 59.5588 43.7424 59.2942 43.627C58.4715 43.271 58.3801 43.3335 58.255 42.4867C58.1058 41.486 57.8508 41.3225 56.9752 41.1878L56.956 41.1926ZM56.956 42.1548C57.0896 41.9403 57.2862 41.7722 57.5189 41.6737C58.077 41.972 57.6584 43.194 58.4474 43.6318C58.5966 43.7184 60.1265 44.3583 60.2275 44.4304C60.2443 44.4501 60.2649 44.4663 60.288 44.4778C60.3112 44.4894 60.3364 44.4962 60.3622 44.4978C60.7616 44.4978 63.1431 42.5733 63.4798 42.2799C64.0716 41.7555 65.053 40.875 65.053 40.0475C65.053 39.9513 64.0042 38.3925 63.8695 38.2145C65.8276 38.5609 67.7954 38.4551 68.9019 40.1389C69.2319 40.6265 69.4109 41.2005 69.4167 41.7891C68.9428 41.6874 68.4573 41.6502 67.9734 41.6785C67.1026 41.7988 64.4613 43.0881 63.8407 43.6029C62.9362 43.7954 60.5643 45.5274 60.2275 45.7727C57.8845 44.5363 58.7505 45.0511 58.0529 44.4497C57.3553 43.8483 56.4653 43.0593 56.9656 42.1548H56.956ZM62.6042 44.9356C62.6014 44.8881 62.6167 44.8413 62.6471 44.8047C62.6774 44.7681 62.7206 44.7444 62.7678 44.7383C62.8156 44.7365 62.8624 44.752 62.8996 44.7821C62.9367 44.8122 62.9617 44.8548 62.9698 44.9019C63.0614 45.7032 63.0355 46.5136 62.8929 47.3075C63.2345 47.7164 63.0853 48.7508 62.6571 48.7508C62.176 48.7508 62.0702 47.4422 62.5417 47.216C62.6719 46.4628 62.693 45.6948 62.6042 44.9356ZM58.4907 49.0443C58.4907 49.8477 57.7065 49.8477 57.7065 49.0443C57.7065 48.7315 57.8508 48.4862 58.0385 48.4429C58.3941 47.5437 58.558 46.5801 58.5196 45.614C58.5196 45.5655 58.5388 45.519 58.5731 45.4847C58.6074 45.4504 58.6539 45.4311 58.7024 45.4311C58.7509 45.4311 58.7974 45.4504 58.8317 45.4847C58.866 45.519 58.8852 45.5655 58.8852 45.614C58.9046 46.4719 58.7811 47.3272 58.5196 48.1446C58.2261 48.8711 58.4907 48.4717 58.4907 49.0298V49.0443ZM56.778 43.651C57.0303 43.9942 57.3244 44.3045 57.6536 44.5748L56.7491 55.52C52.1641 55.9049 52.3518 56.2561 51.7937 56.3283C51.7263 56.3283 51.6975 56.3283 51.5146 56.232C51.76 55.0437 53.1504 50.0738 54.3339 48.5006C54.3577 48.4621 54.3663 48.4161 54.3581 48.3716C54.3499 48.3271 54.3254 48.2872 54.2895 48.2597C54.2536 48.2321 54.2087 48.2189 54.1636 48.2225C54.1185 48.2261 54.0763 48.2464 54.0453 48.2793C52.8714 49.8429 51.481 54.6732 51.1586 56.0877C50.608 55.8953 50.0765 55.6521 49.571 55.3612C49.3451 55.1703 49.0526 55.0769 48.7579 55.1014C48.5895 54.8512 47.7957 53.6148 47.7957 53.6148C48.9792 50.4828 53.9009 45.2916 56.778 43.6366V43.651ZM48.118 58.4692C48.2575 58.1902 47.762 58.2238 47.2231 57.5503C47.0404 57.3536 46.9147 57.1108 46.8596 56.848C46.8045 56.5852 46.8221 56.3124 46.9104 56.0588C46.9585 56.0925 47.4348 57.4541 48.3538 57.5358C48.3983 57.5351 48.4411 57.5181 48.474 57.488C48.507 57.4579 48.5277 57.4168 48.5325 57.3724C48.5372 57.3281 48.5256 57.2835 48.4997 57.2472C48.4739 57.2108 48.4357 57.1851 48.3922 57.175C47.6706 57.098 46.9922 55.5777 47.1943 55.366C47.4156 55.366 48.4404 56.3619 48.6376 56.4918C48.7298 56.5707 48.837 56.6301 48.9528 56.6665C49.0685 56.7029 49.1904 56.7155 49.3112 56.7035C49.3677 56.6815 49.4185 56.6472 49.4601 56.6031C49.5018 56.559 49.533 56.5062 49.5517 56.4485C49.5998 56.3042 49.5902 56.3812 48.9984 55.4863C49.585 55.8281 50.198 56.1225 50.8315 56.3667C51.0287 56.4437 51.2837 56.5399 51.5339 56.6506C51.7648 57.3338 51.6397 59.2726 50.9999 59.5373C50.966 59.5477 50.937 59.5699 50.9181 59.5998C50.5318 59.5917 50.1477 59.54 49.773 59.4458C48.9936 59.3111 47.6417 58.8348 47.1269 58.0554C47.0406 57.9399 46.9695 57.8138 46.9152 57.6802C47.1784 58.0297 47.5048 58.3267 47.8775 58.5558C47.8999 58.5675 47.9246 58.5742 47.9498 58.5753C47.9751 58.5765 48.0003 58.5721 48.0237 58.5625C48.0471 58.5528 48.0681 58.5382 48.0852 58.5196C48.1023 58.501 48.1152 58.4789 48.1228 58.4548L48.118 58.4692ZM51.3847 59.7201C52.0198 59.1716 52.1256 57.5022 51.9332 56.6939C52.184 56.6062 52.4393 56.5324 52.6982 56.4726C52.7655 58.4788 52.0198 59.4025 51.6975 59.7971L51.5772 59.9606C51.2933 59.7249 51.3896 59.8163 51.3896 59.7056L51.3847 59.7201ZM53.059 56.386L53.2611 56.3427C53.4391 57.8245 52.8762 59.2823 52.3758 60.562L51.8658 60.1819C51.8995 60.028 53.1745 59.0177 53.0638 56.3716L53.059 56.386ZM46.6602 18.7584C46.9249 17.623 46.6939 17.5749 48.5847 15.9488C48.9938 15.6035 49.4298 15.2914 49.8885 15.0154C50.6342 15.7034 52.1834 15.8285 53.415 14.924C53.415 15.1934 53.0446 16.3673 54.026 17.1467C54.2858 17.3553 54.5953 17.4929 54.9242 17.5461C55.2531 17.5992 55.5901 17.566 55.9024 17.4498C56.8646 17.0553 56.8646 17.2381 57.0763 17.2141C57.2781 17.1749 57.4696 17.0946 57.6392 16.9783C56.4034 18.6491 54.5634 19.7705 52.512 20.1031C50.4607 20.4357 48.3606 19.9531 46.6602 18.7584ZM47.2328 14.823C47.1317 14.2168 46.3475 14.1446 46.3042 13.779C46.2609 13.4133 47.0066 12.1865 47.0403 11.9171C47.1029 11.436 46.6795 11.1954 46.5255 10.926C46.4238 10.7099 46.3805 10.4709 46.3999 10.2329C46.4193 9.99481 46.5008 9.766 46.6362 9.56926C46.7468 9.4586 46.4197 9.56926 47.8438 9.48747C47.9443 10.5625 48.2723 11.6039 48.806 12.5425C49.4507 13.5047 50.6631 13.0236 50.5669 13.5769C50.4129 14.5391 49.2679 14.8855 48.5462 15.5013C47.0259 16.8292 47.3049 16.6945 47.2568 16.6704C46.5785 16.3337 47.3386 15.4484 47.2328 14.823ZM51.9091 11.282C52.1497 11.9989 53.3525 11.6621 52.8714 12.9322C52.5202 13.9666 53.0157 14.2264 53.2466 14.5487C53.2317 14.5619 53.2202 14.5784 53.213 14.5969C52.1593 15.3859 50.8074 15.3281 50.1579 14.7845C50.5386 14.5179 50.8049 14.1177 50.9036 13.6635C51.0816 12.6002 49.6479 13.1824 49.085 12.3645C48.587 11.4773 48.2882 10.4922 48.2094 9.47785C49.0152 9.4304 49.8181 9.34208 50.615 9.21324C51.8418 9.00636 51.5387 8.98712 51.6638 9.06891C52.7655 9.81463 51.5387 10.2091 51.9091 11.282ZM57.6343 16.5502C57.4996 16.6608 57.1532 16.9014 57.0041 16.8677C56.8549 16.834 56.6048 16.7811 55.7532 17.1323C55.4874 17.2329 55.1988 17.2575 54.9198 17.2033C54.6408 17.1491 54.3824 17.0183 54.1736 16.8255C53.9648 16.6326 53.8138 16.3855 53.7376 16.1116C53.6614 15.8378 53.663 15.5482 53.7422 15.2752C53.9779 13.9618 52.78 14.3755 53.2611 13.0669C53.6267 12.0085 53.0446 11.7006 52.6597 11.4937C52.2748 11.2868 52.0631 11.1906 52.371 10.3342C52.5072 10.1046 52.5512 9.83187 52.494 9.5711C52.4369 9.31033 52.2829 9.08097 52.0631 8.92939C52.5735 8.80846 53.0764 8.65745 53.569 8.47714C53.5614 8.82784 53.6463 9.17436 53.8152 9.48179C53.9842 9.78923 54.2311 10.0467 54.5312 10.2284C55.3298 10.8442 55.4549 11.104 55.2529 12.1528C55.0508 13.2016 55.1711 13.346 55.6377 13.8367C55.8055 13.9577 55.9316 14.1276 55.9988 14.3232C56.066 14.5187 56.071 14.7303 56.013 14.9288C55.8687 16.3048 56.5855 15.9536 56.4364 15.6649C56.3472 15.4435 56.3271 15.2003 56.3787 14.9673C56.4393 14.7152 56.4262 14.4511 56.3409 14.2063C56.2556 13.9614 56.1017 13.7463 55.8975 13.5865C55.5078 13.1776 55.4164 13.1343 55.6041 12.2202C55.8398 11.003 55.6329 10.6229 54.7477 9.9349C54.4699 9.77427 54.2436 9.53782 54.0954 9.25323C53.9471 8.96864 53.883 8.6477 53.9106 8.328C54.2225 8.19753 54.5206 8.03637 54.8006 7.84689C54.9548 8.15827 55.1728 8.43367 55.4405 8.65515C55.9216 9.13626 56.0948 9.27097 56.0948 10.2621C56.0948 11.2531 56.2199 11.4504 56.956 12.302C57.3312 12.735 57.4371 12.7831 57.3024 13.5817C57.2252 13.8675 57.215 14.1673 57.2726 14.4577C57.3302 14.748 57.454 15.0212 57.6343 15.256C58.0289 15.9343 58.0914 16.146 57.6343 16.5502ZM45.5393 6.34583C50.6005 1.23645 59.2653 4.9025 59.2653 12.0855C59.2606 13.4182 58.9303 14.7295 58.3031 15.9055C58.2308 15.5975 58.1054 15.3045 57.9326 15.0395C57.7712 14.8403 57.6606 14.6048 57.6103 14.3534C57.56 14.102 57.5716 13.8421 57.644 13.5961C57.8124 12.6339 57.644 12.4944 57.211 12.0037C56.5374 11.2291 56.4412 11.1425 56.446 10.2139C56.446 9.11702 56.2247 8.87165 55.6714 8.33762C55.0027 7.68331 55.147 7.66407 55.0845 7.55822C55.2312 7.42463 55.362 7.27449 55.4742 7.11079C56.0467 6.27366 52.9676 6.25442 52.8088 6.12452C52.7975 6.11665 52.7841 6.11244 52.7703 6.11244C52.7566 6.11244 52.7431 6.11665 52.7318 6.12452C51.4088 6.74515 49.2342 7.25994 47.7957 6.98089C47.78 6.97575 47.7632 6.97575 47.7476 6.98089C46.9056 7.39946 44.3413 8.33762 44.2451 8.90533C44.1633 9.38644 45.7413 9.46823 46.2369 9.48747C46.1085 9.73483 46.0387 10.0084 46.0329 10.287C46.027 10.5656 46.0853 10.8419 46.2032 11.0944C46.2717 11.2027 46.3524 11.3028 46.4438 11.3927C46.7901 11.7727 46.7132 11.8112 46.4774 12.2779C46.2417 12.7446 45.8905 13.4278 45.9386 13.8078C45.9707 13.951 46.0363 14.0844 46.13 14.1973C46.2236 14.3102 46.3427 14.3993 46.4774 14.4573C46.9585 14.7604 46.9585 14.8663 46.7517 15.4773C46.6025 15.9584 46.4053 16.5935 46.9826 16.9447C46.5015 17.5172 46.5015 17.7385 46.3379 18.5035C45.4273 17.7983 44.6768 16.9077 44.136 15.8908C43.5953 14.8739 43.2766 13.7537 43.2011 12.6045C43.1256 11.4552 43.295 10.303 43.6981 9.22406C44.1012 8.14514 44.7287 7.1641 45.5393 6.34583ZM30.8029 0.365643C35.7968 0.365643 39.1742 5.6819 37.1968 10.4353C36.0954 9.56003 34.8631 8.86353 33.5452 8.3713C33.4678 8.15521 33.4288 7.92727 33.4297 7.69775C33.4835 7.69007 33.5337 7.66663 33.5741 7.63039C35.4985 6.0283 34.4641 3.62275 33.959 2.90109C32.9968 1.52993 31.0435 1.52512 29.528 2.26121C29.3806 2.56715 29.2723 2.89043 29.2056 3.22343C29.1634 3.53935 29.2351 3.85997 29.4077 4.12792C29.8888 4.41177 30.1678 4.44545 31.3321 4.09905C32.4964 3.75265 31.9143 5.48464 32.4627 5.70114C33.0112 5.91764 33.1748 5.13825 33.4923 5.8984C33.728 6.44686 33.0978 6.37951 33.0785 6.68742C33.0589 6.85845 33.0589 7.03117 33.0785 7.2022C33.0283 7.66218 33.0893 8.12749 33.2566 8.55893C32.482 9.25173 31.5438 9.29984 30.5383 9.10258V9.04004C30.5065 8.85023 30.4233 8.67276 30.2978 8.52688C30.1723 8.381 30.0092 8.27228 29.8262 8.21253C29.095 7.84689 28.8977 7.56304 28.7149 5.08532C28.7294 5.12093 28.7548 5.15104 28.7875 5.17137C28.8202 5.19169 28.8584 5.2012 28.8968 5.19853C28.9352 5.19587 28.9717 5.18117 29.0012 5.15652C29.0308 5.13188 29.0518 5.09855 29.0613 5.06127C29.1156 5.02464 29.1718 4.99091 29.2297 4.96023C29.2724 4.93918 29.305 4.90201 29.3204 4.8569C29.3357 4.81178 29.3325 4.76243 29.3115 4.71968C29.2904 4.67693 29.2532 4.6443 29.2081 4.62897C29.163 4.61363 29.1136 4.61684 29.0709 4.63789C28.9121 4.71487 28.7437 4.8159 28.7101 4.95061C28.7101 4.79185 28.686 4.67157 28.6764 4.58497C28.8205 4.4795 28.9186 4.32281 28.9506 4.14716C29.0084 3.96915 29.0324 3.96915 29.0132 3.92585C28.8063 3.51691 29.0132 2.92033 29.1719 2.48252C29.1778 2.46873 29.1791 2.45347 29.1759 2.43886C29.1727 2.42425 29.165 2.411 29.1539 2.40096C29.1428 2.39092 29.1288 2.38458 29.114 2.38281C29.0991 2.38105 29.084 2.38395 29.0709 2.39111C28.8712 2.49458 28.684 2.62049 28.5128 2.76638C27.82 3.38701 27.8585 4.26263 28.2338 4.48875C28.3252 4.54648 28.3059 4.4262 28.3492 5.02278C28.5321 7.53898 28.7197 8.04414 29.6627 8.51563C29.9465 8.65996 30.1438 8.75137 30.1775 9.0641C30.1319 9.08139 30.0853 9.09585 30.0379 9.1074C28.3444 9.51634 26.3671 11.3542 25.7079 12.4367C21.5993 7.89019 24.7217 0.365643 30.8029 0.365643ZM25.9533 12.7638C26.2324 12.0903 28.3589 9.91566 30.0812 9.51153C30.1576 9.49625 30.2319 9.47203 30.3025 9.43936C31.5053 9.66548 32.6263 9.66067 33.5645 8.75618C34.8172 9.25469 35.9893 9.9356 37.0429 10.7768C36.5868 11.7868 35.8917 12.6706 35.0176 13.3519C34.1435 14.0331 33.1168 14.4914 32.026 14.687C30.9351 14.8826 29.8131 14.8097 28.7568 14.4746C27.7005 14.1396 26.7416 13.5524 25.9629 12.7638H25.9533ZM26.1409 13.4229C30.7197 17.2062 37.0717 14.5151 38.0195 8.89571L43.0712 10.0985C42.6876 11.6434 42.8585 13.5976 43.3647 15.1068C43.3165 15.1068 44.1873 14.8326 24.5004 21.5344C24.0333 20.6308 23.0237 19.2146 22.3258 18.4746L26.1409 13.4229ZM6.06908 32.6288C0.8298 25.6912 5.79966 15.612 14.5655 15.612C16.4696 15.6186 18.3372 16.1358 19.9735 17.1097C21.6098 18.0836 22.955 19.4785 23.8689 21.149C24.7828 22.8196 25.232 24.7047 25.1696 26.6078C25.1072 28.511 24.5355 30.3626 23.5141 31.9697C22.4628 30.241 21.021 28.7827 19.3044 27.7119C19.7566 22.5111 19.2274 17.0649 14.0459 17.3777C13.2125 17.4164 12.4049 17.6791 11.7082 18.1379C11.0114 18.5968 10.4511 19.235 10.0863 19.9853C8.36397 23.1413 8.86432 28.015 9.05195 28.6452C8.80178 28.8906 8.52755 29.1263 8.29661 29.3717C7.47343 30.4 6.72882 31.4888 6.06908 32.6288ZM17.1827 23.9448C17.2404 24.628 16.7016 25.7105 15.9847 25.8692C15.8596 25.8981 15.7682 26.0617 15.826 26.2686C15.5614 26.4466 15.393 26.6101 15.1765 26.7497C14.7787 26.9381 14.3396 27.0224 13.9003 26.9946C13.461 26.9669 13.036 26.8279 12.6651 26.5909C12.7421 26.3215 12.6651 26.1098 12.4005 26.0376C11.6981 25.8885 10.5674 24.5654 10.731 23.6321C10.8657 22.8527 9.67258 23.4829 10.2499 21.9578C10.3413 21.7221 11.1015 21.9338 11.852 21.5777C12.6041 21.1468 13.306 20.6337 13.9448 20.0478C14.4008 20.3509 14.8291 20.6939 15.2246 21.0726C14.8589 20.8609 14.7435 21.3516 15.0321 21.3853L15.0899 21.4478L15.1284 21.4911C15.1429 21.5098 15.161 21.5254 15.1815 21.537C15.2021 21.5487 15.2247 21.5562 15.2482 21.5591C15.2716 21.562 15.2954 21.5603 15.3182 21.554C15.341 21.5477 15.3623 21.5369 15.3809 21.5224C15.3996 21.5079 15.4152 21.4898 15.4268 21.4693C15.4385 21.4487 15.446 21.4261 15.4489 21.4026C15.4518 21.3791 15.4501 21.3554 15.4438 21.3326C15.4375 21.3098 15.4267 21.2885 15.4122 21.2698C15.3844 21.2293 15.3539 21.1907 15.3208 21.1544C15.6047 21.3805 16.3359 22.0011 16.87 21.8664C16.9541 21.8311 17.045 21.8147 17.1361 21.8183C17.2273 21.8218 17.3166 21.8453 17.3977 21.887C17.4789 21.9287 17.5499 21.9877 17.6058 22.0598C17.6618 22.1318 17.7013 22.2153 17.7215 22.3042C17.7215 22.3427 18.1016 23.3338 17.4088 23.6321C17.1923 23.7283 17.1683 23.7668 17.1827 23.9448ZM6.31444 32.9656C6.94091 31.766 7.69413 30.6369 8.56122 29.5978C8.84508 29.2707 9.22996 29.0013 9.52344 28.6356C10.5386 28.1545 12.362 26.8315 12.4101 26.8651C12.8376 27.148 13.3318 27.3137 13.8434 27.3458C14.3551 27.3779 14.8661 27.2752 15.3256 27.048C15.6239 26.8796 15.8548 26.639 16.1387 26.4802C16.7689 26.8218 18.193 27.5868 18.8425 27.8322C18.8602 27.8619 18.885 27.8867 18.9147 27.9043C20.892 29.0397 22.0996 30.5697 23.2447 32.3161C22.3051 33.6622 21.0663 34.7722 19.6256 35.5591C18.1849 36.3459 16.5814 36.7882 14.9411 36.8511C13.3007 36.914 11.6681 36.5959 10.1713 35.9218C8.67454 35.2476 7.35438 34.2358 6.31444 32.9656ZM22.345 34.0144C23.8575 32.4083 25.0812 30.1186 25.4245 27.9393C25.7679 25.76 25.4458 23.5278 24.5004 21.5344C44.2258 14.7989 43.3165 15.1405 43.3647 15.1068C43.8368 16.3595 44.6006 17.4816 45.5929 18.3802C46.5852 19.2788 48.1334 20.0242 49.4266 20.3702L43.9516 50.8436L22.345 34.0144ZM44.3557 54.2499C44.0045 53.6773 43.1433 52.5131 42.7681 51.8443C43.5667 51.5749 45.0582 51.1804 45.3035 51.3007C45.5489 51.4209 47.175 53.7784 48.6713 56.0588C48.1902 55.6499 47.5311 54.9908 47.151 54.9908C46.9441 54.9908 46.7132 55.1976 46.7901 55.6884C46.6509 55.7513 46.5408 55.8648 46.4822 56.0059C46.4517 55.8424 46.4082 55.6815 46.3523 55.5248C46.2802 55.3372 46.1936 54.9427 45.9242 54.8801C45.8669 54.87 45.808 54.8749 45.7532 54.8943C45.6984 54.9137 45.6496 54.9469 45.6114 54.9908C45.4671 54.5097 45.1832 54.4183 44.885 54.5866C44.8032 54.1921 44.5578 54.1344 44.375 54.2499H44.3557ZM44.6877 57.1365C44.454 56.3574 44.3836 55.5385 44.4808 54.731C44.4808 54.6348 44.5241 54.6011 44.5241 54.5915C44.6396 54.6829 44.6925 55.164 44.8513 56.2368C44.8441 56.2719 44.8471 56.3084 44.8599 56.3418C44.8728 56.3752 44.895 56.4043 44.9238 56.4256C44.9526 56.4468 44.987 56.4594 45.0227 56.4617C45.0584 56.4641 45.0941 56.4562 45.1255 56.4389C45.3324 56.3186 45.0245 55.6258 45.0245 55.1207C45.0245 54.7598 45.2891 54.9042 45.3468 55.0726C45.5001 55.5872 45.6206 56.1111 45.7077 56.641C45.7018 56.6662 45.7013 56.6924 45.7063 56.7178C45.7113 56.7432 45.7216 56.7673 45.7366 56.7884C45.7516 56.8095 45.771 56.8272 45.7933 56.8403C45.8157 56.8534 45.8405 56.8616 45.8663 56.8643C45.8921 56.8671 45.9181 56.8643 45.9427 56.8562C45.9673 56.8482 45.9899 56.8349 46.0091 56.8175C46.0282 56.8 46.0434 56.7786 46.0536 56.7549C46.0638 56.7311 46.0689 56.7054 46.0685 56.6795C46.1118 56.2946 45.6788 55.5248 45.876 55.2794C45.9384 55.4047 45.9899 55.5351 46.03 55.6691C46.2802 56.3523 46.1262 56.8334 46.5111 57.4877C46.6506 57.7235 46.564 57.7187 46.7228 58.0458C45.9563 58.0076 45.2342 57.675 44.7069 57.1173L44.6877 57.1365ZM44.986 57.8678C45.4794 58.1835 46.0427 58.3735 46.6266 58.4211C47.0211 58.4211 46.8527 58.3008 47.0018 58.474C46.693 58.607 46.3565 58.663 46.0212 58.637C45.6859 58.611 45.362 58.5039 45.0774 58.3249C45.0245 58.2527 45.0293 58.3152 45.0052 57.8486L44.986 57.8678ZM45.1063 59.085C45.087 58.9792 45.0726 58.8733 45.063 58.7675C45.4076 58.9363 45.7874 59.0213 46.1711 59.0155C46.5549 59.0096 46.9319 58.9131 47.2713 58.7338C47.3475 58.8013 47.4278 58.864 47.5118 58.9214C47.1491 59.1195 46.7473 59.2351 46.3348 59.2601C45.9223 59.285 45.5094 59.2187 45.1255 59.0658L45.1063 59.085ZM45.1736 59.5276C45.9867 59.8404 47.5792 59.441 47.8486 59.1379C48.523 59.4933 49.2511 59.7354 50.004 59.8548C50.2351 59.9087 50.4699 59.9457 50.7064 59.9654C50.3311 61.0143 50.1098 62.7078 50.0473 64.9978C49.0321 64.815 46.0252 63.9635 45.1929 59.5084L45.1736 59.5276ZM51.0624 60.0376C52.7375 61.3311 54.4852 62.5278 56.2969 63.6219C56.2833 63.6345 56.2748 63.6516 56.2728 63.67C55.7917 68 56.4797 79.306 56.5518 80.4414C54.5189 79.8001 52.647 78.7305 51.0624 77.3046C50.8844 77.0977 49.7393 63.6604 51.0816 60.0184L51.0624 60.0376ZM51.1105 77.8386C52.7358 79.2314 54.6355 80.2673 56.6866 80.8793V81.1679C55.6137 80.8167 52.6308 79.638 51.1346 78.1754C51.1586 78.0263 51.1442 77.9156 51.1298 77.805L51.1105 77.8386ZM51.2404 78.8826V78.7239C53.0013 80.2249 56.0515 81.3459 56.7395 81.5576V81.8415C55.8975 81.5624 52.1112 79.9748 51.2597 78.849L51.2404 78.8826ZM77.8457 78.7961C75.4402 80.8071 64.3747 83.6552 63.5953 82.3563C68.1321 82.8374 73.9728 80.6291 77.8746 78.339L77.8457 78.7961ZM77.9035 77.906C77.6292 78.0744 69.8978 82.746 63.4221 81.9762C63.3884 81.8992 63.3547 81.8078 63.3211 81.7068C63.6966 81.7462 64.074 81.7654 64.4517 81.7645C69.4119 81.7645 76.1859 78.7431 77.9227 77.6606C77.9371 77.7039 77.9323 77.7857 77.9227 77.8723L77.9035 77.906ZM77.9516 77.1988C76.4265 78.2909 68.0407 81.9521 63.2393 81.3219C63.0805 81.3219 63.196 82.1301 61.9307 66.5759C65.0915 67.9422 67.9156 68.635 70.326 68.6302C74.1749 68.6302 77.4945 66.7635 78.654 62.8088C78.6973 65.2721 78.3365 71.6949 77.9708 77.1699L77.9516 77.1988ZM75.3055 66.8934C68.4785 71.4495 56.3113 63.4294 52.6645 60.8026C53.1071 59.6046 53.824 58.0651 53.6267 56.2946C58.8227 55.3324 66.9727 56.4341 67.2517 56.5159C67.2839 56.5344 67.3209 56.5427 67.3579 56.5397C67.3949 56.5367 67.43 56.5225 67.4587 56.499C67.4875 56.4755 67.5084 56.4438 67.5186 56.4082C67.5289 56.3725 67.5281 56.3346 67.5163 56.2994C67.473 56.1695 67.4153 56.1502 66.227 56.0011C67.9108 50.1604 69.5947 50.0931 69.1617 49.7082C69.1447 49.691 69.1245 49.6774 69.1022 49.6681C69.0799 49.6588 69.056 49.654 69.0318 49.654C69.0077 49.654 68.9837 49.6588 68.9615 49.6681C68.9392 49.6774 68.9189 49.691 68.9019 49.7082C67.2517 51.5124 66.4964 53.8602 65.8613 55.9626C64.9328 55.8568 63.1142 55.6836 62.7245 55.6499C62.763 55.3564 64.3362 44.0263 64.2544 43.7761C65.0194 43.295 67.218 42.1885 68.0263 42.073C68.493 42.054 68.9602 42.0944 69.4167 42.1933C69.4265 42.215 69.4406 42.2345 69.4581 42.2507C69.4756 42.2669 69.4962 42.2794 69.5187 42.2875C69.5411 42.2956 69.5649 42.2991 69.5887 42.2978C69.6125 42.2964 69.6358 42.2904 69.6573 42.2799C70.48 42.4338 78.2451 45.97 78.7983 53.3742C79.3468 61.2404 78.4423 64.7813 75.3247 66.8597L75.3055 66.8934Z" fill="#2A344A"/>
<path d="M56.9224 35.8714C57.4035 35.8714 57.2639 34.7937 56.7876 34.7745C56.3113 34.7552 56.4461 35.8521 56.9224 35.8714ZM53.9443 35.3999C53.4632 35.3999 53.5979 36.4776 54.079 36.492C54.5601 36.5065 54.4254 35.4191 53.9443 35.3999ZM48.7868 9.76159C48.5174 9.80008 48.6184 10.4929 48.8878 10.4544C49.1573 10.4159 49.0562 9.71829 48.7868 9.76159ZM50.6102 10.1369C50.8796 10.1369 50.8411 9.41038 50.5573 9.43925C50.2734 9.46812 50.3504 10.1369 50.6102 10.1369ZM73.0539 16.016C73.0299 15.5349 72.6209 15.5686 72.645 16.016C72.6691 16.4634 73.078 16.4923 73.0539 16.016ZM70.9419 15.9679C70.8697 16.17 70.9419 16.5308 71.1439 16.5308C71.346 16.5308 71.3316 16.2133 71.3268 16.1603C71.2931 15.7995 71.0285 15.7322 70.9419 15.9679ZM30.6249 5.53265C30.6249 6.01375 31.106 6.01375 31.106 5.53265C31.106 5.05154 30.6249 5.04673 30.6249 5.53265ZM15.4074 21.9962C15.0899 21.9962 15.0899 22.7275 15.4074 22.7275C15.725 22.7275 15.7202 21.9962 15.4074 21.9962ZM13.05 22.3474C13.05 21.8663 12.5689 21.8663 12.5689 22.3474C12.5689 22.8285 13.05 22.8333 13.05 22.3474ZM29.1624 5.32096C28.8448 5.32096 28.8496 6.05224 29.1624 6.05224C29.4751 6.05224 29.4895 5.32096 29.1624 5.32096ZM70.7831 15.5878C70.7831 15.5878 70.8168 15.5301 70.99 15.4435C71.015 15.4352 71.0379 15.4217 71.0572 15.4038C71.0765 15.3858 71.0917 15.3639 71.1017 15.3396C71.1118 15.3153 71.1165 15.289 71.1154 15.2627C71.1144 15.2364 71.1077 15.2106 71.0958 15.1871C71.0839 15.1636 71.067 15.143 71.0464 15.1266C71.0257 15.1103 71.0018 15.0986 70.9762 15.0923C70.9507 15.086 70.924 15.0854 70.8982 15.0903C70.8723 15.0953 70.8478 15.1058 70.8264 15.1211C69.9989 15.5397 70.6532 15.9294 70.7831 15.5878ZM72.7316 15.328C72.9722 15.328 72.9481 15.506 73.1165 15.506C73.1528 15.5063 73.1884 15.4957 73.2187 15.4756C73.249 15.4556 73.2726 15.4269 73.2866 15.3934C73.3005 15.3598 73.3041 15.3228 73.297 15.2872C73.2898 15.2516 73.2722 15.2189 73.2464 15.1933C73.1855 15.1163 73.1069 15.0551 73.0172 15.0149C72.9276 14.9747 72.8296 14.9567 72.7316 14.9624C72.6831 14.9624 72.6366 14.9816 72.6023 15.0159C72.568 15.0502 72.5488 15.0967 72.5488 15.1452C72.5488 15.1937 72.568 15.2402 72.6023 15.2745C72.6366 15.3088 72.6831 15.328 72.7316 15.328ZM71.6587 16.2421C71.6587 16.9734 71.5577 17.5075 72.2842 17.2621C72.3173 17.2481 72.3455 17.2247 72.3653 17.1947C72.3852 17.1648 72.3958 17.1296 72.3958 17.0937C72.3958 17.0578 72.3852 17.0226 72.3653 16.9927C72.3455 16.9627 72.3173 16.9393 72.2842 16.9253C72.1879 16.8772 72.1254 16.9253 72.0051 16.9542V16.1026C72.019 16.0695 72.0235 16.0333 72.0183 15.9978C72.0131 15.9624 71.9983 15.929 71.9756 15.9013C71.9528 15.8736 71.9229 15.8526 71.8892 15.8406C71.8554 15.8286 71.8189 15.826 71.7838 15.8332C71.6683 15.8669 71.6539 15.939 71.6587 16.2421ZM72.3275 17.7432C72.3183 17.7707 72.3158 17.7999 72.3202 17.8285C72.3246 17.8571 72.3357 17.8843 72.3526 17.9078C72.3695 17.9312 72.3917 17.9504 72.4175 17.9636C72.4432 17.9768 72.4717 17.9837 72.5007 17.9837C72.5584 17.9837 72.5728 17.9837 72.6883 17.9164C72.9249 17.8303 73.1206 17.6587 73.2368 17.4353C73.2578 17.3925 73.261 17.3432 73.2457 17.2981C73.2304 17.253 73.1977 17.2158 73.155 17.1947C73.1122 17.1737 73.0629 17.1705 73.0178 17.1858C72.9726 17.2011 72.9355 17.2338 72.9144 17.2765C72.7412 17.6133 72.39 17.5508 72.3275 17.7432ZM50.1243 11.4599C50.1721 11.4599 50.218 11.4409 50.2519 11.4071C50.2857 11.3732 50.3047 11.3273 50.3047 11.2795C50.3047 11.2316 50.2857 11.1858 50.2519 11.1519C50.218 11.1181 50.1721 11.0991 50.1243 11.0991C49.9559 11.0991 49.725 11.1809 49.6432 11.1712C49.571 10.9259 49.6432 9.89631 49.5806 9.69905C49.5746 9.67567 49.5641 9.65371 49.5496 9.63441C49.5351 9.61511 49.5169 9.59885 49.4962 9.58656C49.4754 9.57428 49.4524 9.56621 49.4285 9.56281C49.4046 9.5594 49.3803 9.56074 49.3569 9.56675C49.3335 9.57275 49.3116 9.58329 49.2923 9.59779C49.273 9.61228 49.2567 9.63043 49.2444 9.6512C49.2321 9.67198 49.2241 9.69497 49.2207 9.71886C49.2173 9.74275 49.2186 9.76708 49.2246 9.79046C49.2348 9.95067 49.2348 10.1114 49.2246 10.2716C49.2246 11.2338 49.1476 11.686 49.9366 11.508C49.9968 11.4838 50.0599 11.4676 50.1243 11.4599ZM50.87 11.4407C50.7738 11.4407 50.7112 11.4792 50.5813 11.5802C49.9799 12.0324 50.0762 11.6716 49.85 11.6716C49.8137 11.6713 49.7781 11.6819 49.7478 11.702C49.7175 11.7221 49.6939 11.7507 49.68 11.7843C49.666 11.8178 49.6624 11.8548 49.6696 11.8904C49.6767 11.9261 49.6943 11.9587 49.7201 11.9843C50.0617 12.3259 50.4226 12.1575 50.8026 11.8689C50.9277 11.7774 50.9951 11.7534 51.0143 11.6572C51.0229 11.6094 51.0127 11.5602 50.9858 11.5198C50.9589 11.4795 50.9174 11.4511 50.87 11.4407ZM30.7789 4.83023C30.9011 4.82594 31.0227 4.84895 31.1349 4.89758C31.175 4.91958 31.2219 4.92574 31.2664 4.91484C31.3108 4.90394 31.3495 4.87676 31.3749 4.83869C31.4003 4.80062 31.4105 4.75442 31.4035 4.7092C31.3964 4.66399 31.3727 4.62305 31.337 4.59448C31.1874 4.51426 31.0207 4.47135 30.851 4.46939C30.8032 4.45982 30.7535 4.46965 30.7129 4.49672C30.6928 4.51012 30.6755 4.52736 30.6621 4.54743C30.6486 4.56751 30.6393 4.59003 30.6345 4.61373C30.6298 4.63742 30.6298 4.66181 30.6345 4.68552C30.6392 4.70922 30.6485 4.73177 30.6619 4.75187C30.6889 4.79247 30.731 4.82066 30.7789 4.83023ZM29.9706 7.28388C29.9033 7.44746 30.1631 7.80348 30.4806 7.80348C31.005 7.80348 31.4428 6.91343 30.9617 6.69212C30.8077 6.61514 30.6779 6.74985 30.4806 6.95192C30.2833 7.15398 30.038 7.09144 29.9706 7.28388ZM12.694 21.5151C12.7736 21.458 12.8591 21.4096 12.949 21.3708C13.1462 21.2697 13.0356 20.9233 12.7469 21.0677C11.8905 21.491 12.6122 21.8711 12.694 21.5151ZM14.2624 23.5069C14.2095 23.5069 14.1133 23.5069 14.0267 23.478C14.0267 23.199 14.2095 22.1309 14.2287 21.9914C14.2291 21.9464 14.2129 21.9028 14.1832 21.869C14.1535 21.8352 14.1124 21.8136 14.0677 21.8082C14.023 21.8028 13.9779 21.8141 13.9411 21.84C13.9042 21.8658 13.8781 21.9043 13.8679 21.9481C13.8198 22.357 13.5696 23.5165 13.7139 23.6993C13.8583 23.8821 14.07 23.8437 14.195 23.8677C14.2429 23.8766 14.2923 23.8662 14.3325 23.8387C14.3726 23.8112 14.4002 23.7688 14.4091 23.721C14.4181 23.6731 14.4076 23.6237 14.3801 23.5835C14.3526 23.5434 14.3103 23.5158 14.2624 23.5069ZM13.7669 24.5413C13.1174 24.3921 13.2858 24.2141 13.1366 24.1323C13.104 24.117 13.0676 24.1117 13.032 24.117C12.9963 24.1223 12.963 24.138 12.9363 24.1622C12.9096 24.1863 12.8906 24.2179 12.8817 24.2528C12.8728 24.2877 12.8745 24.3245 12.8864 24.3584C12.9642 24.5077 13.0779 24.6351 13.2174 24.7292C13.3569 24.8233 13.5176 24.8811 13.6851 24.8973C13.7314 24.9058 13.7792 24.8961 13.8186 24.8703C13.858 24.8444 13.8858 24.8043 13.8964 24.7584C13.9069 24.7125 13.8993 24.6643 13.8752 24.6238C13.8511 24.5834 13.8123 24.5538 13.7669 24.5413ZM56.6433 33.6102C56.8406 33.7112 57.0811 33.7304 57.2351 33.8122C57.2771 33.8289 57.3238 33.8294 57.3662 33.8137C57.4086 33.7979 57.4436 33.767 57.4645 33.7269C57.4855 33.6869 57.4908 33.6405 57.4795 33.5967C57.4682 33.5529 57.4411 33.5149 57.4035 33.4899C57.2014 33.384 56.9608 33.3648 56.8117 33.2878C56.7697 33.2712 56.723 33.2707 56.6806 33.2864C56.6382 33.3022 56.6032 33.3331 56.5822 33.3731C56.5613 33.4132 56.556 33.4596 56.5672 33.5034C56.5785 33.5472 56.6056 33.5852 56.6433 33.6102ZM56.3498 38.2C56.3926 38.1929 56.4315 38.1709 56.4596 38.1379C56.4877 38.1049 56.5031 38.0629 56.5031 38.0195C56.5031 37.9762 56.4877 37.9342 56.4596 37.9012C56.4315 37.8681 56.3926 37.8461 56.3498 37.8391C56.0957 37.8584 55.8403 37.8256 55.5993 37.7429C55.4838 37.5024 55.3732 35.3374 55.2818 34.7889C55.2789 34.7643 55.2713 34.7404 55.2592 34.7187C55.2471 34.6971 55.2309 34.678 55.2115 34.6626C55.1921 34.6471 55.1698 34.6357 55.1459 34.6289C55.1221 34.6221 55.0971 34.6201 55.0725 34.6229C55.0478 34.6258 55.024 34.6334 55.0023 34.6455C54.9807 34.6575 54.9616 34.6737 54.9462 34.6932C54.9307 34.7126 54.9193 34.7349 54.9125 34.7587C54.9057 34.7826 54.9037 34.8075 54.9065 34.8322C55.046 35.6741 55.0557 37.8006 55.3443 38.0075C55.6565 38.1597 56.0035 38.2261 56.3498 38.2ZM57.1052 39.1622C57.4708 39.1622 58.4379 38.2 58.5485 37.4927C58.5562 37.4455 58.5447 37.3972 58.5168 37.3584C58.4888 37.3196 58.4466 37.2935 58.3994 37.2858C58.3521 37.2782 58.3038 37.2896 58.265 37.3176C58.2262 37.3455 58.2001 37.3878 58.1925 37.435C58.009 38.0223 57.6009 38.5134 57.0571 38.8013C57.0127 38.8116 56.9738 38.838 56.9479 38.8754C56.9219 38.9128 56.9109 38.9585 56.9169 39.0036C56.9229 39.0488 56.9456 39.09 56.9804 39.1193C57.0152 39.1486 57.0597 39.1639 57.1052 39.1622ZM60.7183 45.2145C60.8338 45.2145 60.9829 45.0798 61.5795 44.5458C61.9937 44.119 62.4727 43.7601 62.9988 43.4825C64.5191 42.5877 67.0545 41.077 66.6456 39.5952C66.6296 39.5524 66.5982 39.5172 66.5576 39.4964C66.517 39.4756 66.47 39.4708 66.426 39.4829C66.382 39.4949 66.3441 39.523 66.3197 39.5616C66.2954 39.6002 66.2863 39.6465 66.2944 39.6914C66.6792 41.0962 63.4077 42.7753 62.2627 43.497C61.9981 43.6605 60.7616 44.8056 60.6558 44.8585C60.6143 44.8725 60.5793 44.9008 60.557 44.9384C60.5346 44.976 60.5265 45.0203 60.5341 45.0634C60.5416 45.1064 60.5644 45.1454 60.5982 45.1731C60.632 45.2008 60.6746 45.2155 60.7183 45.2145ZM59.7176 44.998C59.7285 45.0325 59.7494 45.0631 59.7777 45.0857C59.8059 45.1083 59.8403 45.1221 59.8763 45.1251C59.9124 45.1282 59.9486 45.1206 59.9803 45.1031C60.012 45.0856 60.0378 45.0591 60.0544 45.0269C60.3527 44.4448 57.0956 43.877 57.6055 42.6598C57.6198 42.6161 57.617 42.5685 57.5977 42.5267C57.5785 42.4849 57.5442 42.4519 57.5017 42.4343C57.4591 42.4167 57.4115 42.4158 57.3684 42.4317C57.3252 42.4477 57.2896 42.4793 57.2688 42.5203C56.6385 43.9733 59.5011 44.7142 59.7176 44.998ZM52.626 5.78282C51.813 5.11889 50.8748 4.53194 49.8019 4.75325C49.3379 4.85454 48.909 5.07713 48.5591 5.39832C48.2092 5.7195 47.9507 6.12777 47.8101 6.58146C47.8084 6.59849 47.8128 6.61557 47.8225 6.62967C47.8322 6.64377 47.8466 6.65397 47.8631 6.65844C49.2631 7.07701 52.6309 5.99451 52.6742 5.84537C52.6725 5.83157 52.6672 5.81847 52.6587 5.80746C52.6503 5.79645 52.639 5.78794 52.626 5.78282ZM44.3702 51.8538C44.317 51.8478 44.2632 51.8531 44.2122 51.8693C44.1612 51.8856 44.1142 51.9124 44.0743 51.9481C44.0344 51.9837 44.0025 52.0274 43.9806 52.0762C43.9587 52.1251 43.9474 52.178 43.9474 52.2315C43.9474 52.285 43.9587 52.3379 43.9806 52.3868C44.0025 52.4356 44.0344 52.4793 44.0743 52.515C44.1142 52.5506 44.1612 52.5774 44.2122 52.5937C44.2632 52.6099 44.317 52.6152 44.3702 52.6092C44.4234 52.6152 44.4772 52.6099 44.5282 52.5937C44.5792 52.5774 44.6262 52.5506 44.6661 52.515C44.706 52.4793 44.738 52.4356 44.7598 52.3868C44.7817 52.3379 44.793 52.285 44.793 52.2315C44.793 52.178 44.7817 52.1251 44.7598 52.0762C44.738 52.0274 44.706 51.9837 44.6661 51.9481C44.6262 51.9124 44.5792 51.8856 44.5282 51.8693C44.4772 51.8531 44.4234 51.8478 44.3702 51.8538ZM60.521 31.6184C60.4572 31.6184 60.3961 31.6437 60.351 31.6888C60.3058 31.734 60.2805 31.7951 60.2805 31.8589C60.2805 31.9227 60.3058 31.9839 60.351 32.029C60.3961 32.0741 60.4572 32.0995 60.521 32.0995C60.5848 32.0995 60.646 32.0741 60.6911 32.029C60.7363 31.9839 60.7616 31.9227 60.7616 31.8589C60.7616 31.7951 60.7363 31.734 60.6911 31.6888C60.646 31.6437 60.5848 31.6184 60.521 31.6184ZM62.5128 32.6816C62.449 32.6816 62.3879 32.707 62.3427 32.7521C62.2976 32.7972 62.2723 32.8584 62.2723 32.9222C62.2723 32.986 62.2976 33.0472 62.3427 33.0923C62.3879 33.1374 62.449 33.1627 62.5128 33.1627C62.5766 33.1627 62.6378 33.1374 62.6829 33.0923C62.7281 33.0472 62.7534 32.986 62.7534 32.9222C62.7534 32.8584 62.7281 32.7972 62.6829 32.7521C62.6378 32.707 62.5766 32.6816 62.5128 32.6816ZM62.6524 30.3194C62.7162 30.3194 62.7773 30.294 62.8225 30.2489C62.8676 30.2038 62.8929 30.1426 62.8929 30.0788C62.8929 30.015 62.8676 29.9538 62.8225 29.9087C62.7773 29.8636 62.7162 29.8383 62.6524 29.8383C62.5886 29.8383 62.5274 29.8636 62.4823 29.9087C62.4372 29.9538 62.4118 30.015 62.4118 30.0788C62.4118 30.1426 62.4372 30.2038 62.4823 30.2489C62.5274 30.294 62.5886 30.3194 62.6524 30.3194ZM63.3355 34.6061C63.3993 34.6061 63.4605 34.5807 63.5056 34.5356C63.5507 34.4905 63.5761 34.4293 63.5761 34.3655C63.5761 34.3017 63.5507 34.2405 63.5056 34.1954C63.4605 34.1503 63.3993 34.125 63.3355 34.125C63.2717 34.125 63.2106 34.1503 63.1654 34.1954C63.1203 34.2405 63.095 34.3017 63.095 34.3655C63.095 34.4293 63.1203 34.4905 63.1654 34.5356C63.2106 34.5807 63.2717 34.6061 63.3355 34.6061ZM61.9836 30.9256C61.9198 30.9256 61.8586 30.9509 61.8135 30.996C61.7684 31.0412 61.7431 31.1023 61.7431 31.1661C61.7431 31.2299 61.7684 31.2911 61.8135 31.3362C61.8586 31.3813 61.9198 31.4067 61.9836 31.4067C62.0474 31.4067 62.1086 31.3813 62.1537 31.3362C62.1988 31.2911 62.2242 31.2299 62.2242 31.1661C62.2242 31.1023 62.1988 31.0412 62.1537 30.996C62.1086 30.9509 62.0474 30.9256 61.9836 30.9256ZM61.0214 32.8356C60.9576 32.8356 60.8964 32.8609 60.8513 32.906C60.8062 32.9512 60.7809 33.0123 60.7809 33.0761C60.7809 33.1399 60.8062 33.2011 60.8513 33.2462C60.8964 33.2914 60.9576 33.3167 61.0214 33.3167C61.0852 33.3167 61.1464 33.2914 61.1915 33.2462C61.2366 33.2011 61.262 33.1399 61.262 33.0761C61.262 33.0123 61.2366 32.9512 61.1915 32.906C61.1464 32.8609 61.0852 32.8356 61.0214 32.8356ZM61.5073 33.6294C61.4435 33.6294 61.3823 33.6548 61.3372 33.6999C61.2921 33.745 61.2668 33.8062 61.2668 33.87C61.2668 33.9338 61.2921 33.995 61.3372 34.0401C61.3823 34.0852 61.4435 34.1105 61.5073 34.1105C61.5711 34.1105 61.6323 34.0852 61.6774 34.0401C61.7225 33.995 61.7479 33.9338 61.7479 33.87C61.7479 33.8062 61.7225 33.745 61.6774 33.6999C61.6323 33.6548 61.5711 33.6294 61.5073 33.6294ZM29.7253 6.48524C29.7849 6.5178 29.8533 6.53067 29.9207 6.52203C29.9881 6.51339 30.051 6.48368 30.1005 6.43713C30.1413 6.41097 30.1701 6.36967 30.1805 6.3223C30.1909 6.27493 30.182 6.22538 30.1558 6.18455C30.1297 6.14372 30.0884 6.11495 30.041 6.10457C29.9936 6.0942 29.9441 6.10306 29.9033 6.12922C29.8566 5.73805 29.8712 5.34199 29.9466 4.95531C29.9483 4.90983 29.933 4.86534 29.9037 4.83052C29.8744 4.79571 29.8332 4.77309 29.788 4.76707C29.7429 4.76105 29.6972 4.77208 29.6598 4.798C29.6224 4.82391 29.596 4.86285 29.5857 4.9072C29.4077 6.2928 29.6194 6.44675 29.7253 6.48524Z" fill="#2A344A"/>
<rect y="58" width="28" height="28" rx="14" fill="#4E6AF3"/>
<path d="M17.4111 75.9609V77H10.8965V76.0908L14.1572 72.4609C14.5583 72.0143 14.8682 71.6361 15.0869 71.3262C15.3102 71.0117 15.4652 70.7314 15.5518 70.4854C15.6429 70.2347 15.6885 69.9795 15.6885 69.7197C15.6885 69.3916 15.6201 69.0954 15.4834 68.8311C15.3512 68.5622 15.1553 68.348 14.8955 68.1885C14.6357 68.029 14.3213 67.9492 13.9521 67.9492C13.5101 67.9492 13.141 68.0358 12.8447 68.209C12.5531 68.3776 12.3343 68.6146 12.1885 68.9199C12.0426 69.2253 11.9697 69.5762 11.9697 69.9727H10.7051C10.7051 69.4121 10.8281 68.8994 11.0742 68.4346C11.3203 67.9697 11.6849 67.6006 12.168 67.3271C12.651 67.0492 13.2458 66.9102 13.9521 66.9102C14.5811 66.9102 15.1188 67.0218 15.5654 67.2451C16.012 67.4639 16.3538 67.7738 16.5908 68.1748C16.8324 68.5713 16.9531 69.0361 16.9531 69.5693C16.9531 69.861 16.903 70.1572 16.8027 70.458C16.707 70.7542 16.5726 71.0505 16.3994 71.3467C16.2308 71.6429 16.0326 71.9346 15.8047 72.2217C15.5814 72.5088 15.3421 72.7913 15.0869 73.0693L12.4209 75.9609H17.4111Z" fill="white"/>
</svg>
