<svg width="86" height="86" viewBox="0 0 86 86" fill="none" xmlns="http://www.w3.org/2000/svg">
<path d="M66.703 31.2163C66.5153 31.2163 66.5153 31.5649 66.703 31.5649C67.1499 31.5649 73.3749 31.4621 73.8978 31.3593C73.9454 31.3522 73.9889 31.3282 74.0203 31.2917C74.0517 31.2552 74.069 31.2086 74.069 31.1605C74.069 31.1123 74.0517 31.0658 74.0203 31.0293C73.9889 30.9928 73.9454 30.9688 73.8978 30.9616C72.2577 30.7471 68.5084 31.1806 66.703 31.2163ZM69.1966 40.3416C68.991 40.3416 69.0268 40.6857 69.2234 40.6947C70.6802 40.7438 72.9504 40.6678 74.4385 40.6008C74.7111 40.6008 74.7424 40.1539 74.4385 40.1539C72.7716 40.1629 70.8679 40.1852 69.1966 40.3416ZM69.3888 24.9287C69.3455 24.9306 69.3043 24.9481 69.273 24.9781C69.2416 25.008 69.2222 25.0483 69.2184 25.0915C69.2146 25.1347 69.2266 25.1778 69.2522 25.2128C69.2777 25.2478 69.3152 25.2723 69.3575 25.2818C70.1574 25.3801 72.7538 25.4829 73.5358 25.1522C73.5758 25.1323 73.6083 25.1 73.6283 25.06C73.6483 25.0201 73.6548 24.9747 73.6467 24.9308C73.6386 24.8869 73.6164 24.8468 73.5835 24.8166C73.5506 24.7863 73.5088 24.7677 73.4643 24.7634C72.4275 24.7008 70.7652 25.0315 69.3888 24.9287ZM64.2854 33.5624C68.0571 33.5088 72.3292 33.2452 76.1367 32.8966C76.3735 32.8966 76.3512 32.4497 76.1054 32.4497C72.3605 32.5436 67.9856 32.7893 64.263 33.1737C64.2115 33.1766 64.1632 33.1999 64.1289 33.2385C64.0945 33.277 64.0769 33.3277 64.0798 33.3792C64.0828 33.4308 64.1061 33.479 64.1447 33.5134C64.1832 33.5478 64.2338 33.5654 64.2854 33.5624ZM69.6926 13.6584C70.7428 13.578 71.793 13.5154 72.8208 13.3903C73.1157 13.359 73.0398 12.9434 72.7493 12.9434C71.7036 13.0238 70.6579 13.1579 69.6211 13.2785C69.3798 13.3054 69.4469 13.6763 69.6926 13.6584ZM63.5614 22.9803C63.338 22.9803 63.3291 23.3602 63.5614 23.378C66.0878 23.4957 68.6193 23.3188 71.1048 22.8507C71.3863 22.8016 71.3416 22.3547 71.0556 22.4038C68.5806 22.8259 66.0719 23.0189 63.5614 22.9803ZM71.8779 15.799C72.2667 15.8928 72.3248 15.2582 71.9673 15.3208C70.2231 15.6036 68.4553 15.7128 66.6896 15.647C66.4528 15.647 66.3991 15.9911 66.6404 16.0179C68.3878 16.1933 70.1512 16.1196 71.8779 15.799ZM62.1985 33.3524C61.8499 33.2183 60.2411 33.4418 59.7898 33.4909C59.5708 33.4909 59.5619 33.844 59.7898 33.8395L61.6175 33.7814C62.4621 33.7501 62.4576 33.4552 62.1985 33.3524ZM64.0441 52.6889C63.6687 52.5996 61.0008 52.8006 60.5629 52.8275C60.3305 52.8275 60.3752 53.185 60.6076 53.1805C61.0812 53.1805 63.6776 53.1805 64.0888 53.0509C64.272 52.9883 64.2094 52.7247 64.0441 52.6889ZM60.5584 50.7986C61.8141 50.8567 64.9244 50.9103 66.1802 50.6109C66.2095 50.6107 66.2385 50.6043 66.2652 50.5922C66.2919 50.5801 66.3158 50.5626 66.3353 50.5407C66.3549 50.5187 66.3696 50.493 66.3785 50.4651C66.3875 50.4371 66.3905 50.4076 66.3874 50.3784C66.3842 50.3493 66.375 50.3211 66.3603 50.2957C66.3456 50.2703 66.3258 50.2483 66.302 50.231C66.2783 50.2138 66.2512 50.2017 66.2225 50.1955C66.1938 50.1894 66.1642 50.1893 66.1355 50.1953C64.2988 50.1953 62.5962 50.5037 60.612 50.4232C60.3752 50.4143 60.3126 50.7852 60.5584 50.7986ZM64.8931 42.8531C65.1613 42.8039 65.1389 42.4062 64.8574 42.4062C62.8732 42.6073 62.4576 42.6565 60.4243 42.7369C60.2277 42.7369 60.2054 43.0765 60.4243 43.0899C61.9181 43.1891 63.4183 43.1096 64.8931 42.8531ZM67.6459 40.0422C65.2149 40.1316 62.69 40.5427 60.1517 40.6321C60.1064 40.6391 60.065 40.6621 60.0351 40.6969C60.0052 40.7317 59.9888 40.7761 59.9888 40.822C59.9888 40.8679 60.0052 40.9123 60.0351 40.9471C60.065 40.982 60.1064 41.005 60.1517 41.0119C62.2565 41.0119 65.6439 40.9136 67.6951 40.4578C67.7379 40.4389 67.7735 40.4067 67.7967 40.366C67.8198 40.3254 67.8294 40.2784 67.8239 40.2319C67.8184 40.1854 67.7981 40.1419 67.7661 40.1078C67.7341 40.0736 67.692 40.0507 67.6459 40.0422ZM75.9266 51.5941C75.8909 51.5941 73.4375 51.7952 73.0174 51.7818C72.9776 51.7889 72.9412 51.8087 72.9136 51.8382C72.8859 51.8677 72.8686 51.9053 72.864 51.9455C72.8595 51.9857 72.8681 52.0263 72.8885 52.0612C72.9089 52.0961 72.94 52.1235 72.9772 52.1393C73.4777 52.2331 75.587 52.2689 76.0205 51.9024C76.0423 51.8784 76.0575 51.8491 76.0646 51.8174C76.0717 51.7857 76.0705 51.7527 76.0611 51.7216C76.0516 51.6905 76.0342 51.6624 76.0107 51.6401C75.9871 51.6177 75.9582 51.6019 75.9266 51.5941ZM76.7176 41.8476C73.6207 42.0487 70.1619 42.1649 67.0784 42.4286C66.8371 42.4286 66.8818 42.7905 67.1141 42.8039C68.781 42.8531 74.7111 42.5492 76.7578 42.29C76.787 42.2878 76.8155 42.2797 76.8415 42.2663C76.8675 42.2529 76.8906 42.2344 76.9094 42.2119C76.9281 42.1894 76.9422 42.1633 76.9507 42.1353C76.9592 42.1073 76.962 42.0778 76.9589 42.0487C76.9532 41.9902 76.9247 41.9362 76.8796 41.8986C76.8344 41.861 76.7762 41.8426 76.7176 41.8476ZM65.0853 31.6855C65.1446 31.6855 65.2014 31.662 65.2433 31.6201C65.2852 31.5782 65.3087 31.5214 65.3087 31.4621C65.3087 31.4028 65.2852 31.346 65.2433 31.3041C65.2014 31.2622 65.1446 31.2387 65.0853 31.2387C63.1592 31.2878 61.2153 31.3012 59.2759 31.4487C59.2342 31.458 59.1969 31.4812 59.1702 31.5145C59.1434 31.5478 59.1289 31.5892 59.1289 31.6319C59.1289 31.6746 59.1434 31.7161 59.1702 31.7494C59.1969 31.7827 59.2342 31.8059 59.2759 31.8151C61.2243 31.8509 63.1592 31.7481 65.0853 31.6855ZM72.7046 49.7261C72.0254 49.7261 69.5764 49.9004 68.9955 50.0032C68.8078 50.0345 68.781 50.3428 68.9955 50.3517C69.6256 50.383 72.0611 50.2266 72.7672 50.1641C73.0398 50.173 72.9817 49.7261 72.7046 49.7261ZM71.3997 52.2331L65.7824 52.5906C65.5277 52.5906 65.5903 52.9794 65.8405 52.966C66.9309 52.9168 70.4389 52.7783 71.4221 52.6442C71.641 52.6174 71.6455 52.2331 71.3997 52.2331ZM67.3778 13.3903C65.7288 13.2026 60.5539 13.5154 58.7977 13.6941C58.5564 13.7165 58.5385 14.0919 58.7977 14.0695C61.6845 13.8818 64.4954 13.8193 67.3823 13.8282C67.4327 13.8174 67.4778 13.7896 67.51 13.7493C67.5423 13.7091 67.5596 13.659 67.5591 13.6074C67.5585 13.5559 67.5402 13.5061 67.5072 13.4665C67.4741 13.4269 67.4284 13.4 67.3778 13.3903ZM67.856 25.4516C68.1375 25.4113 68.0347 25.0047 67.7532 25.0047C64.8768 25.3324 61.983 25.4816 59.0882 25.4516C59.0462 25.4583 59.0079 25.4797 58.9803 25.5121C58.9527 25.5444 58.9376 25.5856 58.9376 25.6281C58.9376 25.6706 58.9527 25.7117 58.9803 25.7441C59.0079 25.7764 59.0462 25.7979 59.0882 25.8046C62.0155 25.9456 64.9495 25.8274 67.856 25.4516ZM64.8216 16.0939C64.851 16.0911 64.8796 16.0825 64.9056 16.0686C64.9317 16.0547 64.9547 16.0358 64.9734 16.0129C64.9921 15.9901 65.0061 15.9638 65.0146 15.9355C65.0231 15.9072 65.0258 15.8775 65.0227 15.8481C65.0199 15.8187 65.0114 15.7902 64.9975 15.7641C64.9836 15.738 64.9646 15.715 64.9418 15.6963C64.9189 15.6776 64.8926 15.6636 64.8643 15.6552C64.836 15.6467 64.8063 15.6439 64.777 15.647C62.8062 15.8928 60.9382 15.9017 58.9943 16.0715C58.7888 16.0939 58.7664 16.4291 58.9943 16.438C60.9426 16.4695 62.8906 16.3545 64.8216 16.0939ZM59.2848 23.168C59.0614 23.168 59.0569 23.521 59.3116 23.53C60.1136 23.6055 60.9199 23.6264 61.7248 23.5925C61.761 23.5764 61.7918 23.55 61.8134 23.5167C61.835 23.4834 61.8465 23.4446 61.8465 23.4049C61.8465 23.3652 61.835 23.3263 61.8134 23.293C61.7918 23.2597 61.761 23.2334 61.7248 23.2172C61.6443 23.1725 59.6959 23.168 59.2848 23.168ZM53.7077 25.742C53.9669 25.742 54.9277 24.1511 55.4684 23.606C55.6651 23.4093 55.3433 23.0786 55.1422 23.2663C54.5721 23.7803 54.0785 24.3732 53.6764 25.027L52.5458 23.9858C52.3135 23.7713 52.014 24.1377 52.2286 24.3567C52.4431 24.5757 53.377 25.742 53.7077 25.742ZM50.6511 18.4445C52.4833 18.5517 54.387 18.516 56.3979 18.5294C56.5409 18.5294 56.6259 18.1317 56.3979 13.3858C56.3979 13.0417 56.3667 12.787 56.3622 12.6931C56.3633 12.6793 56.3615 12.6654 56.3569 12.6523C56.3523 12.6392 56.345 12.6272 56.3354 12.6172C56.2058 12.4786 55.3612 12.4876 53.4619 12.5367C50.2667 12.6127 49.9137 12.5904 49.9137 12.7736C49.9003 12.8093 50.1014 18.3909 50.6511 18.4445ZM50.7762 18.1138C50.5527 16.9206 50.3919 14.4002 50.2533 12.9881C51.5538 13.064 54.5166 12.9166 56.0092 12.8808C56.0092 12.8808 56.0896 16.8536 56.1253 18.1361C54.3736 18.0959 52.5458 18.0289 50.7583 18.0914L50.7762 18.1138Z" fill="#2A344A"/>
<path d="M57.0146 26.9096C57.39 26.7622 56.9521 22.5972 56.8895 21.5024C56.8864 21.4799 56.8753 21.4592 56.8582 21.4443C56.5901 21.2119 50.9192 21.5203 50.6332 21.5426C50.3472 21.5649 50.6332 23.1201 50.6823 24.1792C50.7851 26.8158 50.9058 27.0437 51.0398 27.0616C52.014 27.2001 56.1209 27.2582 57.0146 26.9096ZM50.9058 21.909C52.8408 21.7839 54.8026 21.775 56.5454 21.766C56.5901 22.8117 56.6616 25.7567 56.751 26.5521C54.9297 26.7405 53.0968 26.7928 51.2677 26.7085C51.3437 26.0427 50.9728 22.6643 50.9058 21.909ZM54.5434 33.1928L55.5801 32.2543C55.6104 32.2032 55.6237 32.1439 55.6181 32.0848C55.6126 32.0257 55.5886 31.9699 55.5494 31.9253C55.5103 31.8806 55.458 31.8496 55.4001 31.8364C55.3422 31.8233 55.2817 31.8288 55.2271 31.8521C54.8026 32.1136 54.4174 32.4341 54.0831 32.804L53.1536 31.946C53.1032 31.8992 53.0363 31.8743 52.9676 31.8768C52.8989 31.8793 52.834 31.909 52.7871 31.9594C52.7403 32.0098 52.7154 32.0767 52.7179 32.1454C52.7205 32.2141 52.7502 32.279 52.8005 32.3258L53.6943 33.2196C52.8899 34.0687 52.5369 34.6004 52.6173 34.8418C52.6978 35.0831 52.9882 34.9758 53.0642 34.8686C53.377 34.4843 53.7301 34.0463 54.1099 33.6397C54.4865 34.0508 54.9043 34.4222 55.3567 34.7479C55.4034 34.76 55.4525 34.7593 55.4988 34.7459C55.5451 34.7324 55.5869 34.7067 55.6199 34.6715C55.6528 34.6363 55.6756 34.5928 55.6859 34.5457C55.6962 34.4986 55.6937 34.4496 55.6785 34.4038C55.3421 33.9628 54.9617 33.557 54.5434 33.1928ZM54.7802 14.035C54.0664 14.6593 53.4832 15.4187 53.0642 16.2694C52.7276 15.8664 52.34 15.5089 51.9113 15.2058C51.6476 15.0226 51.308 15.3712 51.5672 15.5678C52.0769 16.0183 52.5533 16.5052 52.9927 17.0246C53.1089 17.1453 53.2206 17.0827 53.3189 16.9531C53.8056 16.005 54.4058 15.1196 55.1065 14.3165C55.321 14.0797 55.0126 13.816 54.7802 14.035ZM54.6372 43.2118C54.8696 43.051 55.7544 41.3439 56.2683 40.7629C56.4694 40.5395 56.1209 40.2311 55.893 40.468C55.2812 41.0982 54.7567 41.8077 54.3333 42.5773L53.2921 41.6835C53.0642 41.4913 52.7603 41.8354 52.9972 42.0633C53.234 42.2913 54.2529 43.5425 54.6372 43.2118ZM58.0469 48.9408C57.8771 48.6057 51.7638 48.9408 51.7057 48.9408C51.6924 48.9425 51.6797 48.9474 51.6687 48.9552C51.6578 48.963 51.649 48.9734 51.6431 48.9855C51.4376 49.3162 51.6431 54.6922 51.7906 55.1927C51.9649 55.8004 57.8905 55.2955 58.1855 55.3223C58.1943 55.3242 58.2036 55.3242 58.2125 55.3223C58.2213 55.3203 58.2297 55.3164 58.2369 55.3109C58.2442 55.3054 58.2501 55.2983 58.2543 55.2902C58.2586 55.2822 58.261 55.2733 58.2614 55.2642C58.3553 54.5805 58.0693 48.9855 58.0469 48.9408ZM51.9917 49.2671C53.7792 49.343 55.893 49.2313 57.7073 49.2268C57.7341 49.9731 57.895 54.3526 57.9173 54.9424C55.9332 55.0318 54.2663 55.0005 52.1526 54.9424C52.1749 54.1961 52.0185 49.9463 51.9917 49.2805V49.2671Z" fill="#2A344A"/>
<path d="M54.1509 52.1638C54.4682 52.1638 56.0904 52.2755 56.22 52.204C56.2541 52.1846 56.2833 52.1575 56.3053 52.125C56.3273 52.0924 56.3414 52.0552 56.3466 52.0162C56.3518 51.9773 56.3479 51.9377 56.3352 51.9005C56.3226 51.8633 56.3015 51.8295 56.2736 51.8018C56.0367 51.5516 54.5397 51.6052 54.2894 51.6543C53.9498 51.7169 53.8872 51.8465 53.8962 51.9448C53.9081 52.0045 53.9396 52.0585 53.9858 52.0982C54.032 52.1379 54.0901 52.161 54.1509 52.1638ZM54.7542 39.0479C53.2884 39.0747 51.7467 39.1283 51.492 39.1462C51.3937 39.1462 51.2909 39.2311 51.2775 40.1606C51.2775 41.2733 51.4696 44.7992 51.9165 44.8305C52.8103 44.8975 57.431 44.9154 58.0254 44.8707C58.1192 44.8707 58.1952 44.8707 58.0254 42.5469C57.9315 41.3493 57.7215 39.173 57.7215 39.173C57.7036 39.0836 57.6947 39.0032 54.7542 39.0479ZM57.3863 39.4411C57.4936 41.108 57.5517 42.8151 57.7304 44.4909H52.0461C51.8718 42.8776 51.7556 41.2152 51.6305 39.5081L57.3863 39.4411ZM52.5466 36.5319C54.3609 36.5319 57.3953 36.2861 57.4221 36.2727C57.7081 36.1253 57.4221 32.0899 57.3282 30.365C57.3282 30.0566 55.7507 30.0522 54.4414 30.1013C53.8694 30.1013 51.0272 30.2533 51.0362 30.6599C51.1881 36.6436 51.1523 36.3532 51.2641 36.4157C51.6823 36.5248 52.1156 36.5641 52.5466 36.5319ZM51.6037 36.085C51.5009 34.3243 51.4652 32.4564 51.3937 30.7225C53.2493 30.5577 55.1126 30.495 56.9752 30.5348C56.9752 31.147 57.0959 35.2181 57.1718 35.8974C56.5104 35.942 52.2964 35.9733 51.6171 36.0895L51.6037 36.085Z" fill="#2A344A"/>
<path d="M85.1681 43.145C83.9973 11.2958 84.4888 11.5639 84.2743 11.3762C83.9705 11.0902 81.6243 11.2779 81.0479 11.3092L80.8065 6.4248C80.8181 6.39534 80.8223 6.36354 80.8189 6.3321C80.8155 6.30066 80.8045 6.2705 80.787 6.24418C80.7695 6.21787 80.7458 6.19617 80.7181 6.18094C80.6904 6.1657 80.6594 6.15738 80.6278 6.15667C71.2433 6.04048 61.5862 6.66165 51.9023 7.31856C49.2925 7.50178 46.58 7.66266 43.9255 7.9442C43.9007 7.94021 43.8753 7.94178 43.8512 7.9488C43.827 7.95581 43.8047 7.9681 43.7859 7.98478C43.7671 8.00145 43.7522 8.0221 43.7424 8.04522C43.7325 8.06834 43.7279 8.09336 43.7289 8.11848C44.2204 20.0502 45.6505 39.3375 48.1217 60.6939C48.1485 60.9397 50.1863 60.7252 52.0185 60.6046C52.0425 61.1303 52.1372 61.6504 52.3 62.1508C52.5682 62.4904 85.7178 60.4348 85.6775 59.0226C85.5345 53.7182 85.3424 48.3466 85.1681 43.145ZM82.6566 57.0787C70.9037 58.8662 60.335 59.3667 48.5328 60.3856C46.1957 40.1375 45.2349 26.2484 44.064 8.25701C47.6927 8.04251 61.1125 6.80912 80.4982 6.5544C80.9808 19.5452 82.7773 55.6487 82.6432 57.0787H82.6566ZM26.5597 26.3557C26.2559 26.3557 26.2603 26.9455 26.4033 27.169C26.4198 27.2017 26.4456 27.2289 26.4773 27.2471C26.5091 27.2654 26.5455 27.274 26.5821 27.2718C26.8547 27.2405 26.8413 26.3869 26.5597 26.3557ZM24.9644 28.9386C25.1565 28.9878 25.6749 29.0191 25.7956 28.8403C25.9654 28.5901 25.5051 26.3199 25.447 26.159C25.435 26.1262 25.4118 26.0987 25.3815 26.0814C25.3511 26.0641 25.3156 26.0581 25.2813 26.0646C25.2469 26.071 25.216 26.0894 25.194 26.1165C25.1719 26.1437 25.1603 26.1777 25.161 26.2127C25.161 26.6193 25.3442 28.0002 25.4157 28.5767L24.9688 28.6035C24.9362 28.6174 24.9083 28.6405 24.8885 28.67C24.8687 28.6995 24.8579 28.7341 24.8574 28.7696C24.857 28.8051 24.8668 28.84 24.8858 28.87C24.9048 28.9 24.9321 28.9239 24.9644 28.9386ZM26.1799 25.52C26.3122 25.4838 26.4513 25.4803 26.5852 25.5099C26.7191 25.5395 26.8438 25.6012 26.9485 25.6898C27.1228 25.8462 27.458 25.5468 26.9798 25.2429C26.6357 25.0106 25.8313 24.9301 25.9162 25.3412C25.9301 25.3985 25.9648 25.4485 26.0135 25.4816C26.0623 25.5146 26.1216 25.5283 26.1799 25.52Z" fill="#2A344A"/>
<path d="M39.2826 41.7659C36.4091 38.9327 31.2387 35.6034 26.5911 34.942C26.6681 34.6764 26.6681 34.3943 26.5911 34.1287C26.9449 33.833 27.2738 33.5087 27.5743 33.159C28.2133 32.4082 28.1999 31.6753 27.2883 32.0462C28.182 30.071 28.182 25.7899 27.8603 23.3857C29.3573 24.3197 31.8822 23.4214 31.5739 21.5982C33.6072 22.2104 34.9299 18.1706 32.347 17.4422C32.7089 14.3855 28.7943 13.9431 27.5966 15.7262C26.9218 13.7554 23.8205 14.7922 24.0439 16.3384C22.6452 14.8369 19.6243 15.3597 19.2042 17.2322C17.9395 16.0837 15.8526 16.5708 16.0358 18.2644C14.0338 17.3349 12.9747 19.7302 14.5298 20.4988C13.5333 21.0351 13.5646 23.2427 15.0929 23.2427C15.0929 24.7174 15.9867 28.0958 18.1987 29.9459C18.4356 32.015 18.011 33.0741 17.2737 34.9912C9.98061 36.0994 4.44376 41.7882 1.9591 48.8445C-0.874117 56.8883 0.470992 64.4853 8.86787 66.0851C8.8504 67.1586 8.72464 68.2276 8.49249 69.2758C8.48831 69.3154 8.49852 69.3551 8.52126 69.3878C8.544 69.4204 8.57773 69.4437 8.61629 69.4535C8.65484 69.4633 8.69563 69.4588 8.73117 69.441C8.76671 69.4231 8.79462 69.393 8.80978 69.3563C9.10891 68.3152 9.27116 67.2396 9.29241 66.1566C11.3153 66.4573 13.3819 66.1419 15.2231 65.2516C17.0643 64.3613 18.5948 62.9373 19.6153 61.165C20.909 61.6564 22.2294 62.0741 23.5702 62.4162C27.7888 63.6094 33.2899 64.7936 38.5005 63.3815C38.3977 65.8795 38.2547 67.8816 38.0313 69.8702C38.0313 70.0668 38.3039 70.1249 38.3352 69.9283C38.5094 68.8826 38.9429 64.2931 38.9161 63.2608C42.232 62.2419 44.4485 59.9405 44.9937 56.9509C45.9455 51.8833 43.8005 46.1945 39.2826 41.7659ZM20.3035 22.5187C20.4197 23.8236 20.3035 24.7531 19.9058 25.3564C19.7583 25.5754 19.5349 25.8033 19.3427 25.8033C19.1953 25.6424 18.23 24.6414 17.3184 25.2268C16.724 25.6156 16.6972 26.3709 17.2603 27.354C17.6627 27.9511 17.9506 28.6179 18.1094 29.3203C16.3978 27.4612 15.875 25.7184 15.4817 23.2204C15.936 23.1384 16.3506 22.9091 16.6615 22.5679C17.4435 23.7298 19.3562 23.4974 20.3035 22.5187ZM17.5329 25.5218C18.1362 25.1509 18.6948 25.5978 19.2042 26.0446C19.5036 26.3083 19.9952 25.9374 20.2276 25.5978C20.8353 24.7576 20.7817 23.3634 20.7013 22.6662C21.135 23.0793 21.711 23.3097 22.31 23.3097C22.909 23.3097 23.4851 23.0793 23.9188 22.6662C24.0082 23.9532 26.7073 24.2482 27.4179 23.1801C27.7441 25.4145 27.9005 30.2453 26.8191 32.2697C25.9253 32.6629 23.892 33.5612 22.882 33.1634C22.0151 32.8193 21.5772 31.4966 20.5672 30.929C19.8879 30.5537 19.307 30.9782 19.7807 31.7379C20.9783 33.6416 20.8711 34.3655 19.9237 36.3229C19.0934 36.0966 18.3169 35.7061 17.6401 35.1744C18.6233 33.7667 18.8914 31.2553 18.6456 29.5839C18.4266 28.0958 18.1987 28.1852 17.6089 27.0859C17.3363 26.6345 17.0949 25.7989 17.5329 25.5218ZM25.0718 34.5354C25.0361 34.5519 25.0077 34.5809 24.992 34.6169C24.9763 34.6529 24.9743 34.6934 24.9864 34.7308C24.9985 34.7682 25.0238 34.7999 25.0577 34.8198C25.0915 34.8398 25.1315 34.8467 25.1701 34.8392C25.5533 34.7708 25.9165 34.6181 26.2336 34.3924C26.2594 34.8091 26.1496 35.2229 25.9208 35.5721C25.8404 35.6838 25.9834 36.019 26.2739 35.6034C26.2515 36.8368 25.6214 38.3607 24.4104 38.9595C23.5896 38.8111 22.8085 38.4942 22.1162 38.0289C21.424 37.5636 20.8357 36.9599 20.3884 36.2558C21.7291 33.9589 20.5493 32.2339 20.1561 31.5189C19.9371 31.1078 20.0488 31.0452 20.4063 31.2776C21.2509 31.8139 21.9927 33.3109 22.8105 33.512C24.3523 33.8829 26.2515 32.9534 27.181 32.5378C27.6637 32.3188 27.9452 32.1714 27.3643 32.8998C26.5867 33.8606 26.1443 34.0617 25.0718 34.5354ZM6.15978 53.6082C6.14361 53.6445 6.14108 53.6855 6.15266 53.7235C6.16424 53.7616 6.18914 53.7942 6.22281 53.8154C6.25647 53.8366 6.29665 53.8449 6.33596 53.8389C6.37527 53.8328 6.41109 53.8128 6.43684 53.7825C10.356 47.6066 16.8402 43.321 20.1784 36.7117C20.6968 37.8646 22.9133 39.3483 24.2808 39.3483C24.2808 40.461 24.1691 41.7838 24.0529 43.0529C22.7122 42.7445 19.088 41.6095 18.4356 40.1258C18.3596 39.9426 18.0647 40.0677 18.1362 40.251C18.7484 41.9089 22.529 43.2406 24.0126 43.5221C23.6993 46.8612 23.0785 50.1642 22.1581 53.3892C21.4833 55.8024 20.6164 58.7205 19.3651 60.879C18.3675 62.6535 16.8412 64.0727 14.9988 64.9386C13.1564 65.8046 11.0897 66.0741 9.08684 65.7097C0.837434 64.2618 -0.404893 56.8213 2.39705 48.9607C5.01577 41.5961 10.7492 36.4123 17.3631 35.4291C18.082 35.9592 18.8679 36.392 19.7003 36.7161C16.3487 43.1825 9.95826 47.4279 6.15978 53.6082ZM22.5424 53.5769C26.8848 51.7469 31.4986 50.6433 36.1991 50.3102C37.5397 50.2209 38.8804 50.2253 40.221 50.2253C40.4176 50.2253 40.4221 49.9036 40.221 49.9036C39.3093 49.8403 38.395 49.8239 37.4816 49.8544C37.2627 48.0669 34.0406 42.8518 32.9458 41.4084C32.9178 41.3819 32.8811 41.3663 32.8426 41.3646C32.8041 41.3628 32.7662 41.375 32.7359 41.3988C32.7055 41.4226 32.6848 41.4565 32.6774 41.4944C32.67 41.5323 32.6764 41.5715 32.6955 41.605C34.8897 44.6795 36.6638 48.5942 37.0169 49.8723C33.0888 50.0198 27.0291 50.9493 22.6675 53.0854C23.0787 51.5794 24.6696 45.3677 24.7053 39.2321C25.9342 38.6824 26.8101 36.6938 26.7073 35.3576C31.3408 36.4128 35.5904 38.7334 38.9831 42.0608C42.9648 45.9621 45.4048 50.9984 44.654 56.4727C44.2563 59.6009 42.0353 62.023 38.7195 62.9033C33.0039 64.4674 27.1229 63.1089 21.4788 61.3571C20.9324 61.1732 20.3759 61.021 19.812 60.9013C20.9541 58.5527 21.8684 56.1 22.5424 53.5769Z" fill="#2A344A"/>
<path d="M22.3237 24.8055C22.4392 24.6349 22.5933 24.4938 22.7734 24.3936C22.9535 24.2935 23.1546 24.2371 23.3605 24.229C23.6867 24.229 23.6688 23.7375 23.3605 23.7822C23.0951 23.8101 22.8395 23.8983 22.6134 24.04C22.3872 24.1817 22.1964 24.3732 22.0556 24.6C21.9394 24.7832 22.1986 24.9843 22.3237 24.8055ZM23.3784 26.0434C23.1952 26.1909 23.2086 26.9371 23.4856 26.9371C23.549 26.9305 23.6082 26.9026 23.6537 26.858C23.6992 26.8133 23.7281 26.7546 23.7359 26.6914C23.8387 26.3026 23.575 25.9049 23.3784 26.0434ZM22.9851 29.7346C22.9768 29.6997 22.9578 29.6682 22.9309 29.6444C22.9039 29.6206 22.8703 29.6058 22.8346 29.6019C22.7989 29.598 22.7628 29.6052 22.7314 29.6225C22.6999 29.6399 22.6746 29.6666 22.6589 29.6989C22.6142 29.7614 22.5293 29.9536 22.717 30.3424C22.8444 30.607 23.0643 30.8159 23.3352 30.9295C23.606 31.0431 23.9091 31.0537 24.1872 30.9591C24.2249 30.9441 24.2558 30.9158 24.2739 30.8796C24.2921 30.8434 24.2964 30.8018 24.2859 30.7627C24.2755 30.7235 24.251 30.6896 24.2171 30.6673C24.1833 30.645 24.1424 30.6359 24.1023 30.6418C23.4677 30.7669 23.1013 30.3647 22.9851 29.7346Z" fill="#2A344A"/>
<path d="M16.3407 25.059C16.3163 25.1131 16.3145 25.1746 16.3354 25.23C16.3564 25.2854 16.3986 25.3302 16.4526 25.3545C16.5066 25.3789 16.5681 25.3808 16.6235 25.3598C16.679 25.3388 16.7238 25.2966 16.7481 25.2426C16.7725 25.1886 16.7743 25.1271 16.7534 25.0717C16.7324 25.0163 16.6902 24.9715 16.6362 24.9471C16.5822 24.9228 16.5207 24.9209 16.4653 24.9419C16.4098 24.9629 16.365 25.005 16.3407 25.059ZM18.0011 23.778C17.9768 23.832 17.9749 23.8935 17.9959 23.9489C18.0169 24.0043 18.059 24.0491 18.113 24.0735C18.1671 24.0978 18.2286 24.0997 18.284 24.0787C18.3394 24.0577 18.3842 24.0156 18.4085 23.9615C18.4329 23.9075 18.4348 23.846 18.4138 23.7906C18.3928 23.7352 18.3506 23.6904 18.2966 23.666C18.2426 23.6417 18.1811 23.6398 18.1257 23.6608C18.0703 23.6818 18.0255 23.7239 18.0011 23.778ZM19.9448 23.8156C19.9691 23.7615 19.971 23.7001 19.95 23.6446C19.929 23.5892 19.8869 23.5444 19.8328 23.5201C19.7788 23.4957 19.7173 23.4938 19.6619 23.5148C19.6065 23.5358 19.5617 23.578 19.5373 23.632C19.513 23.686 19.5111 23.7475 19.5321 23.8029C19.5531 23.8583 19.5952 23.9031 19.6493 23.9275C19.7033 23.9518 19.7648 23.9537 19.8202 23.9327C19.8756 23.9117 19.9204 23.8696 19.9448 23.8156ZM16.3121 23.5561C16.2877 23.6101 16.2858 23.6716 16.3068 23.727C16.3278 23.7824 16.37 23.8273 16.424 23.8516C16.478 23.8759 16.5395 23.8778 16.5949 23.8568C16.6503 23.8358 16.6951 23.7937 16.7195 23.7397C16.7438 23.6856 16.7457 23.6242 16.7247 23.5687C16.7037 23.5133 16.6616 23.4685 16.6076 23.4442C16.5535 23.4198 16.492 23.4179 16.4366 23.4389C16.3812 23.4599 16.3364 23.5021 16.3121 23.5561ZM18.4201 24.9912C18.3957 25.0452 18.3939 25.1067 18.4148 25.1621C18.4358 25.2175 18.478 25.2623 18.532 25.2867C18.586 25.311 18.6475 25.3129 18.7029 25.2919C18.7584 25.2709 18.8032 25.2288 18.8275 25.1747C18.8519 25.1207 18.8537 25.0592 18.8328 25.0038C18.8118 24.9484 18.7696 24.9036 18.7156 24.8792C18.6616 24.8549 18.6001 24.853 18.5447 24.874C18.4892 24.895 18.4444 24.9371 18.4201 24.9912Z" fill="#2A344A"/>
<path d="M16.9548 27.1951C16.9305 27.2491 16.9286 27.3106 16.9496 27.366C16.9706 27.4214 17.0127 27.4662 17.0668 27.4906C17.1208 27.5149 17.1823 27.5168 17.2377 27.4958C17.2931 27.4748 17.3379 27.4327 17.3623 27.3786C17.3866 27.3246 17.3885 27.2631 17.3675 27.2077C17.3465 27.1523 17.3044 27.1075 17.2503 27.0831C17.1963 27.0588 17.1348 27.0569 17.0794 27.0779C17.024 27.0989 16.9792 27.141 16.9548 27.1951Z" fill="#2A344A"/>
<path d="M85.1672 43.1281C83.9963 11.2789 84.4879 11.547 84.2734 11.3593C83.9695 11.0733 81.6179 11.2694 81.0414 11.3006L52.0182 60.5877H52.0176C52.0416 61.1134 52.1388 61.7795 52.3016 62.28C52.5698 62.6196 85.8579 60.6452 85.8177 59.233C85.6747 53.9286 85.3415 48.3297 85.1672 43.1281ZM82.7708 57.2018C71.0178 58.9893 63.8203 59.5688 52.0182 60.5877L81.0414 11.3006C81.6882 26.7001 82.8908 55.9218 82.7708 57.2018Z" fill="#4E6AF3"/>
<rect y="58" width="28" height="28" rx="14" fill="#4E6AF3"/>
<path d="M15.0459 66.9922V77H13.7812V68.5713L11.2314 69.501V68.3594L14.8477 66.9922H15.0459Z" fill="white"/>
</svg>
