<svg width="86" height="86" viewBox="0 0 86 86" fill="none" xmlns="http://www.w3.org/2000/svg">
<path d="M61.1467 16.4441C61.2112 16.4441 61.2757 16.4226 61.2972 16.3581C61.4262 16.1646 61.4262 15.6916 61.1682 15.6916C60.9317 15.6916 60.9102 16.4011 61.1467 16.4441ZM62.5657 17.7341C62.6087 17.6481 62.5657 17.5621 62.4797 17.5406L62.1142 17.5191C62.1787 17.0461 62.3292 15.9066 62.3292 15.5626C62.3292 15.5196 62.3077 15.4551 62.2432 15.4551C62.1787 15.4336 62.1142 15.4551 62.0927 15.5196C62.0497 15.6486 61.6627 17.5406 61.8132 17.7341C61.9207 17.8846 62.3507 17.8631 62.5012 17.8201C62.5227 17.7986 62.5442 17.7771 62.5657 17.7341ZM61.6842 14.8316C61.7487 14.4876 61.0822 14.5521 60.8027 14.7456C60.4157 15.0036 60.6737 15.2401 60.8242 15.1111C60.9962 14.9606 61.2327 14.9176 61.4692 14.9606C61.5767 15.0036 61.6627 14.9391 61.6842 14.8316Z" fill="#2A344A"/>
<path d="M68.4352 21.7107C68.6932 21.653 67.5537 19.1952 68.0912 18.6577C69.9187 17.1312 70.6712 14.3147 70.6712 13.0892C71.9397 13.0892 71.9612 11.2617 71.1442 10.8102C72.4342 10.1652 71.5527 8.18721 69.8972 8.96121C70.0477 7.56371 68.3277 7.15521 67.2742 8.10121C66.9302 6.55321 64.4147 6.12321 63.2537 7.37021C63.4472 6.08021 60.8672 5.22021 60.3082 6.85421C59.3192 5.37071 56.0727 5.73621 56.3737 8.27321C54.2237 8.87521 55.3202 12.2292 57.0187 11.7132C56.7607 13.2182 58.8462 13.9707 60.0932 13.1967C59.8352 15.1962 59.4185 20.3826 61.9594 21.9462M69.3597 12.5302C69.6177 12.8097 69.9617 13.0032 70.3487 13.0677C70.0262 15.1317 69.5962 16.5937 68.1772 18.1202C68.3062 17.5397 68.5427 16.9807 68.8867 16.4862C69.3597 15.6692 69.3382 15.0457 68.8437 14.7232C68.0912 14.2287 67.2957 15.0672 67.1667 15.1962C67.0162 15.1962 66.8227 15.0027 66.6937 14.8307C66.3712 14.3362 66.2637 13.5622 66.3712 12.4872C67.1237 13.3042 68.7147 13.4977 69.3597 12.5302ZM68.4352 21.7107L61.9594 21.9462C62.1548 21.5553 59.223 20.7735 60.4587 13.0247C61.0392 13.9062 63.2967 13.6697 63.3612 12.5947C64.1137 13.3042 65.2747 13.3042 66.0272 12.5947C65.9627 13.1752 65.9197 14.3362 66.4142 15.0242C66.6077 15.3037 67.0162 15.6047 67.2527 15.3897C67.6827 15.0242 68.1342 14.6587 68.6287 14.9597C68.9942 15.1962 68.8007 15.8842 68.5642 16.2497C68.0697 17.1527 67.8762 17.0882 67.7042 18.3137C67.5107 19.7327 68.4352 21.7107 68.4352 21.7107Z" fill="#2A344A"/>
<path d="M64.888 14.2078C64.6515 13.8208 64.243 13.5843 63.813 13.5198C63.555 13.4768 63.5335 13.8853 63.813 13.8853C64.157 13.9068 64.4795 14.0788 64.673 14.3583C64.7805 14.5303 64.9955 14.3798 64.888 14.2078ZM63.512 15.9493C63.5335 16.0568 63.6195 16.1428 63.727 16.1428C63.9635 16.1428 63.9635 15.5193 63.813 15.4118C63.641 15.3043 63.426 15.6268 63.512 15.9493ZM63.1895 19.2173C63.125 19.2173 63.0605 19.2388 63.039 19.3033C63.0175 19.3678 63.039 19.4538 63.125 19.4753C63.598 19.6473 64.1355 19.4108 64.3505 18.9593C64.501 18.6368 64.4365 18.4863 64.3935 18.4218C64.372 18.3788 64.329 18.3573 64.3075 18.3358C64.2215 18.3143 64.157 18.3573 64.1355 18.4433C64.028 19.0023 63.727 19.3248 63.1895 19.2173Z" fill="#2A344A"/>
<path d="M26.2294 17.007C25.5844 17.394 24.7029 17.007 24.1439 16.534C24.0794 16.4695 23.9719 16.4695 23.8859 16.534C23.8644 16.577 23.8429 16.62 23.8429 16.663C23.9074 17.2005 24.2299 17.6735 24.7029 17.91C24.7459 17.9315 24.8104 17.91 24.8319 17.8455C24.8534 17.8025 24.8319 17.7595 24.8104 17.738C24.5739 17.566 24.4019 17.3295 24.3159 17.0715C24.7674 17.3725 25.6489 17.8025 26.3369 17.136C26.3799 17.1145 26.3799 17.05 26.3584 17.007C26.3369 16.964 26.2724 16.964 26.2294 17.007ZM26.5949 15.3515C26.5519 15.373 26.5304 15.4375 26.5519 15.4805C26.5734 15.5235 26.5949 15.545 26.6379 15.545C26.9819 15.545 27.2614 15.2655 27.2614 14.9215C27.2614 14.857 27.2399 14.7925 27.2184 14.728C27.0894 14.427 26.7884 14.47 26.7239 13.8035C26.7239 13.7605 26.6809 13.7175 26.6379 13.7175C26.5949 13.7175 26.5519 13.7605 26.5519 13.8035C26.5519 13.954 26.5519 14.126 26.5519 14.2765C26.6164 14.6635 26.9389 14.728 26.8744 15.0075C26.8529 15.158 26.7454 15.287 26.5949 15.3515ZM24.5094 13.137C24.5739 13.6745 24.3804 14.04 24.5309 14.212C24.6384 14.341 24.8319 14.341 24.9394 14.2335C25.0039 14.169 25.0469 14.1045 25.0469 14.0185C25.0469 13.696 25.0039 13.3735 24.9179 13.0725C24.8749 12.965 24.7459 12.9005 24.6169 12.9435C24.5739 12.9865 24.5094 13.051 24.5094 13.137ZM28.0784 12.879C28.0354 12.7715 27.9064 12.707 27.7774 12.75C27.6914 12.7715 27.6484 12.8575 27.6484 12.9435C27.6699 13.223 27.6484 13.524 27.6054 13.8035C27.6054 13.954 27.7129 14.1045 27.8849 14.1045H27.9064C28.3364 14.126 28.1859 13.5025 28.0784 12.879ZM24.6169 11.847C24.7029 11.8255 24.7674 11.7395 24.7459 11.632C24.7244 11.546 24.6599 11.503 24.5954 11.503C24.0794 11.46 23.7354 12.0405 23.6709 12.2555C23.6279 12.363 23.7999 12.4275 23.8644 12.32C24.0149 12.062 24.3159 11.8685 24.6169 11.847ZM27.3904 11.761C28.0354 11.761 28.0569 12.019 28.1644 12.019C28.2074 12.019 28.2504 11.976 28.2719 11.933C28.2719 11.9115 28.2719 11.89 28.2504 11.8685V11.847C28.1859 11.718 28.0139 11.3525 27.3474 11.46C27.1754 11.4815 27.1969 11.761 27.3904 11.761ZM26.7669 25.306C26.9389 25.306 27.0679 25.177 27.0679 25.005C27.0679 24.833 26.9389 24.704 26.7669 24.704C26.5949 24.704 26.4659 24.833 26.4659 25.005C26.4659 25.177 26.5949 25.306 26.7669 25.306ZM26.8529 26.6605C26.8744 26.8325 27.0464 26.9615 27.2184 26.94C27.3689 26.9185 27.4979 26.811 27.4979 26.6605C27.4764 26.4885 27.3044 26.3595 27.1324 26.381C26.9819 26.381 26.8529 26.51 26.8529 26.6605Z" fill="#2A344A"/>
<path fillRule="evenodd" clipRule="evenodd" d="M40.3763 12.4286C39.8603 12.4716 39.3443 12.3641 38.8928 12.0846C38.4198 11.7191 38.1188 11.1816 38.0328 10.6226C37.9038 9.99915 37.8608 5.84965 37.9038 5.46265C37.9898 4.30165 38.5273 3.69965 39.6238 3.61365C39.8173 3.59215 47.9013 3.42015 48.0303 3.42015C49.3418 3.37715 49.9223 4.49515 49.9223 5.80665C49.9247 6.28595 49.9273 6.72508 49.9296 7.12766C49.9491 10.4271 49.9541 11.2714 49.6858 11.6546C49.3484 12.1342 48.0427 12.0855 47.1987 12.0541C47.021 12.0475 46.8637 12.0416 46.7403 12.0416C46.7403 12.6466 46.9715 12.8817 47.1248 13.0375C47.2275 13.142 47.2952 13.2109 47.2348 13.3316C47.1918 13.4176 47.1058 13.4606 46.9983 13.4391C46.8805 13.4055 46.3771 13.2367 45.8017 13.0438C44.9073 12.7439 43.8387 12.3856 43.7733 12.3856C43.7274 12.3856 43.1365 12.3935 42.4593 12.4025C41.5509 12.4145 40.4872 12.4286 40.3763 12.4286ZM43.2359 10.3435C43.3004 10.4295 43.4294 10.4295 43.5154 10.365C43.5236 10.3568 43.5286 10.3486 43.533 10.3415C43.54 10.3302 43.5451 10.322 43.5584 10.322C44.4829 8.70948 45.5364 7.13998 46.6974 5.67798C46.7404 5.63498 46.7189 5.57048 46.6759 5.52748C46.6329 5.50598 46.5899 5.50598 46.5469 5.52748C45.2569 6.79598 44.1604 8.25798 43.3434 9.87048C42.7414 9.16098 42.0749 8.51598 41.3654 7.91398C41.1504 7.76348 41.0214 7.89248 41.0859 8.10748C41.1289 8.15048 42.9134 9.93498 43.2359 10.3435Z" fill="#4E6AF3"/>
<path d="M27.942 71.7023C27.34 71.2723 24.8245 69.1223 24.4805 68.8428L24.48 68.8428L24.3945 69.1438C24.674 69.4018 27.77 71.8958 27.899 71.8958C27.9635 71.8958 27.985 71.8313 27.985 71.7883C27.9635 71.7453 27.9635 71.7238 27.942 71.7023Z" fill="#2A344A"/>
<path d="M30.4 70.3079C29.7335 69.8134 25.756 66.5239 25.3475 66.2659C25.283 66.2229 25.197 66.2229 25.154 66.2874C25.111 66.3519 25.111 66.4379 25.1755 66.4809C25.412 66.7604 30.2495 70.4799 30.3355 70.4799C30.4 70.4799 30.4215 70.4369 30.4215 70.3724C30.443 70.3509 30.4215 70.3079 30.4 70.3079ZM31.69 68.0934C31.0665 67.6419 27.949 64.8684 27.648 64.6534C27.4975 64.5459 27.347 64.7609 27.4545 64.8684C27.7555 65.2554 31.5395 68.2439 31.6255 68.2439C31.6685 68.2439 31.7115 68.1794 31.7115 68.1364C31.7115 68.1364 31.69 68.1149 31.69 68.0934ZM28.938 63.1914C28.7875 63.0624 28.594 63.3204 28.723 63.4494C29.153 63.8364 32.034 66.2444 32.292 66.2444C32.335 66.2444 32.3995 66.2014 32.3995 66.1584C32.3995 66.1154 32.378 66.0724 32.335 66.0724C32.034 65.8789 29.497 63.6214 28.938 63.1914Z" fill="#2A344A"/>
<path d="M57.3613 61.084C57.1248 60.912 56.9098 61.041 56.7163 61.1485C55.7703 61.686 54.8673 62.331 54.0718 63.062C53.4698 60.052 53.0398 57.988 53.0183 57.902C52.8893 57.5795 52.5238 57.687 52.2658 57.7085L51.4273 57.816V57.214C51.4488 57.128 51.4058 57.042 51.3198 56.999C51.2983 56.999 51.2768 56.999 51.2553 56.999C50.0298 57.0205 39.9033 57.0635 39.9033 57.0635C39.7743 57.0635 37.7533 63.406 36.6998 66.674C36.2483 65.9 35.6678 65.1905 35.0228 64.5885L36.2053 61.1915C36.2698 61.342 36.2698 61.514 36.2268 61.6645C36.1838 61.944 35.7108 63.922 35.6463 64.18C35.6463 64.223 35.6678 64.266 35.7108 64.266C35.7538 64.266 35.7753 64.266 35.7968 64.223C36.0978 63.2985 36.3343 62.374 36.5493 61.428C36.5493 61.213 36.4418 61.0195 36.2698 60.912C36.3128 60.74 36.3343 60.5465 36.3343 60.3745C36.3343 60.138 36.3773 59.8585 36.1408 59.6865C35.4743 59.2565 34.9583 60.3315 35.0228 60.353C34.9153 60.5895 34.3563 61.9655 33.7328 63.535C32.8728 62.9115 29.8198 60.9335 29.6048 60.869C29.4973 60.8475 17.8228 67.6845 17.7368 67.749C17.5433 67.9425 17.7368 68.2005 17.8443 68.3725C18.2743 68.9745 25.1758 74.199 26.0143 74.7365C26.1648 74.8655 26.3583 74.9515 26.5518 74.973C26.8958 74.973 33.0878 71.834 35.5818 70.114C34.9153 72.178 34.6788 72.9305 34.6143 73.21C34.5498 73.4895 34.7648 73.4895 34.8508 73.425C34.9368 73.3605 35.6678 73.425 36.6568 73.425C36.8718 74.5645 36.6783 74.9515 36.8073 75.0805C36.9363 75.2095 52.4378 74.7365 55.5338 74.242C58.4578 76.65 58.2213 76.6715 58.8018 76.263C59.1243 76.0265 65.2088 70.974 65.8968 70.3505C65.9398 70.329 65.9398 70.286 65.9398 70.2215C65.9828 70.028 57.5118 61.213 57.3613 61.084ZM35.2378 60.568C35.4528 60.6325 35.6678 60.74 35.8613 60.869C35.9258 60.9335 35.9043 60.9765 35.8613 61.1055C35.8613 61.1055 33.2168 68.738 33.0448 69.2755C32.6578 69.1895 32.2923 69.0605 31.9483 68.8885C34.2273 63.2125 34.9153 61.3205 35.2378 60.568ZM33.0448 69.555C33.1308 70.5655 32.8943 70.3075 32.1203 71.275C32.1848 71.0385 32.2923 70.7375 32.3353 70.587C32.5933 70.587 32.8083 70.3935 32.8083 70.1355C32.8083 69.8775 32.6148 69.6625 32.3568 69.6625C32.0988 69.6625 31.8838 69.856 31.8838 70.114C31.8838 70.2645 31.9483 70.415 32.0773 70.501C32.0343 70.673 31.9053 71.0815 31.8193 71.3825C31.5828 70.4795 31.0453 70.415 31.9053 69.1895C32.2493 69.3615 32.6363 69.4905 33.0448 69.555ZM31.6688 69.039C30.6153 70.5225 31.5183 70.673 31.6043 71.9845C31.6043 72.0275 31.6258 72.0705 31.6473 72.092C29.9273 73.0165 28.5298 73.7045 26.7668 74.586C26.6593 74.6505 26.5733 74.672 26.5088 74.629C23.5633 72.608 20.7468 70.3935 18.0593 68.007C18.0593 67.964 18.0593 67.964 18.0808 67.9425L29.6048 61.1485C29.7338 61.2345 33.1308 63.406 33.6468 63.7715C31.4323 69.383 31.5828 68.9315 31.6688 69.039ZM32.9373 70.7805C33.2813 70.4365 33.4103 69.9635 33.3028 69.4905C33.4533 69.082 34.2058 66.975 34.9153 64.954C35.5818 65.556 36.1408 66.2655 36.6138 67.0395C36.3128 67.964 36.0333 68.8455 35.7753 69.641C34.5498 70.4795 33.2598 71.2535 31.9483 71.9415C32.2278 71.533 32.5718 71.146 32.9373 70.7805ZM36.0333 60.6325C35.7968 60.5035 35.5603 60.3745 35.3238 60.2885C35.4528 59.9875 35.7538 59.6865 36.0333 59.88C36.1623 60.0305 36.0763 60.396 36.0333 60.6325ZM51.8573 72.995C51.9433 73.0165 52.0293 72.9735 52.0508 72.909C52.0508 72.8875 52.0508 72.866 52.0508 72.8445C51.9218 71.0815 51.5348 61.3635 51.4273 58.1815C52.6958 58.031 52.6528 58.0095 52.6743 58.074C52.6958 58.1385 55.6843 73.1885 55.8563 73.898C54.6093 74.07 38.6993 74.8655 37.0868 74.8225C37.1083 74.3495 37.0653 73.855 36.9578 73.382C41.3653 73.296 50.9973 73.038 51.8573 72.995ZM51.1048 57.3645C51.0403 59.493 51.5563 71.146 51.7068 72.7155C42.6768 72.8875 35.8613 73.1025 35.0013 73.1455C35.5388 71.49 38.1618 63.4705 39.9893 57.4505C42.3758 57.386 49.0193 57.3645 51.1048 57.3645ZM56.2003 74.07C56.2218 74.0485 56.2433 74.027 56.2433 74.0055C56.2433 73.855 56.3508 74.586 55.0823 68.179C55.1253 68.2435 55.2113 68.265 55.2758 68.222C55.4478 68.136 58.1998 65.513 58.7803 64.997C58.8663 64.911 58.7373 64.782 58.6513 64.868C58.0278 65.4055 55.1683 67.835 55.0608 68.007C55.0393 68.05 55.1038 68.3295 54.6308 65.9215C55.1683 65.4915 56.7808 64.0295 57.2108 63.664C57.3183 63.578 57.1893 63.4275 57.0818 63.5135C56.5013 63.9435 55.1253 65.04 54.5448 65.556C54.3943 64.825 54.2653 64.1155 54.1148 63.449C55.0608 62.675 56.0713 61.987 57.1248 61.3635C57.5548 61.772 64.9293 69.4905 65.5743 70.2C65.4238 70.329 58.7588 75.8545 58.4148 76.091C58.1568 75.9835 56.3078 74.5 55.8993 74.1775C56.0068 74.1345 56.1143 74.113 56.2003 74.07Z" fill="#2A344A"/>
<path d="M60.2637 66.9098C60.3712 66.8238 60.2422 66.6948 60.1347 66.7593C59.3607 67.3828 56.1142 70.2208 55.7917 70.5863C55.7272 70.6508 55.7487 70.7583 55.8132 70.8013C55.8347 70.8228 55.8777 70.8443 55.9207 70.8443C56.0497 70.8443 59.2532 67.7483 60.2637 66.9098ZM56.3722 72.6718C56.3077 72.7363 56.3292 72.8438 56.3937 72.8868C56.4152 72.9083 56.4582 72.9298 56.4797 72.9298C56.5657 72.9298 56.5227 72.9513 59.1457 70.8228C61.6827 68.7373 61.5752 68.8878 61.5537 68.8233C61.5537 68.7803 61.5107 68.7373 61.4462 68.7373C61.4247 68.7373 61.4247 68.7373 61.4032 68.7588C60.1132 69.6618 56.5442 72.4568 56.3722 72.6718ZM57.9202 73.8973C57.8557 73.9618 57.8557 74.0478 57.9202 74.1123C57.9847 74.1768 58.0707 74.1768 58.1352 74.1123C58.4577 73.8543 62.2632 70.5648 62.7147 70.1993C62.7577 70.1778 62.7577 70.1133 62.7362 70.0703C62.7147 70.0273 62.6502 70.0273 62.6072 70.0488C61.9192 70.6078 58.6512 73.1448 57.9202 73.8973ZM48.3097 66.9528C47.6862 66.9958 41.6662 66.8883 41.1072 66.8453C40.7847 66.8023 40.4622 66.8238 40.1612 66.8883C39.8387 66.9528 39.5162 67.1678 39.2152 67.0388C39.1077 66.9958 39.0217 67.1463 39.1292 67.1893C39.5592 67.3828 39.8817 67.0388 40.7202 67.0603C41.3867 67.0603 47.6002 67.3398 48.3097 67.2753C48.5247 67.2753 48.5247 66.9528 48.3097 66.9528ZM39.1292 65.1683C40.8492 65.4263 44.3107 65.5338 46.8477 65.6198C48.1807 65.6628 49.2342 65.7058 49.5137 65.7273C49.6212 65.7488 49.7072 65.6843 49.7287 65.5768C49.7717 65.3188 49.8362 65.3403 43.7087 65.1468C41.5587 65.0823 39.5377 65.0178 39.1937 64.9748C39.1507 64.9748 39.1077 64.9963 39.0862 65.0393C39.0432 65.1038 39.0862 65.1683 39.1292 65.1683ZM39.8172 63.4053C39.7742 63.4053 39.7312 63.4483 39.7312 63.4913C39.7312 63.5343 39.7742 63.5773 39.8172 63.5773C49.0837 63.7923 48.8472 63.8998 48.8687 63.6418C48.8902 63.3838 48.9762 63.4913 39.8172 63.4053ZM39.7097 61.9003C40.9997 61.7713 48.8902 61.8143 49.5997 61.9003C49.7932 61.9003 49.8147 61.6208 49.5997 61.5993C48.3097 61.4488 40.4192 61.6638 39.6667 61.7498C39.6237 61.7713 39.6237 61.8358 39.6452 61.8788C39.6452 61.9003 39.6882 61.9003 39.7097 61.9003ZM40.5697 60.1588C41.3867 59.8148 42.3112 59.7288 43.1712 59.9223C43.4507 59.9653 43.7517 59.9653 44.0312 59.9223C44.3107 59.9008 44.6117 59.9223 44.8912 59.9653C45.5147 60.0298 47.5142 59.8578 49.7072 59.8363C49.8577 59.8363 49.9007 59.5783 49.7287 59.5568C48.5032 59.4923 47.2777 59.5138 46.0522 59.6213C44.7407 59.7718 44.8052 59.5568 44.2247 59.5998C43.9452 59.6428 43.6442 59.6643 43.3647 59.6428C42.3112 59.5353 42.3327 59.3848 40.5267 59.9653C40.4622 59.9868 40.4407 60.0298 40.4407 60.0943C40.4407 60.1373 40.5052 60.1803 40.5697 60.1588ZM40.5912 58.5033C41.4512 58.6968 42.2252 58.0088 42.9992 58.4173C43.4292 58.5463 43.8592 58.2883 44.2247 58.2883C44.2247 58.2883 48.0947 58.5463 48.7827 58.5463C48.9332 58.5463 49.0837 58.5463 49.0837 58.4173C49.0837 58.3528 49.0407 58.3098 48.9762 58.3098C48.3742 58.2668 44.7622 57.9873 44.4612 57.9658C44.0527 57.9873 43.6657 58.0303 43.2787 58.1378C43.1497 58.1163 43.0207 58.0948 42.8917 58.0303C42.0747 57.7723 41.3867 58.4603 40.6127 58.3098C40.5482 58.2883 40.5052 58.3313 40.4837 58.3958C40.4837 58.4173 40.5267 58.4818 40.5912 58.5033Z" fill="#2A344A"/>
<path fillRule="evenodd" clipRule="evenodd" d="M61.5917 21.4881C61.5931 21.6383 61.5976 21.9185 61.6126 22.1143C61.4651 22.2618 61.3226 22.4018 61.1843 22.5376C60.9196 22.7976 60.6702 23.0426 60.4301 23.2968C58.3876 24.0923 56.7751 25.6618 55.9151 27.6828C55.5406 28.541 54.5093 31.3812 53.7909 33.3593C53.5195 34.1066 53.2928 34.7309 53.1631 35.0788C53.0986 35.3368 52.9481 35.5518 52.7331 35.6808C52.5934 35.7453 50.7712 36.2936 48.949 36.8418C47.1269 37.3901 45.3049 37.9383 45.1651 38.0028C44.9716 38.0888 44.8211 38.2178 44.7351 38.4113C44.4275 38.3689 44.1304 38.2584 43.8308 38.1471C43.5232 38.0327 43.2129 37.9174 42.8861 37.8738C42.3271 37.7448 41.7251 37.9168 41.3166 38.3253C40.8436 38.2608 39.5966 38.2178 39.1451 38.2178C39.1021 37.9598 38.8871 37.7663 38.6291 37.7233C38.3926 37.6803 32.5231 36.8633 32.3726 36.8633C32.0716 33.6168 31.4696 29.9833 31.0826 28.0483C31.3458 26.2496 30.9725 25.3461 30.3821 23.9171C30.1044 23.2451 29.7787 22.4569 29.4486 21.4048C29.7066 21.6843 30.0076 21.9208 30.3516 22.0928C30.3731 22.1143 30.4161 22.0928 30.4376 22.0713C30.452 22.057 30.4472 22.0426 30.4424 22.0283C30.44 22.0211 30.4376 22.014 30.4376 22.0068C29.7066 20.6308 29.1476 19.1688 28.7176 17.6638C28.9326 15.6643 28.9111 13.6433 28.6316 11.6438H29.0616C29.1046 11.6438 29.1261 11.6223 29.1261 11.5793C29.2551 9.60129 28.2446 7.70929 26.5031 6.74179C26.7611 6.72029 27.0406 6.72029 27.2986 6.76329C27.3416 6.78479 27.3631 6.76329 27.3846 6.72029C27.4061 6.67729 27.3846 6.65579 27.3416 6.63429C26.0086 5.88179 24.4391 5.64529 22.9556 5.96779C23.0416 5.73129 23.1706 5.49479 23.3426 5.32279C23.3641 5.30129 23.3641 5.27979 23.3426 5.25829C23.2996 5.10779 22.5686 5.25829 22.2031 5.81729C22.0741 5.62379 22.0741 5.38729 22.1816 5.19379C22.3321 4.95729 21.5151 5.15079 21.5581 5.79579C20.9991 5.51629 20.3541 5.55929 19.8166 5.86029C19.7951 5.88179 19.7736 5.92479 19.7951 5.94629C19.8166 5.98929 19.8381 5.98929 19.8811 5.98929C20.1606 5.98929 20.4186 6.07529 20.6551 6.20429C16.6131 7.79529 15.8391 11.9018 15.6456 13.6003C15.5522 14.4933 15.5741 15.0001 15.5999 15.598C15.6275 16.238 15.6597 16.9823 15.5596 18.4163C15.2801 22.5873 12.5926 30.5208 11.7326 32.8428C10.6576 35.3368 12.2916 36.9708 14.8716 37.7878C14.9146 39.1423 14.9791 40.9913 15.0866 41.5718C15.2156 42.3458 15.5811 43.0768 16.1616 43.6143C16.0326 44.1088 15.9681 44.6248 16.0111 45.1193C15.6886 45.3773 15.4521 45.7213 15.3231 46.1083C14.9791 46.8178 13.9041 53.9558 12.7431 61.9108C9.73313 63.2438 6.44363 64.9208 2.14363 67.2428C1.71363 67.4793 2.03613 67.6728 2.31563 67.5223C15.5166 60.7068 21.1066 58.3203 38.0701 56.8798C40.7121 56.6565 43.4186 56.6426 46.064 56.6289C46.4755 56.6268 46.8855 56.6247 47.2936 56.6218C59.3336 56.5573 72.0401 59.7608 83.5211 63.6953C83.8221 63.8028 83.7791 63.5233 83.6286 63.4588C79.8876 61.8463 76.0391 60.5348 72.1046 59.5028C72.1046 58.8793 72.0186 57.6538 71.9541 57.2238C72.1906 57.0088 72.4056 56.7723 72.5561 56.4928C72.8571 55.9768 75.7381 49.7418 75.8456 49.0753C75.9746 48.5378 75.8671 47.9788 75.5661 47.5058C75.3689 47.2264 74.732 46.9093 74.2316 46.6602C74.0774 46.5834 73.9361 46.5131 73.8246 46.4523C74.3836 45.9793 75.9316 44.6678 75.9316 44.6678C77.6301 43.2703 77.8881 41.8513 77.7591 40.0023C77.3506 34.6918 76.5551 28.6933 72.7066 24.3933C71.8466 23.4473 70.9006 22.5658 69.6966 22.5228C69.5704 22.018 68.8888 21.575 68.3963 21.3949C68.4173 21.4143 68.4281 21.434 68.428 21.454C68.4268 21.6915 66.8857 21.8761 64.9858 21.8664C63.2737 21.8577 61.8546 21.6941 61.5917 21.4881ZM67.8476 43.0983C66.6221 42.4748 63.3756 40.5398 62.6231 40.0453C62.5483 39.9949 62.4765 39.946 62.4074 39.899C61.5039 39.2838 61.0632 38.9838 60.3441 39.7228C59.3547 40.7122 58.6222 43.1641 58.2792 44.312C58.2645 44.3614 58.2504 44.4084 58.2371 44.4528C59.8711 45.8718 61.6556 47.0758 63.5476 48.0863C63.6981 48.0003 63.8486 47.8928 63.9776 47.7638C63.7411 47.6348 63.5906 47.3983 63.5476 47.1403C63.5476 46.9898 63.6551 46.8608 63.8056 46.8178C63.8916 46.7963 63.9991 46.7963 64.0851 46.8178C64.5366 46.8823 65.0096 46.7748 65.3751 46.5168C65.3321 46.2373 65.4396 45.9578 65.6331 45.7643L67.8476 43.0983ZM25.8796 51.0533C25.7076 51.0963 25.6001 51.2683 25.6431 51.4403V51.4188C25.8474 52.3325 26.1054 53.4558 26.3633 54.5791C26.6214 55.7026 26.8794 56.826 27.0836 57.7398L27.7286 57.6323C27.2986 55.8048 26.6751 53.1173 26.2666 51.2898C26.2236 51.1178 26.0516 51.0103 25.8796 51.0533ZM62.7306 49.5053C62.4081 49.5053 62.3006 49.3763 62.2576 49.2903C62.1756 49.0277 62.5946 48.7025 62.9219 48.4485C63.0234 48.3697 63.116 48.2978 63.1821 48.2368C59.7636 46.2588 58.4306 45.0118 58.1081 44.6678C57.8716 45.4418 57.6136 46.2158 57.3126 47.0543C56.6676 48.7743 56.7321 49.9783 57.5276 50.7953C57.5787 50.8463 57.6141 50.8837 57.6526 50.9176C57.873 51.1122 58.1923 51.1949 62.1286 53.1173C65.6546 54.8588 70.4706 57.2238 70.9436 57.2238C71.8036 57.1808 72.2551 56.2133 72.5561 55.5683L73.9536 52.5583C72.6058 52.8318 70.9385 52.0404 67.1296 50.2325C66.7463 50.0505 66.3412 49.8583 65.9126 49.6558C65.7143 49.8134 65.5377 49.9638 65.3758 50.1016C64.8534 50.5464 64.4853 50.8598 64.0421 50.8598H63.9561C63.5906 50.8383 63.3111 50.5158 63.3326 50.1503C62.6876 50.2578 62.5371 49.8278 62.7306 49.5053ZM74.3663 47.2053C74.0188 47.0205 73.6587 46.829 73.4806 46.7103C71.8681 48.1078 70.0191 49.2473 67.9981 50.0643C67.8261 50.1073 67.6326 50.1073 67.4606 50.0643C69.3311 50.8813 72.2121 52.1283 72.5991 52.2143C73.0936 52.3003 73.6096 52.3003 74.1256 52.2358C74.3621 51.7198 75.5661 48.9678 75.5016 48.4303C75.4801 48.1508 75.3726 47.9143 75.2221 47.6993C75.1641 47.6296 74.7739 47.4221 74.3663 47.2053ZM66.7787 49.2798C66.7432 49.2224 66.7055 49.1614 66.6651 49.0968C66.5576 49.2043 66.3641 49.3548 66.1706 49.5053L67.3746 50.0213C67.1678 49.9084 67.0267 49.6805 66.7787 49.2798ZM64.37 49.7105C64.1235 49.8896 63.5524 50.3046 63.7626 50.4728H63.7841C64.1891 50.7843 64.6393 50.3849 65.4207 49.6915C65.7178 49.4278 66.0629 49.1216 66.4716 48.7958C66.1862 48.3201 65.7156 47.373 65.5068 46.9527C65.4797 46.8981 65.4569 46.8524 65.4396 46.8178C64.9881 47.0973 64.4506 47.2263 63.9346 47.1403C63.9205 47.1403 63.9074 47.1393 63.8955 47.1383C63.8533 47.135 63.8271 47.1329 63.8271 47.1833C63.8545 47.2929 64.1004 47.4638 64.3141 47.6122C64.4355 47.6966 64.5466 47.7737 64.6011 47.8283C64.6226 47.8713 64.6226 47.8928 64.6226 47.9358C64.6226 48.0218 64.5581 48.0648 64.4936 48.0433C64.3861 48.0218 64.2786 47.9788 64.1926 47.9358C64.1276 47.989 63.9846 48.0942 63.8091 48.2232C63.3464 48.5636 62.6581 49.0699 62.5801 49.2258C63.1282 49.2632 63.6402 49.0263 63.9948 48.8622C64.2523 48.7431 64.4269 48.6623 64.4721 48.7528C64.5115 48.8513 64.4607 48.8776 64.0051 49.113C63.9635 49.1344 63.9186 49.1576 63.8701 49.1828C63.8383 49.201 63.7739 49.2268 63.6928 49.2593C63.3903 49.3807 62.8563 49.5949 62.9241 49.8493C62.9596 49.9558 63.1563 49.945 63.2843 49.9381C63.3114 49.9366 63.3354 49.9353 63.3541 49.9353C63.7626 49.8493 64.1281 49.6773 64.4506 49.4408C64.4936 49.4193 64.5366 49.4193 64.5581 49.4623C64.6107 49.5323 64.5348 49.5881 64.4468 49.6529C64.4268 49.6676 64.4061 49.6828 64.3861 49.6988L64.37 49.7105ZM66.3117 55.6025C62.7067 53.8796 57.5416 51.4112 57.3126 51.0963L57.3341 51.1178C56.3236 50.0858 56.5171 48.7313 56.9256 47.4843C56.4741 47.3553 56.0441 47.1618 55.6356 46.9253C55.5711 47.8713 55.1411 56.2348 55.1196 56.6648C56.9901 56.8153 58.8391 57.0303 60.6666 57.2883C60.607 57.0123 60.5266 56.5941 60.4408 56.1475C60.2792 55.3067 60.0984 54.3656 60.0001 54.0848C59.9786 53.9558 60.0431 53.8268 60.1506 53.7838C60.2796 53.7193 60.4086 53.7838 60.4731 53.9128C60.8171 55.0523 61.1181 56.1918 61.3331 57.3528C64.7731 57.8688 68.1701 58.5568 71.5456 59.4168C71.5398 59.277 71.534 59.1073 71.5277 58.9251C71.5109 58.4347 71.491 57.854 71.4596 57.5248C70.8791 57.7183 70.2341 57.6108 69.7396 57.2668C69.5384 57.1446 68.1217 56.4675 66.3117 55.6025ZM30.8257 54.888C31.0258 55.7156 31.2125 56.4877 31.3621 57.1163L31.9856 57.0303C31.6631 55.6973 31.1686 53.6333 30.7386 51.7843C30.6956 51.6123 30.5451 51.5048 30.3731 51.5478C30.2011 51.5908 30.0721 51.7628 30.1151 51.9348C30.3456 52.9027 30.5946 53.9323 30.8257 54.888ZM41.9831 41.3138C41.8111 41.6148 41.5746 41.8728 41.2951 42.0878L41.3381 42.0663C41.3381 42.077 41.3328 42.0824 41.3274 42.0878C41.322 42.0932 41.3166 42.0985 41.3166 42.1093C41.2951 42.2813 41.7251 42.5178 42.4131 41.5073C42.6262 41.178 42.368 41.2326 42.0789 41.2939C42.0472 41.3006 42.015 41.3074 41.9831 41.3138ZM40.4096 41.5303C40.672 41.3588 40.951 41.1765 41.0371 40.8838H41.0586C41.0586 40.8193 40.9941 40.7548 40.8651 40.7548C40.4351 40.7548 39.6181 41.5073 39.8546 41.7438C39.9264 41.8156 40.0432 41.7525 40.1548 41.6922C40.1769 41.6803 40.1988 41.6684 40.2201 41.6578C40.2801 41.6149 40.3444 41.573 40.4096 41.5303ZM40.4136 41.8513C40.4566 42.5393 41.1661 41.9158 41.5961 41.3783H41.6391C42.0046 40.9483 41.4241 40.9913 41.3166 41.0558C41.1833 41.3559 40.8948 41.5396 40.6316 41.7072C40.5554 41.7558 40.4812 41.803 40.4136 41.8513ZM18.2471 24.4363C16.6346 24.9308 15.1081 26.9088 15.2371 29.5103C15.3432 31.4465 15.3112 33.5537 15.2815 35.5043C15.239 38.297 15.2014 40.7689 15.5811 41.9588C16.0507 43.5121 16.9603 43.7757 18.1697 44.1261C18.4 44.1929 18.6411 44.2628 18.8921 44.3453C24.4176 46.0438 28.8251 45.8073 31.9641 43.6143C32.0286 43.0338 32.0716 42.4748 32.0931 41.8943C31.7963 41.9156 31.5113 41.9371 31.2372 41.9579C27.0838 42.272 25.402 42.3992 22.0741 38.6478C19.6016 35.8743 17.0861 32.7783 17.4731 29.1018C17.4731 29.0588 17.5161 29.0158 17.5591 29.0158C17.6236 28.9943 17.6666 29.0373 17.6881 29.1018C17.4516 32.0043 19.2146 34.6918 21.1496 36.9923C24.9121 41.5073 26.3311 41.9588 29.9216 41.7223C29.9803 41.7181 30.3151 41.6935 30.8216 41.6562C32.9133 41.5025 37.9331 41.1334 38.5216 41.0988C38.6291 40.4323 38.6936 39.7228 38.7366 38.9058C38.7366 38.8571 38.7397 38.8015 38.7429 38.7428C38.7568 38.4904 38.7739 38.1801 38.5646 38.1103C38.5431 38.1103 31.9211 37.2073 31.4481 37.0783C30.8891 36.9493 30.3731 36.6053 30.0076 36.1323C29.6206 35.6163 26.3526 30.4993 25.5571 29.2523C25.5356 29.2308 25.5571 29.1878 25.5786 29.1663C25.6001 29.1448 25.6431 29.1663 25.6646 29.1878C26.0381 29.6614 26.9055 30.9532 27.8173 32.311C29.0576 34.1582 30.38 36.1275 30.6526 36.3258C31.0611 36.6053 31.5126 36.7773 32.0071 36.8418C31.9211 35.8958 31.1471 30.2843 30.7171 27.8118L28.7606 24.1138C28.4844 24.4245 28.4161 24.6383 28.3137 24.6561C28.1609 24.6828 27.9323 24.2743 26.8256 23.1033C27.4491 24.6728 27.9436 26.2853 28.3091 27.9408C28.2446 28.3923 27.7931 28.5858 27.5566 28.3923C27.5136 28.3493 27.4706 28.2848 27.4921 28.2203C27.5136 28.1343 27.5996 28.0913 27.6856 28.1128C27.8576 28.1558 27.9436 27.9408 27.9436 27.8118C27.9436 27.6828 26.5891 22.8668 26.4386 22.7163C26.3956 22.6733 26.3956 22.5873 26.4171 22.5228C26.5676 22.1788 26.7396 21.8563 26.9331 21.5338C26.3311 21.1468 25.9656 20.4803 25.9441 19.7493C25.9441 19.7063 25.9871 19.6848 26.0086 19.6848C27.0836 19.5128 27.9651 18.7603 28.3306 17.7498C28.5671 15.7288 28.5456 13.6648 28.2876 11.6438C27.1696 11.5578 26.0731 10.6763 25.2346 9.92379C24.8046 9.55829 24.7186 9.90229 24.8476 10.0743C25.0626 10.3108 26.0301 11.6008 25.7076 11.6008C24.5466 11.4933 23.4286 11.0633 22.5041 10.3538C22.3543 10.8728 22.2471 11.3212 22.1537 11.7119C21.8717 12.8915 21.7153 13.5458 20.8916 14.0303H20.8701C20.8271 14.0303 20.8056 14.0303 20.7841 13.9873C20.6336 13.5143 20.2681 13.1488 19.7951 12.9983C19.5156 12.9768 19.2146 13.0628 19.0211 13.2778C18.6556 13.6648 18.6556 14.2883 19.0426 14.6538C19.3436 14.8903 19.7306 14.9978 20.1176 14.9333C20.1491 14.9584 20.1787 15.0865 20.2349 15.3298C20.371 15.9187 20.6631 17.183 21.5151 19.2978C22.9126 20.3728 25.6216 22.2433 25.8151 22.3723C25.9656 22.4368 26.0516 22.5873 26.0516 22.7378C26.0516 22.8906 25.7583 24.2603 25.55 25.2327C25.4653 25.6282 25.3947 25.9579 25.3636 26.1133V26.1348C25.3206 26.2208 25.2131 26.2638 25.1271 26.2208C24.2671 25.9198 23.1491 25.0383 22.2891 24.1783C22.4181 24.5223 22.6116 24.8663 22.8266 25.1888C23.2136 25.6618 23.3856 26.2638 23.3211 26.8658C23.3129 26.874 23.3078 26.8822 23.3035 26.8892C23.2965 26.9006 23.2914 26.9088 23.2781 26.9088C23.2566 26.9303 23.2136 26.9088 23.1921 26.8873C22.2246 25.2748 20.1176 23.8773 18.2471 24.4363ZM22.0741 20.5878C22.0526 20.6308 22.0311 20.6523 21.9881 20.6308C21.5796 20.4373 21.1926 20.1793 20.8486 19.8568C21.1281 21.0608 21.4936 22.2433 21.9451 23.4043C22.8696 24.3073 23.9231 25.1028 25.0626 25.7478C25.2991 24.7158 25.6861 22.7163 25.6861 22.6733C25.6861 22.6605 25.5031 22.5409 25.1984 22.3419C24.4798 21.8724 23.0844 20.9608 21.8161 19.9643C21.9021 20.1578 21.9881 20.3513 22.0741 20.5233V20.5878ZM28.2661 24.1998C28.3951 24.0278 28.5456 23.8558 28.6961 23.7053C28.7386 22.9625 28.4668 22.5549 28.0875 21.9861L28.0726 21.9638C27.6856 21.3833 27.5566 21.3833 27.5136 21.3833C27.3631 21.4048 27.2556 21.4693 27.1696 21.5983C26.9976 21.8993 26.8471 22.2003 26.7181 22.5228C27.2771 23.0603 27.7931 23.6193 28.2661 24.1998ZM33.2756 41.8513L32.4156 41.9158C32.4371 42.9693 32.3081 44.0443 32.0716 45.0978C32.8651 45.7723 32.9448 46.1356 33.1044 46.8632C33.1177 46.9242 33.1317 46.9878 33.1466 47.0543L34.5656 46.1513C34.6135 46.1034 34.5015 45.7559 34.2297 44.9123C34.0132 44.24 33.6951 43.2528 33.2756 41.8513ZM35.2098 47.9455C35.0045 47.6849 34.7076 47.3083 34.5656 46.5598L33.1681 47.4628C33.3831 48.4303 34.0281 51.7843 34.0281 51.9133C35.2757 50.962 35.1207 50.35 34.9414 49.6426C34.8735 49.3747 34.8021 49.0931 34.8021 48.7743V48.7313C34.8236 48.6453 34.9096 48.6023 34.9956 48.6238C35.0171 48.6453 35.0386 48.6453 35.0601 48.6453C35.2321 48.6668 35.4041 48.5593 35.4256 48.3873C35.4428 48.2412 35.3466 48.1191 35.2098 47.9455ZM43.1011 40.0238C43.1226 39.9808 43.1871 39.9808 43.2301 40.0023C43.4451 40.1098 43.6386 40.2603 43.7891 40.4323C43.7461 40.2388 43.6601 40.0668 43.5526 39.9163C43.2946 39.6368 42.9936 39.3788 42.6926 39.1423C42.5627 39.068 42.2083 39.4426 42.0448 39.6155C42.0189 39.6428 41.9978 39.6651 41.9831 39.6798C41.1876 40.4538 40.6071 39.5078 41.0371 38.6263C40.8759 38.6263 40.2999 38.5905 39.8123 38.5603C39.4545 38.538 39.1443 38.5188 39.0806 38.5188C39.0806 38.9273 38.9516 40.3678 38.8871 40.9698L38.9171 40.9721C39.188 40.9929 39.4776 41.0151 39.7471 41.0773C40.1771 40.5613 41.1016 40.1098 41.3166 40.7548C41.5961 40.6903 41.9401 40.7548 42.0261 41.0128C42.1121 40.9913 42.2196 40.9698 42.3056 40.9698C42.6926 40.9053 42.9076 41.1633 42.6926 41.5933C42.7786 41.7008 43.3591 42.2168 43.4666 42.1738C43.7031 42.1093 43.4881 41.3353 42.8431 40.8838C42.8216 40.8623 42.8001 40.7978 42.8216 40.7763C42.8431 40.7548 42.8861 40.7333 42.9291 40.7548C43.2731 40.9268 43.5526 41.1848 43.7031 41.5288C43.7676 41.4643 43.8106 41.3783 43.8106 41.2923C43.8714 40.8469 43.4937 40.4969 43.1802 40.2063C43.1607 40.1882 43.1415 40.1704 43.1226 40.1528C43.0796 40.1313 43.0796 40.0668 43.1011 40.0238ZM16.4626 43.8723C16.3766 44.3023 16.3336 44.7323 16.3551 45.1623L16.3766 45.1838C18.5266 46.4308 21.2356 46.7748 23.1276 46.8393C26.5461 47.2048 29.0401 47.0543 31.6416 45.1193C31.6555 45.0604 31.6693 45.0021 31.6831 44.9442C31.7548 44.6424 31.824 44.3509 31.8781 44.0443C27.8361 46.9898 22.6331 45.8503 17.9461 44.4743C17.4301 44.3453 16.9141 44.1303 16.4626 43.8723ZM22.2461 58.7503C22.2891 56.6433 22.3966 53.3968 22.7191 49.9138L22.7406 49.9353C22.7621 49.7418 22.6331 49.5913 22.4396 49.5698C22.2461 49.5483 22.0956 49.6773 22.0741 49.8708C21.7516 53.4398 21.6441 56.7938 21.6011 58.9008L22.2461 58.7503ZM77.2431 38.6693C76.8561 34.4338 76.0821 29.5748 73.3731 25.7693C72.5776 24.6943 71.2446 22.9313 69.8041 22.7808C70.1051 23.5763 71.3091 26.8443 71.3091 27.0163C71.3091 27.4248 70.9006 27.4248 70.6856 27.4248C70.4706 27.4248 68.2131 27.5968 68.2991 27.8548C68.5356 28.2203 68.7936 28.5643 69.0516 28.8868C69.0731 28.9083 69.0731 28.9298 69.0516 28.9513C68.6646 29.7253 63.9776 38.5188 63.6551 39.1208C63.6408 39.3358 63.6265 39.5699 63.6121 39.8041C63.605 39.9211 63.5978 40.0381 63.5906 40.1528C64.8806 40.9698 67.0091 42.2598 68.1486 42.7973C68.464 42.4155 68.7522 42.0696 69.0135 41.756C70.4444 40.0388 71.0676 39.2909 70.9221 38.9273C69.8471 37.1428 69.2236 35.1218 69.0946 33.0363C69.0731 32.9073 69.3096 32.8858 69.3096 33.0363C69.5246 34.8423 70.0621 36.5838 70.9006 38.1748C70.9394 38.2524 70.9892 38.3343 71.0409 38.4197C71.2188 38.7128 71.4208 39.0458 71.2876 39.3788C71.0495 40.0566 67.4083 44.3247 66.3098 45.6125C66.1191 45.836 66.005 45.9697 65.9986 45.9793C65.8266 46.1298 65.7621 46.3448 65.7836 46.5598C65.8266 46.7533 67.3316 49.4193 67.4606 49.5913C67.5896 49.7418 67.8046 49.7848 67.9766 49.7203C70.8051 48.6144 73.2128 46.5409 75.512 44.5609L75.5876 44.4958C77.6731 42.9048 77.5011 41.0343 77.2431 38.6693ZM69.3956 22.8023C69.2451 22.3508 68.9441 21.8348 68.4281 21.7488C68.4711 22.3723 68.2776 23.0173 67.8476 23.5333C67.4623 24.0287 67.1915 24.577 66.9224 25.1218C66.7711 25.4281 66.6204 25.7333 66.4501 26.0273C65.6976 27.3603 65.0956 28.7578 64.6871 30.2413C64.1778 32.109 63.8569 36.2813 63.704 38.2702L63.6981 38.3468C63.7423 38.2622 63.8113 38.1294 63.901 37.9568C64.8597 36.1124 68.1805 29.7236 68.7506 29.0158C68.6104 28.8347 68.4765 28.6789 68.3589 28.5421C68.0438 28.1756 67.8455 27.945 67.9551 27.7258C68.0565 27.523 68.4067 27.4541 68.6265 27.4108C68.6397 27.4082 68.6525 27.4057 68.6646 27.4033C68.8222 27.3718 69.2108 27.3287 69.6272 27.2826C69.7789 27.2657 69.9343 27.2485 70.0836 27.2313C70.2048 27.217 70.3331 27.2051 70.4528 27.194C70.6941 27.1717 70.9005 27.1525 70.9436 27.1238C71.0028 27.0843 70.9353 26.9183 70.8906 26.8081C70.8865 26.7982 70.8827 26.7887 70.8791 26.7798C70.8791 26.7583 69.6106 23.3398 69.3956 22.8023ZM61.5655 22.8931C61.5728 22.8173 61.5834 22.7075 61.5911 22.5443C60.5591 23.6193 57.7856 26.7153 57.7641 26.8658C57.7426 27.0163 58.4951 27.8333 58.8391 28.1558C59.0541 28.3278 59.0756 28.6288 58.9251 28.8438C58.4521 29.4673 58.0221 30.1338 57.6351 30.8433C57.6781 30.9508 58.7101 34.5843 58.9251 35.3583C59.3551 30.9938 60.2581 26.6293 61.3976 23.6193C61.4191 23.6193 61.4191 23.5978 61.4191 23.5978C61.4406 23.5763 61.4836 23.5763 61.5051 23.5978C64.2786 25.9628 67.3316 24.6298 66.9446 23.9633C66.8906 23.8688 66.8197 23.9014 66.6574 23.976C66.5612 24.0202 66.4327 24.0793 66.2566 24.1353C66.3211 23.4903 66.3856 22.4798 66.3856 22.4798C66.3856 22.2863 65.9556 22.2648 65.9556 22.4798C65.9556 22.4798 65.8696 23.7483 65.8051 24.2643C65.3321 24.3718 64.8376 24.3933 64.3431 24.3288C64.3431 24.0101 64.361 23.5128 64.3737 23.1592C64.3807 22.9641 64.3861 22.8128 64.3861 22.7593V22.7163C64.3861 22.5658 64.2786 22.4368 64.1281 22.4368C63.9776 22.4368 63.8486 22.5443 63.8486 22.6948C63.8271 22.8453 63.7626 23.6838 63.7411 24.1998C63.4616 24.1353 63.2036 24.0278 62.9456 23.8988C62.9456 23.7509 62.9435 23.5484 62.9413 23.3334C62.9364 22.8604 62.9309 22.3266 62.9456 22.1788C62.9671 21.9638 62.5156 21.9208 62.4941 22.1358C62.4726 22.2648 62.4511 23.1463 62.4511 23.7053C62.1501 23.5333 61.8491 23.3183 61.5911 23.0818C61.5499 23.0543 61.5526 23.0269 61.5655 22.8931ZM51.815 36.3484C50.1115 36.8603 45.2789 38.3123 45.0791 38.4758C44.9071 38.6908 44.8856 42.2598 44.9071 42.5823C45.1006 42.7113 52.7116 42.3458 54.6251 42.1523C54.7111 41.3138 55.4636 35.7238 55.6141 34.8423C55.6141 34.7778 55.6571 34.7563 55.7216 34.7563C55.7861 34.7563 55.8076 34.8208 55.8076 34.8638C55.6356 35.9173 54.8186 45.3128 54.8186 45.5493C54.8186 45.7428 54.9261 45.9148 55.0551 46.0438C55.6141 46.5598 56.2806 46.9253 57.0116 47.0973C57.5598 45.5575 57.7997 45.0001 57.9387 44.4186C58.1703 43.4494 58.1215 42.4132 58.7531 36.6483C58.7138 36.3436 58.3869 35.1581 58.0477 33.9279C57.6449 32.4674 57.2248 30.944 57.2481 30.7573C57.2911 30.4133 58.5811 28.7363 58.5811 28.7363C58.7442 28.5324 58.6947 28.4832 58.5425 28.332C58.5342 28.3238 58.5255 28.3152 58.5166 28.3063C58.1081 27.9408 57.7211 27.5323 57.3986 27.1023C57.3771 26.8658 57.4631 26.6078 57.6566 26.4573C57.6996 26.3928 58.5596 25.3178 59.8496 23.8773C57.0762 25.264 56.1984 27.6759 55.3814 29.9204C55.3371 30.0423 55.2929 30.1636 55.2486 30.2843C54.1521 33.2298 53.2276 35.6808 53.0986 35.8098C52.9051 36.0033 52.6471 36.1108 52.3891 36.1753C52.3357 36.192 52.1283 36.2543 51.815 36.3484ZM54.6466 42.4748C52.0236 42.7973 45.5521 42.9048 45.0791 42.9048C45.0576 42.9048 45.0361 42.9048 44.9716 42.8403C44.6706 42.8188 44.4771 42.5608 44.4986 42.2813C44.3266 42.2598 43.9181 42.2168 43.7461 42.2168C43.6816 42.3243 43.5741 42.4103 43.4451 42.4103C43.2086 42.4103 42.6711 41.9373 42.5206 41.7868C42.3056 42.0663 41.8326 42.5393 41.4671 42.5393C41.2736 42.5393 41.1016 42.4318 41.0156 42.2598C40.6501 42.5178 40.2201 42.4318 40.1126 42.0018C39.7041 42.1738 39.3601 41.8298 39.5106 41.3998C39.5176 41.3859 39.5268 41.3787 39.5259 41.3732C39.524 41.3617 39.4778 41.3574 39.2741 41.3138L38.8441 41.2278C38.8226 41.3353 38.7796 41.4428 38.6506 41.4428L33.5766 41.8083C33.6411 42.0233 34.7376 45.4848 34.8021 45.6568C34.9526 46.0868 34.8881 46.2803 34.8021 46.3663C34.9311 46.9468 35.1891 47.5058 35.5761 47.9573C35.6621 48.0648 35.7266 48.1938 35.7266 48.3228C35.7266 48.6668 35.4901 48.9463 35.1461 48.9678C35.1993 49.2337 35.2671 49.4851 35.3375 49.7459C35.3525 49.8014 35.3676 49.8573 35.3826 49.9138C35.6406 50.9458 34.9526 51.7843 34.1356 52.3218C34.2474 52.898 34.3592 53.4948 34.471 54.0916C34.6387 54.9869 34.8064 55.8822 34.9741 56.7078C41.5101 56.0843 48.0891 56.0413 54.6466 56.5788C54.6466 55.4178 54.9691 49.2043 55.2271 46.6243C54.5176 46.1298 54.4316 45.8718 54.4961 45.0118C54.4961 44.9832 54.5215 44.569 54.5517 44.0777C54.5895 43.4623 54.6347 42.7259 54.6466 42.4748ZM43.5976 38.4516C43.2068 38.3433 42.8301 38.2389 42.6926 38.2178C42.1336 38.0888 41.5746 38.3898 41.3381 38.9273C41.2306 39.1423 41.2521 39.4218 41.3596 39.6368C41.5531 39.8518 41.9186 39.4433 42.1121 39.2068C42.117 39.2011 42.122 39.1953 42.127 39.1894C42.2543 39.0403 42.4229 38.8429 42.6711 38.8843C43.7246 39.4003 44.2621 40.4538 44.0686 41.1203C44.1116 41.3783 44.0041 41.6363 43.7891 41.7653C43.8306 41.898 43.8177 41.9507 43.838 41.9728C43.8704 42.008 43.987 41.9656 44.5416 42.0448C44.5416 41.5933 44.5631 39.1853 44.6061 38.7123C44.4204 38.6795 44.0015 38.5634 43.5976 38.4516ZM17.9891 49.3118C17.8171 49.2688 17.6451 49.3763 17.6021 49.5483C16.8711 53.1818 16.3981 56.8583 16.1831 60.5778L16.8496 60.3413C17.0646 56.7723 17.5376 53.2033 18.2471 49.6988C18.2686 49.5268 18.1611 49.3548 17.9891 49.3118Z" fill="#2A344A"/>
<path d="M67.6829 14.85C67.6474 14.8429 67.6161 14.8219 67.5959 14.7918C67.5758 14.7616 67.5685 14.7246 67.5756 14.6891C67.5827 14.6535 67.6036 14.6222 67.6338 14.6021C67.664 14.5819 67.7009 14.5746 67.7365 14.5817C67.772 14.5888 67.8033 14.6098 67.8235 14.6399C67.8436 14.6701 67.8509 14.707 67.8438 14.7426C67.8367 14.7782 67.8158 14.8095 67.7856 14.8296C67.7554 14.8497 67.7185 14.8571 67.6829 14.85ZM68.9118 14.4788C68.8762 14.4717 68.8449 14.4507 68.8248 14.4206C68.8047 14.3904 68.7973 14.3535 68.8044 14.3179C68.8115 14.2823 68.8325 14.251 68.8627 14.2309C68.8928 14.2108 68.9298 14.2034 68.9653 14.2105C69.0009 14.2176 69.0322 14.2386 69.0523 14.2687C69.0725 14.2989 69.0798 14.3358 69.0727 14.3714C69.0656 14.407 69.0447 14.4383 69.0145 14.4584C68.9843 14.4786 68.9474 14.4859 68.9118 14.4788ZM69.5846 13.4973C69.6202 13.5044 69.6515 13.5254 69.6716 13.5555C69.6918 13.5857 69.6991 13.6227 69.692 13.6582C69.6849 13.6938 69.664 13.7251 69.6338 13.7452C69.6036 13.7654 69.5667 13.7727 69.5311 13.7656C69.4955 13.7585 69.4642 13.7375 69.4441 13.7074C69.424 13.6772 69.4167 13.6403 69.4238 13.6047C69.4309 13.5691 69.4518 13.5378 69.482 13.5177C69.5121 13.4976 69.5491 13.4902 69.5846 13.4973ZM68.4566 13.8384C68.4211 13.8313 68.3898 13.8104 68.3696 13.7802C68.3495 13.7501 68.3422 13.7131 68.3493 13.6775C68.3564 13.642 68.3773 13.6107 68.4075 13.5905C68.4377 13.5704 68.4746 13.5631 68.5102 13.5702C68.5457 13.5773 68.577 13.5982 68.5972 13.6284C68.6173 13.6586 68.6246 13.6955 68.6175 13.7311C68.6104 13.7667 68.5895 13.7979 68.5593 13.8181C68.5291 13.8382 68.4922 13.8455 68.4566 13.8384Z" fill="#2A344A"/>
<path d="M66.8376 13.7841C66.802 13.777 66.7707 13.756 66.7506 13.7258C66.7304 13.6957 66.7231 13.6587 66.7302 13.6232C66.7373 13.5876 66.7583 13.5563 66.7884 13.5362C66.8186 13.516 66.8555 13.5087 66.8911 13.5158C66.9267 13.5229 66.958 13.5438 66.9781 13.574C66.9982 13.6042 67.0056 13.6411 66.9985 13.6767C66.9914 13.7123 66.9704 13.7436 66.9403 13.7637C66.9101 13.7838 66.8731 13.7912 66.8376 13.7841Z" fill="#2A344A"/>
<path d="M46.4444 70.9666C46.4659 70.3646 46.0577 71.424 45.5199 71.4181C45.4554 71.3751 45.4339 71.2891 45.4769 71.2246C45.6489 70.9021 46.6809 68.6446 46.3369 68.6446C46.2294 68.6446 46.1004 68.8166 46.0144 68.9026C45.0254 69.8916 45.2619 70.8806 44.4664 71.0526C44.4449 71.0526 44.4019 71.0741 44.3589 71.0741C44.0364 71.0956 43.7569 70.8806 43.7139 70.5581V70.4721C43.6064 70.4721 43.5419 70.5581 42.9829 70.9881C42.9399 71.0311 42.8754 71.0526 42.8324 71.0311C42.7464 71.0096 42.7034 70.9236 42.7249 70.8376C42.9399 69.4401 43.2624 69.3971 41.4994 71.0526C41.4564 71.0956 41.3919 71.1171 41.3489 71.0956C41.2629 71.0741 41.2199 70.9881 41.2414 70.9021C41.3059 70.7301 41.5854 69.9346 41.6499 69.8056C41.8004 69.4401 41.7144 69.4401 41.4134 69.5476C40.8974 69.7411 40.4889 70.1281 40.2524 70.6226C40.1664 70.8161 39.8869 70.6656 39.9729 70.4721C40.4459 69.3971 41.0049 68.7091 40.6824 68.5586C40.5319 68.4726 40.2954 68.6446 40.2094 68.6876C39.8224 68.9886 39.5429 69.3756 39.3494 69.8271C39.3279 69.8701 39.2634 69.8916 39.2204 69.8701C39.1774 69.8486 39.1559 69.7841 39.1774 69.7411C39.3279 69.3756 39.5429 69.0316 39.8009 68.7306C40.0804 68.4296 40.5104 68.1501 40.8329 68.3221C41.2629 68.5801 41.0049 69.1176 40.8329 69.4831C41.4349 69.0961 42.1014 69.0316 41.9939 69.7411C41.8004 70.5366 41.4564 70.6441 42.4239 69.7841C42.5959 69.6336 42.6604 69.5691 42.7679 69.5476C43.2624 69.4616 43.1979 70.0206 43.1119 70.5151C43.1119 70.5796 43.0904 70.5796 43.1764 70.5151C43.4989 70.2786 43.8429 70.0421 44.0364 70.3861C44.0794 70.5151 44.0364 70.6441 44.1224 70.7086C44.2944 70.8161 44.5094 70.7946 44.6599 70.6441C44.8104 70.4721 44.9179 70.2786 44.9824 70.0636C45.3264 69.1606 46.3369 67.7201 46.7669 68.5801C46.8099 68.8381 46.7884 69.0746 46.6809 69.3111L46.6809 69.3111C46.5734 69.6551 46.4659 69.9991 46.2509 70.5151C46.5089 70.2141 46.5089 70.1066 46.6379 70.1281C46.7669 70.1496 46.7454 70.3001 46.7454 70.7301C47.1754 70.4936 47.1539 70.4506 47.3904 70.7086C47.9064 70.3216 48.5514 70.1066 49.1964 70.1281C49.2394 70.1281 49.2824 70.1711 49.2824 70.2141C49.2824 70.2571 49.2394 70.3001 49.1964 70.3001C48.5729 70.3646 47.9709 70.6226 47.4764 71.0096C47.3259 71.1171 47.2184 70.9666 47.1539 70.9021C47.0894 70.8376 47.1754 70.8376 46.6594 71.0956C46.6379 71.1171 46.6164 71.1171 46.5949 71.1171C46.5089 71.1171 46.4444 71.0526 46.4444 70.9666Z" fill="#4E6AF3"/>
<path fillRule="evenodd" clipRule="evenodd" d="M24.4341 69.146C24.8121 67.958 24.4341 67.1035 23.6601 66.695C22.8646 66.351 21.9401 66.5015 21.2736 67.039C20.2416 67.856 20.1556 69.2965 21.4026 69.9845C22.0261 70.3285 22.7571 70.393 23.4236 70.1995C23.8966 70.0275 24.2836 69.619 24.4341 69.146ZM22.0356 68.5679C22.0494 68.6541 22.0613 68.7286 22.0704 68.7831C22.1221 68.7543 22.1908 68.716 22.2712 68.6711C22.7923 68.38 23.8076 67.8127 23.9194 67.7941C23.9409 67.7726 23.9839 67.7941 24.0054 67.8156C24.0269 67.8586 24.0269 67.9016 23.9839 67.9231C23.7044 68.0951 22.5434 68.8906 22.2639 69.0841C22.2477 69.0957 22.232 69.1072 22.2166 69.1185C22.0895 69.2122 21.9874 69.2875 21.8339 69.1916C21.7311 69.1273 21.7205 68.7098 21.7102 68.3062C21.7033 68.0345 21.6965 67.7691 21.6619 67.6221C21.6404 67.5576 21.6834 67.5146 21.7264 67.4931C21.7909 67.4716 21.8339 67.5146 21.8554 67.5576C21.9063 67.7611 21.9839 68.2457 22.0356 68.5679Z" fill="#4E6AF3"/>
<rect y="58" width="28" height="28" rx="14" fill="#4E6AF3"/>
<path d="M12.7354 71.4014H13.6377C14.0798 71.4014 14.4443 71.3285 14.7314 71.1826C15.0231 71.0322 15.2396 70.8294 15.3809 70.5742C15.5267 70.3145 15.5996 70.0228 15.5996 69.6992C15.5996 69.3164 15.5358 68.9951 15.4082 68.7354C15.2806 68.4756 15.0892 68.2796 14.834 68.1475C14.5788 68.0153 14.2552 67.9492 13.8633 67.9492C13.5078 67.9492 13.1934 68.0199 12.9199 68.1611C12.651 68.2979 12.4391 68.4938 12.2842 68.749C12.1338 69.0042 12.0586 69.305 12.0586 69.6514H10.7939C10.7939 69.1455 10.9215 68.6852 11.1768 68.2705C11.432 67.8558 11.7897 67.5254 12.25 67.2793C12.7148 67.0332 13.2526 66.9102 13.8633 66.9102C14.4648 66.9102 14.9912 67.0173 15.4424 67.2314C15.8936 67.4411 16.2445 67.7555 16.4951 68.1748C16.7458 68.5895 16.8711 69.1068 16.8711 69.7266C16.8711 69.9772 16.8118 70.2461 16.6934 70.5332C16.5794 70.8158 16.3994 71.0801 16.1533 71.3262C15.9118 71.5723 15.5973 71.7751 15.21 71.9346C14.8226 72.0895 14.3577 72.167 13.8154 72.167H12.7354V71.4014ZM12.7354 72.4404V71.6816H13.8154C14.4489 71.6816 14.973 71.7568 15.3877 71.9072C15.8024 72.0576 16.1283 72.2581 16.3652 72.5088C16.6068 72.7594 16.7754 73.0352 16.8711 73.3359C16.9714 73.6322 17.0215 73.9284 17.0215 74.2246C17.0215 74.6895 16.9417 75.1019 16.7822 75.4619C16.6273 75.8219 16.4062 76.1273 16.1191 76.3779C15.8366 76.6286 15.5039 76.8177 15.1211 76.9453C14.7383 77.0729 14.3213 77.1367 13.8701 77.1367C13.4372 77.1367 13.0293 77.0752 12.6465 76.9521C12.2682 76.8291 11.9333 76.6514 11.6416 76.4189C11.3499 76.182 11.1221 75.8926 10.958 75.5508C10.7939 75.2044 10.7119 74.8102 10.7119 74.3682H11.9766C11.9766 74.7145 12.0518 75.0176 12.2021 75.2773C12.3571 75.5371 12.5758 75.7399 12.8584 75.8857C13.1455 76.027 13.4827 76.0977 13.8701 76.0977C14.2575 76.0977 14.5902 76.0316 14.8682 75.8994C15.1507 75.7627 15.3672 75.5576 15.5176 75.2842C15.6725 75.0107 15.75 74.6667 15.75 74.252C15.75 73.8372 15.6634 73.4977 15.4902 73.2334C15.3171 72.9645 15.071 72.7663 14.752 72.6387C14.4375 72.5065 14.0661 72.4404 13.6377 72.4404H12.7354Z" fill="white"/>
</svg>
