<svg width="15" height="14" viewBox="0 0 15 14" fill="none" xmlns="http://www.w3.org/2000/svg">
<path d="M12.7965 13.1637C11.3308 14.6295 7.57712 13.2522 4.41245 10.0875C1.24779 6.92288 -0.129457 3.1692 1.33628 1.70346L2.30135 0.738387C2.9676 0.0721419 4.06541 0.0897532 4.75338 0.777723L6.24819 2.27254C6.93616 2.96051 6.95378 4.05832 6.28753 4.72456L6.08024 4.93185C5.72053 5.29157 5.68534 5.87186 6.01958 6.2769C6.34198 6.66759 6.68955 7.05674 7.06641 7.43359C7.44326 7.81045 7.83241 8.15802 8.2231 8.48042C8.62814 8.81466 9.20843 8.77947 9.56815 8.41976L9.77544 8.21247C10.4417 7.54622 11.5395 7.56384 12.2275 8.25181L13.7223 9.74662C14.4102 10.4346 14.4279 11.5324 13.7616 12.1986L12.7965 13.1637Z" fill="white"/>
</svg>
