<svg width="20" height="20" viewBox="0 0 20 20" fill="none" xmlns="http://www.w3.org/2000/svg">
<path fill-rule="evenodd" clip-rule="evenodd" d="M7.02821 3.33377C7.02821 2.3059 7.86146 1.47266 8.88932 1.47266H16.6671C17.695 1.47266 18.5282 2.3059 18.5282 3.33377V16.6671C18.5282 17.695 17.695 18.5282 16.6671 18.5282H11.1115H7.77821H3.33377C2.3059 18.5282 1.47266 17.695 1.47266 16.6671V12.8518C1.47266 12.198 1.81566 11.5922 2.37623 11.2559L7.02821 8.46468V3.33377ZM7.02821 10.214L3.14798 12.5421C3.03921 12.6074 2.97266 12.7249 2.97266 12.8518V16.6671C2.97266 16.8665 3.13433 17.0282 3.33377 17.0282H7.02821V10.214ZM8.52821 17.0282H10.3615V15.556C10.3615 14.5281 11.1948 13.6949 12.2227 13.6949H13.3338C14.3616 13.6949 15.1949 14.5281 15.1949 15.556V17.0282H16.6671C16.8665 17.0282 17.0282 16.8665 17.0282 16.6671V3.33377C17.0282 3.13433 16.8665 2.97266 16.6671 2.97266H8.88932C8.68989 2.97266 8.52821 3.13433 8.52821 3.33377V8.88932V17.0282ZM13.6949 17.0282V15.556C13.6949 15.3566 13.5332 15.1949 13.3338 15.1949H12.2227C12.0232 15.1949 11.8615 15.3566 11.8615 15.556V17.0282H13.6949ZM10.3615 5.55599C10.3615 5.14178 10.6973 4.80599 11.1115 4.80599H14.4449C14.8591 4.80599 15.1949 5.14178 15.1949 5.55599C15.1949 5.9702 14.8591 6.30599 14.4449 6.30599H11.1115C10.6973 6.30599 10.3615 5.9702 10.3615 5.55599ZM10.3615 8.88932C10.3615 8.47511 10.6973 8.13932 11.1115 8.13932H14.4449C14.8591 8.13932 15.1949 8.47511 15.1949 8.88932C15.1949 9.30354 14.8591 9.63932 14.4449 9.63932H11.1115C10.6973 9.63932 10.3615 9.30354 10.3615 8.88932Z" fill="#2A344A"/>
</svg>
