<svg width="16" height="16" viewBox="0 0 16 16" fill="none" xmlns="http://www.w3.org/2000/svg">
<path fillRule="evenodd" clipRule="evenodd" d="M8 15.5C12.1421 15.5 15.5 12.1421 15.5 8C15.5 3.85786 12.1421 0.5 8 0.5C3.85786 0.5 0.5 3.85786 0.5 8C0.5 12.1421 3.85786 15.5 8 15.5ZM7.03033 5.96967C6.73744 5.67678 6.26256 5.67678 5.96967 5.96967C5.67678 6.26256 5.67678 6.73744 5.96967 7.03033L7.0305 8.09116L5.96967 9.15199C5.67678 9.44488 5.67678 9.91976 5.96967 10.2127C6.26256 10.5055 6.73744 10.5055 7.03033 10.2127L8.09116 9.15182L9.15165 10.2123C9.44454 10.5052 9.91942 10.5052 10.2123 10.2123C10.5052 9.91942 10.5052 9.44454 10.2123 9.15165L9.15182 8.09116L10.2123 7.03067C10.5052 6.73778 10.5052 6.2629 10.2123 5.97001C9.91942 5.67712 9.44454 5.67712 9.15165 5.97001L8.09116 7.0305L7.03033 5.96967Z" fill="#B8C6E3"/>
</svg>
