<svg width="16" height="16" viewBox="0 0 16 16" fill="none" xmlns="http://www.w3.org/2000/svg">
<path fill-rule="evenodd" clip-rule="evenodd" d="M6.64667 0.380621C6.0382 0.12158 5.43533 -0.135076 4.88649 0.080877C4.79063 0.118596 4.69562 0.158004 4.6015 0.199067C4.06118 0.434789 3.81635 1.04231 3.56927 1.65542C3.38456 2.11375 3.1986 2.5752 2.88699 2.8868C2.57537 3.19842 2.1139 3.38438 1.65555 3.56908C1.04242 3.81616 0.434895 4.06097 0.199155 4.60129C0.158059 4.69549 0.11862 4.79057 0.0808729 4.8865C-0.13508 5.43534 0.121577 6.03821 0.380618 6.64668C0.574202 7.1014 0.769117 7.55924 0.769117 8C0.769117 8.44075 0.574201 8.8986 0.380617 9.35331C0.121576 9.96178 -0.135082 10.5647 0.080871 11.1135C0.118586 11.2093 0.15799 11.3043 0.199048 11.3985C0.434777 11.9388 1.04234 12.1836 1.6555 12.4307C2.11387 12.6154 2.57536 12.8014 2.88699 13.113C3.19861 13.4246 3.38457 13.8861 3.56928 14.3445C3.81635 14.9576 4.06117 15.5652 4.60152 15.8009C4.69564 15.842 4.79066 15.8814 4.88652 15.9191C5.43536 16.1351 6.03823 15.8784 6.6467 15.6194C7.10141 15.4258 7.55925 15.2309 8.00001 15.2309C8.44077 15.2309 8.89861 15.4258 9.35332 15.6194C9.96179 15.8784 10.5647 16.1351 11.1135 15.9191C11.2093 15.8814 11.3043 15.842 11.3984 15.801C11.9388 15.5652 12.1836 14.9575 12.4307 14.3443C12.6154 13.8858 12.8013 13.4242 13.113 13.1125C13.4246 12.8009 13.8862 12.6149 14.3446 12.4302C14.9579 12.1831 15.5655 11.9383 15.8012 11.3979C15.8422 11.3039 15.8815 11.2091 15.9191 11.1135C16.1351 10.5647 15.8784 9.96178 15.6194 9.35331C15.4258 8.8986 15.2309 8.44076 15.2309 8C15.2309 7.55924 15.4258 7.1014 15.6194 6.64668C15.8784 6.03821 16.1351 5.43535 15.9191 4.88651C15.8813 4.79049 15.8419 4.69533 15.8007 4.60105C15.565 4.06075 14.9575 3.81595 14.3444 3.56888C13.8861 3.38418 13.4246 3.19823 13.113 2.88662C12.8014 2.57503 12.6154 2.11362 12.4307 1.65533C12.1837 1.04226 11.9388 0.43479 11.3985 0.199074C11.3044 0.158007 11.2094 0.118593 11.1135 0.0808707C10.5646 -0.135082 9.96178 0.121576 9.35331 0.380619C8.89859 0.574203 8.44075 0.769119 7.99999 0.769119C7.55923 0.769119 7.10139 0.574204 6.64667 0.380621ZM11.01 7.04995C11.3137 6.76831 11.3316 6.29378 11.05 5.99005C10.7683 5.68632 10.2938 5.66841 9.99005 5.95005L7.26471 8.47719L6.00996 7.31369C5.70623 7.03205 5.23169 7.04996 4.95005 7.35369C4.66841 7.65742 4.68632 8.13195 4.99005 8.41359L6.75475 10.05C7.0424 10.3167 7.48701 10.3167 7.77466 10.05L11.01 7.04995Z" fill="#FFD64C"/>
</svg>
