<svg width="16" height="16" viewBox="0 0 16 16" fill="none" xmlns="http://www.w3.org/2000/svg">
<path d="M12.1099 0.379766C9.38744 -0.126589 6.56021 -0.126589 3.8377 0.379766C2.63351 0.632943 1.11518 2.05074 0.853403 3.16472C0.382199 5.34204 0.382199 7.57 0.853403 9.74733C1.16754 10.8613 2.68586 12.2791 3.8377 12.5323C3.89005 12.5323 3.94241 12.5829 3.94241 12.6336V15.8236C3.94241 15.9755 4.15183 16.0768 4.25655 15.9249L5.82723 14.3552C5.82723 14.3552 7.08377 13.0893 7.29319 12.8867C7.29319 12.8867 7.34555 12.8361 7.39791 12.8361C8.96859 12.8867 10.5916 12.7348 12.1623 12.4816C13.3665 12.2285 14.8848 10.8107 15.1466 9.69669C15.6178 7.51937 15.6178 5.29141 15.1466 3.11408C14.8325 2.05074 13.3141 0.632943 12.1099 0.379766ZM12.1623 9.89924C11.9005 10.4056 11.5864 10.8107 11.0628 11.0639C10.9058 11.1145 10.7487 11.1651 10.5916 11.2158C10.3822 11.1651 10.2251 11.1145 10.0681 11.0639C8.39267 10.4056 6.82199 9.49415 5.56545 8.17763C4.88482 7.4181 4.3089 6.55729 3.8377 5.64586C3.62827 5.19014 3.41885 4.78505 3.26178 4.32933C3.10471 3.92425 3.36649 3.51917 3.62827 3.21535C3.89005 2.91154 4.20419 2.709 4.57068 2.55709C4.83246 2.40518 5.09424 2.50646 5.30367 2.709C5.72251 3.21535 6.14136 3.72171 6.4555 4.2787C6.66492 4.63315 6.61256 5.03823 6.24607 5.29141C6.14136 5.34204 6.089 5.39268 5.98429 5.49395C5.93194 5.54458 5.82722 5.59522 5.77487 5.69649C5.67015 5.8484 5.67016 6.0003 5.72251 6.15221C6.14136 7.31683 6.9267 8.22826 8.13089 8.73462C8.34031 8.83589 8.49738 8.88653 8.75916 8.88653C9.12566 8.83589 9.28272 8.43081 9.5445 8.22826C9.80628 8.02572 10.1204 8.02572 10.4346 8.17763C10.6963 8.32954 10.9581 8.53208 11.2722 8.73462C11.534 8.93716 11.7958 9.08907 12.0576 9.29161C12.2147 9.39288 12.267 9.64606 12.1623 9.89924ZM9.96335 6.10158C9.85864 6.10158 9.91099 6.10158 9.96335 6.10158C9.75392 6.10158 9.70157 6.0003 9.64921 5.8484C9.64921 5.74713 9.64921 5.59522 9.59686 5.49395C9.5445 5.29141 9.43979 5.08887 9.23037 4.93696C9.12566 4.88632 9.02094 4.83569 8.91623 4.78505C8.75916 4.73442 8.65445 4.73442 8.49738 4.73442C8.34031 4.68378 8.28796 4.58251 8.28796 4.4306C8.28796 4.32933 8.44503 4.22806 8.54974 4.22806C9.38743 4.2787 10.0157 4.73442 10.1204 5.69649C10.1204 5.74713 10.1204 5.8484 10.1204 5.89903C10.1204 6.0003 10.0681 6.10158 9.96335 6.10158ZM9.43979 3.87361C9.17801 3.77234 8.91623 3.67107 8.60209 3.62044C8.49738 3.62044 8.34031 3.5698 8.2356 3.5698C8.07853 3.5698 7.97382 3.46853 8.02618 3.31662C8.02618 3.16472 8.13089 3.06345 8.28796 3.11408C8.81152 3.16472 9.28272 3.26599 9.75393 3.46853C10.6963 3.92425 11.2199 4.68378 11.377 5.69649C11.377 5.74713 11.377 5.79776 11.377 5.8484C11.377 5.94967 11.377 6.05094 11.377 6.20284C11.377 6.25348 11.377 6.30412 11.377 6.35475C11.3246 6.55729 10.9581 6.60793 10.9058 6.35475C10.9058 6.30412 10.8534 6.20285 10.8534 6.15221C10.8534 5.69649 10.7487 5.24077 10.5393 4.83569C10.2251 4.37997 9.85864 4.07616 9.43979 3.87361ZM12.267 6.91174C12.1099 6.91174 12.0052 6.75984 12.0052 6.60793C12.0052 6.30412 11.9529 6.0003 11.9005 5.69649C11.6911 4.07615 10.3298 2.75963 8.70681 2.50646C8.44503 2.45582 8.18325 2.45582 7.97382 2.40518C7.81675 2.40518 7.60733 2.40519 7.55497 2.20264C7.50262 2.05074 7.65968 1.89883 7.81675 1.89883C7.86911 1.89883 7.92147 1.89883 7.92147 1.89883C8.02618 1.89883 10.0681 1.94947 7.92147 1.89883C10.1204 1.94947 11.9529 3.36726 12.3194 5.49395C12.3717 5.8484 12.4241 6.20285 12.4241 6.60793C12.5288 6.75984 12.4241 6.91174 12.267 6.91174Z" fill="white"/>
</svg>
