<svg width="10" height="10" viewBox="0 0 10 10" fill="none" xmlns="http://www.w3.org/2000/svg">
<path fill-rule="evenodd" clip-rule="evenodd" d="M9.30141 0.698186C9.5943 0.991078 9.5943 1.46595 9.30141 1.75885L6.06041 4.99984L9.30132 8.24075C9.59421 8.53364 9.59421 9.00852 9.30132 9.30141C9.00842 9.5943 8.53355 9.5943 8.24066 9.30141L4.99975 6.0605L1.75893 9.30132C1.46604 9.59421 0.991167 9.59421 0.698274 9.30132C0.405381 9.00842 0.405381 8.53355 0.698274 8.24066L3.93909 4.99984L0.698186 1.75894C0.405292 1.46605 0.405292 0.991172 0.698186 0.698279C0.991079 0.405386 1.46595 0.405386 1.75885 0.698279L4.99975 3.93918L8.24075 0.698186C8.53364 0.405292 9.00851 0.405292 9.30141 0.698186Z" fill="white"/>
</svg>
