<svg width="16" height="16" viewBox="0 0 16 16" fill="none" xmlns="http://www.w3.org/2000/svg">
<path d="M13.2965 14.1637C11.8308 15.6295 8.07712 14.2522 4.91245 11.0875C1.74779 7.92288 0.370543 4.16921 1.83628 2.70346L2.80135 1.73839C3.4676 1.07214 4.56541 1.08975 5.25338 1.77772L6.74819 3.27254C7.43616 3.96051 7.45378 5.05832 6.78753 5.72456L6.58024 5.93185C6.22053 6.29157 6.18534 6.87186 6.51958 7.2769C6.84198 7.66759 7.18955 8.05674 7.56641 8.43359C7.94326 8.81045 8.33241 9.15803 8.7231 9.48042C9.12814 9.81467 9.70843 9.77947 10.0681 9.41976L10.2754 9.21247C10.9417 8.54622 12.0395 8.56383 12.7275 9.25181L14.2223 10.7466C14.9102 11.4346 14.9279 12.5324 14.2616 13.1986L13.2965 14.1637Z" stroke="white" stroke-width="1.5"/>
</svg>
