<svg width="16" height="17" viewBox="0 0 16 17" fill="none" xmlns="http://www.w3.org/2000/svg">
<path d="M13.6594 2.78255C12.1542 1.28255 10.1472 0.449219 8.02877 0.449219C3.62458 0.449219 0.0566406 4.00477 0.0566406 8.39366C0.0566406 9.78255 0.446885 11.1714 1.11588 12.3381L0.226982 15.6156C0.126365 15.9866 0.464563 16.3276 0.836382 16.2301L4.23783 15.3381C5.40856 15.9492 6.69079 16.2826 8.02877 16.2826C12.4329 16.2826 16.0009 12.727 16.0009 8.33811C15.9451 6.28255 15.1647 4.28255 13.6594 2.78255ZM11.8755 11.227C11.7082 11.6714 10.9277 12.1159 10.5375 12.1714C10.203 12.227 9.75699 12.227 9.311 12.1159C9.03225 12.0048 8.64201 11.8937 8.19602 11.6714C6.18905 10.8381 4.90682 8.83811 4.79532 8.67144C4.68382 8.56033 3.95908 7.61588 3.95908 6.61588C3.95908 5.61588 4.46082 5.17144 4.62807 4.94922C4.79532 4.727 5.01831 4.727 5.18556 4.727C5.29706 4.727 5.46431 4.727 5.5758 4.727C5.6873 4.727 5.85455 4.67144 6.0218 5.06033C6.18905 5.44922 6.57929 6.44922 6.63504 6.50477C6.69079 6.61589 6.69079 6.727 6.63504 6.83811C6.57929 6.94922 6.52354 7.06033 6.41204 7.17144C6.30054 7.28255 6.18904 7.44922 6.13329 7.50477C6.0218 7.61589 5.9103 7.727 6.0218 7.89366C6.1333 8.11588 6.52354 8.727 7.13678 9.28255C7.91727 9.94922 8.53051 10.1714 8.75351 10.2826C8.9765 10.3937 9.088 10.3381 9.1995 10.227C9.311 10.1159 9.70124 9.67144 9.81274 9.44922C9.92424 9.227 10.0915 9.28255 10.2587 9.33811C10.426 9.39366 11.4295 9.89366 11.5967 10.0048C11.8197 10.1159 11.9312 10.1714 11.987 10.227C12.0427 10.3937 12.0427 10.7826 11.8755 11.227Z" fill="white"/>
</svg>
