<svg width="14" height="9" viewBox="0 0 14 9" fill="none" xmlns="http://www.w3.org/2000/svg">
<path d="M0 0.453839V6.52696C0.00268913 7.18566 0.226048 7.81615 0.620992 8.27987C1.01594 8.74359 1.55015 9.0026 2.10624 8.99998H9.57968C9.6807 9.00056 9.7778 8.95366 9.84967 8.86955C9.92154 8.78544 9.96232 8.671 9.96305 8.55133V2.47821C9.96036 1.81951 9.737 1.18903 9.34206 0.725307C8.94711 0.261587 8.4129 0.00257588 7.85681 0.00519405H0.385681C0.335462 0.00454431 0.285629 0.0156457 0.239041 0.0378609C0.192452 0.0600762 0.150025 0.0929679 0.114192 0.13465C0.0783595 0.176333 0.0498269 0.225985 0.0302311 0.280759C0.0106353 0.335533 0.000361812 0.394351 0 0.453839ZM10.4388 2.8229L13.5243 0.152918C13.7921 -0.11025 14 -0.0440473 14 0.431954V8.57322C14 9.11488 13.746 9.04922 13.5243 8.85171L10.4388 6.18774V2.8229Z" fill="white"/>
</svg>
